<svg width="390" height="97" viewBox="0 0 390 97" fill="none" xmlns="http://www.w3.org/2000/svg">
<g filter="url(#filter0_b_1_450)">
<path d="M158.059 4.26591C159.107 3.09093 158.388 0.877553 156.815 0.958185L0 9V97H390V9L232.2 0.907709C230.603 0.825811 229.877 3.07248 230.941 4.26591C232.424 5.9284 233.543 7.88217 234.227 10.0022C235 12.398 235 15.0703 235 20.4148V38.5852C235 43.9298 235 46.602 234.227 48.9979C233.543 51.1178 232.424 53.0716 230.941 54.7341C229.265 56.6129 226.96 57.9647 222.35 60.6683L207.45 69.4059C202.736 72.1703 200.379 73.5525 197.869 74.0931C195.648 74.5714 193.352 74.5714 191.131 74.0931C188.621 73.5525 186.264 72.1703 181.55 69.4059L166.65 60.6683C162.04 57.9647 159.735 56.6129 158.059 54.7341C156.576 53.0716 155.457 51.1178 154.773 48.9979C154 46.602 154 43.9298 154 38.5853V20.4148C154 15.0703 154 12.398 154.773 10.0022C155.457 7.88217 156.576 5.9284 158.059 4.26591Z" fill="black" fill-opacity="0.5"/>
<path d="M157.872 4.09951L158.059 4.26591L157.872 4.09951C156.367 5.78797 155.23 7.77228 154.535 9.92538C153.75 12.3587 153.75 15.0673 153.75 20.357V20.4148V38.5853V38.643C153.75 43.9327 153.75 46.6413 154.535 49.0746C155.23 51.2277 156.367 53.212 157.872 54.9005C159.574 56.8087 161.911 58.1789 166.474 60.8547L166.524 60.8839L181.424 69.6216L181.475 69.6514C186.14 72.3875 188.529 73.7884 191.078 74.3375C193.334 74.8233 195.666 74.8233 197.922 74.3375C200.471 73.7884 202.86 72.3874 207.526 69.6513L207.576 69.6216L222.476 60.8839L222.526 60.8546C227.089 58.1788 229.426 56.8087 231.128 54.9005C232.633 53.212 233.77 51.2277 234.465 49.0746C235.25 46.6413 235.25 43.9327 235.25 38.643V38.5852V20.4148V20.357C235.25 15.0673 235.25 12.3587 234.465 9.92538C233.77 7.77228 232.633 5.78797 231.128 4.09951C230.667 3.58339 230.584 2.82368 230.808 2.19206C231.031 1.56342 231.53 1.12368 232.188 1.15738L389.75 9.23751V96.75H0.25V9.23751L156.828 1.20786C157.473 1.17478 157.964 1.60658 158.184 2.22494C158.405 2.84621 158.324 3.59281 157.872 4.09951Z" stroke="url(#paint0_linear_1_450)" stroke-opacity="0.5" stroke-width="0.5"/>
</g>
<defs>
<filter id="filter0_b_1_450" x="-54" y="-53.0945" width="498" height="204.094" filterUnits="userSpaceOnUse" color-interpolation-filters="sRGB">
<feFlood flood-opacity="0" result="BackgroundImageFix"/>
<feGaussianBlur in="BackgroundImageFix" stdDeviation="27"/>
<feComposite in2="SourceAlpha" operator="in" result="effect1_backgroundBlur_1_450"/>
<feBlend mode="normal" in="SourceGraphic" in2="effect1_backgroundBlur_1_450" result="shape"/>
</filter>
<linearGradient id="paint0_linear_1_450" x1="195" y1="-0.687469" x2="195" y2="97" gradientUnits="userSpaceOnUse">
<stop stop-color="white"/>
<stop offset="0.0708112" stop-color="white" stop-opacity="0"/>
</linearGradient>
</defs>
</svg>
