<svg width="79" height="86" viewBox="0 0 79 86" fill="none" xmlns="http://www.w3.org/2000/svg">
<g filter="url(#filter0_bd_76_869)">
<path d="M26.4388 15.7481C31.1905 12.9294 33.5663 11.52 36.0994 10.969C38.3403 10.4816 40.6597 10.4816 42.9005 10.969C45.4337 11.52 47.8095 12.9294 52.5612 15.7482L56.4612 18.0617C61.0322 20.7733 63.3177 22.1292 64.9785 24.0046C66.4481 25.6642 67.5568 27.611 68.2343 29.7217C69 32.1069 69 34.7643 69 40.0791V45.9209C69 51.2357 69 53.8931 68.2343 56.2783C67.5568 58.389 66.4481 60.3358 64.9785 61.9954C63.3177 63.8708 61.0322 65.2267 56.4612 67.9383L52.5612 70.2519C47.8095 73.0706 45.4337 74.48 42.9005 75.031C40.6597 75.5184 38.3403 75.5184 36.0994 75.031C33.5663 74.48 31.1905 73.0706 26.4388 70.2519L22.5388 67.9383C17.9678 65.2267 15.6823 63.8708 14.0215 61.9954C12.5519 60.3358 11.4432 58.389 10.7657 56.2783C10 53.8931 10 51.2357 10 45.9209V40.0791C10 34.7643 10 32.1069 10.7657 29.7217C11.4432 27.611 12.5519 25.6642 14.0215 24.0046C15.6823 22.1292 17.9678 20.7733 22.5388 18.0617L26.4388 15.7481Z" fill="white" fill-opacity="0.1" shape-rendering="crispEdges"/>
<path d="M26.5664 15.9632C31.333 13.1355 33.6685 11.7536 36.1526 11.2133C38.3584 10.7335 40.6416 10.7335 42.8474 11.2133C45.3315 11.7536 47.667 13.1355 52.4336 15.9632L56.3336 18.2767C60.919 20.9968 63.1627 22.3312 64.7913 24.1703C66.238 25.804 67.3294 27.7204 67.9963 29.7981C68.7472 32.1372 68.75 34.7477 68.75 40.0791V45.9209C68.75 51.2523 68.7472 53.8628 67.9963 56.2019C67.3294 58.2796 66.238 60.196 64.7913 61.8297C63.1627 63.6688 60.919 65.0032 56.3336 67.7233L52.4336 70.0368C47.667 72.8645 45.3315 74.2464 42.8474 74.7867C40.6416 75.2665 38.3584 75.2665 36.1526 74.7867C33.6685 74.2464 31.333 72.8645 26.5664 70.0368L22.6664 67.7233C18.081 65.0032 15.8373 63.6688 14.2087 61.8297C12.762 60.196 11.6706 58.2796 11.0037 56.2019C10.2528 53.8628 10.25 51.2523 10.25 45.9209V40.0791C10.25 34.7477 10.2528 32.1372 11.0037 29.7981C11.6706 27.7204 12.762 25.804 14.2087 24.1703C15.8373 22.3312 18.081 20.9968 22.6664 18.2767L26.5664 15.9632Z" stroke="url(#paint0_linear_76_869)" stroke-opacity="0.5" stroke-width="0.5" shape-rendering="crispEdges"/>
<path d="M26.5664 15.9632C31.333 13.1355 33.6685 11.7536 36.1526 11.2133C38.3584 10.7335 40.6416 10.7335 42.8474 11.2133C45.3315 11.7536 47.667 13.1355 52.4336 15.9632L56.3336 18.2767C60.919 20.9968 63.1627 22.3312 64.7913 24.1703C66.238 25.804 67.3294 27.7204 67.9963 29.7981C68.7472 32.1372 68.75 34.7477 68.75 40.0791V45.9209C68.75 51.2523 68.7472 53.8628 67.9963 56.2019C67.3294 58.2796 66.238 60.196 64.7913 61.8297C63.1627 63.6688 60.919 65.0032 56.3336 67.7233L52.4336 70.0368C47.667 72.8645 45.3315 74.2464 42.8474 74.7867C40.6416 75.2665 38.3584 75.2665 36.1526 74.7867C33.6685 74.2464 31.333 72.8645 26.5664 70.0368L22.6664 67.7233C18.081 65.0032 15.8373 63.6688 14.2087 61.8297C12.762 60.196 11.6706 58.2796 11.0037 56.2019C10.2528 53.8628 10.25 51.2523 10.25 45.9209V40.0791C10.25 34.7477 10.2528 32.1372 11.0037 29.7981C11.6706 27.7204 12.762 25.804 14.2087 24.1703C15.8373 22.3312 18.081 20.9968 22.6664 18.2767L26.5664 15.9632Z" stroke="url(#paint1_linear_76_869)" stroke-opacity="0.5" stroke-width="0.5" shape-rendering="crispEdges"/>
</g>
<g filter="url(#filter1_b_76_869)">
<path d="M26.5778 19.8082C31.2803 16.9667 33.6316 15.546 36.147 14.9734C38.3723 14.4668 40.6801 14.4422 42.9157 14.9011C45.4428 15.4199 47.8238 16.7901 52.5859 19.5306L53.1687 19.866C57.8428 22.5558 60.1799 23.9007 61.8797 25.7848C63.3838 27.4519 64.5201 29.4169 65.2148 31.5519C66 33.965 66 36.6614 66 42.0542V42.9458C66 48.3386 66 51.035 65.2148 53.4481C64.5201 55.5831 63.3838 57.5481 61.8797 59.2152C60.1799 61.0993 57.8428 62.4442 53.1687 65.134L52.2687 65.652C47.6163 68.3293 45.29 69.668 42.8178 70.192C40.6302 70.6557 38.3698 70.6557 36.1822 70.192C33.71 69.668 31.3837 68.3293 26.7313 65.652L25.8313 65.134C21.1572 62.4442 18.8201 61.0993 17.1203 59.2152C15.6162 57.5481 14.4799 55.5831 13.7852 53.4481C13 51.035 13 48.3386 13 42.9458V42.4544C13 37.1871 13 34.5535 13.7538 32.1855C14.4209 30.0899 15.5128 28.1543 16.9614 26.4995C18.5984 24.6297 20.8524 23.2677 25.3606 20.5437L26.5778 19.8082Z" fill="white" fill-opacity="0.5"/>
<path d="M26.7071 20.0222C31.4244 17.1718 33.7357 15.7787 36.2025 15.2171C38.393 14.7185 40.6648 14.6943 42.8654 15.146C45.3436 15.6548 47.6842 16.9982 52.4612 19.7473L53.044 20.0826C57.7328 22.7809 60.0271 24.1046 61.6941 25.9523C63.1746 27.5933 64.2932 29.5276 64.9771 31.6293C65.7471 33.9957 65.75 36.6445 65.75 42.0542V42.9458C65.75 48.3555 65.7471 51.0043 64.9771 53.3707C64.2932 55.4724 63.1746 57.4067 61.6941 59.0477C60.0271 60.8954 57.7328 62.2191 53.044 64.9173L52.144 65.4353C47.477 68.121 45.1904 69.4336 42.7659 69.9475C40.6126 70.4039 38.3874 70.4039 36.2341 69.9475C33.8096 69.4336 31.523 68.121 26.856 65.4353L25.956 64.9173C21.2672 62.2191 18.9729 60.8954 17.3059 59.0477C15.8254 57.4067 14.7068 55.4724 14.0229 53.3707C13.2529 51.0043 13.25 48.3555 13.25 42.9458V42.4544C13.25 37.1707 13.2528 34.5836 13.992 32.2613C14.6487 30.1984 15.7236 28.2931 17.1495 26.6642C18.7548 24.8305 20.9676 23.4902 25.4899 20.7576L26.7071 20.0222Z" stroke="url(#paint2_linear_76_869)" stroke-opacity="0.5" stroke-width="0.5"/>
<path d="M26.7071 20.0222C31.4244 17.1718 33.7357 15.7787 36.2025 15.2171C38.393 14.7185 40.6648 14.6943 42.8654 15.146C45.3436 15.6548 47.6842 16.9982 52.4612 19.7473L53.044 20.0826C57.7328 22.7809 60.0271 24.1046 61.6941 25.9523C63.1746 27.5933 64.2932 29.5276 64.9771 31.6293C65.7471 33.9957 65.75 36.6445 65.75 42.0542V42.9458C65.75 48.3555 65.7471 51.0043 64.9771 53.3707C64.2932 55.4724 63.1746 57.4067 61.6941 59.0477C60.0271 60.8954 57.7328 62.2191 53.044 64.9173L52.144 65.4353C47.477 68.121 45.1904 69.4336 42.7659 69.9475C40.6126 70.4039 38.3874 70.4039 36.2341 69.9475C33.8096 69.4336 31.523 68.121 26.856 65.4353L25.956 64.9173C21.2672 62.2191 18.9729 60.8954 17.3059 59.0477C15.8254 57.4067 14.7068 55.4724 14.0229 53.3707C13.2529 51.0043 13.25 48.3555 13.25 42.9458V42.4544C13.25 37.1707 13.2528 34.5836 13.992 32.2613C14.6487 30.1984 15.7236 28.2931 17.1495 26.6642C18.7548 24.8305 20.9676 23.4902 25.4899 20.7576L26.7071 20.0222Z" stroke="url(#paint3_linear_76_869)" stroke-opacity="0.5" stroke-width="0.5"/>
</g>
<path opacity="0.7" d="M23.0507 55.8H23.9087V60H23.0507V55.8ZM23.5727 56.526V55.8H24.4067C24.7387 55.8 25.0207 55.854 25.2527 55.962C25.4887 56.07 25.6687 56.224 25.7927 56.424C25.9167 56.624 25.9787 56.862 25.9787 57.138C25.9787 57.41 25.9167 57.648 25.7927 57.852C25.6687 58.052 25.4887 58.206 25.2527 58.314C25.0207 58.422 24.7387 58.476 24.4067 58.476H23.5727V57.75H24.4067C24.6347 57.75 24.8147 57.698 24.9467 57.594C25.0787 57.49 25.1447 57.338 25.1447 57.138C25.1447 56.934 25.0787 56.782 24.9467 56.682C24.8147 56.578 24.6347 56.526 24.4067 56.526H23.5727ZM27.3085 57.9C27.3085 58.168 27.3645 58.406 27.4765 58.614C27.5885 58.822 27.7425 58.986 27.9385 59.106C28.1345 59.226 28.3625 59.286 28.6225 59.286C28.8825 59.286 29.1105 59.226 29.3065 59.106C29.5025 58.986 29.6545 58.822 29.7625 58.614C29.8745 58.406 29.9305 58.168 29.9305 57.9C29.9305 57.632 29.8765 57.394 29.7685 57.186C29.6605 56.978 29.5085 56.814 29.3125 56.694C29.1165 56.574 28.8865 56.514 28.6225 56.514C28.3625 56.514 28.1345 56.574 27.9385 56.694C27.7425 56.814 27.5885 56.978 27.4765 57.186C27.3645 57.394 27.3085 57.632 27.3085 57.9ZM26.4025 57.9C26.4025 57.58 26.4585 57.288 26.5705 57.024C26.6825 56.756 26.8385 56.524 27.0385 56.328C27.2385 56.132 27.4725 55.982 27.7405 55.878C28.0125 55.77 28.3065 55.716 28.6225 55.716C28.9425 55.716 29.2365 55.77 29.5045 55.878C29.7725 55.982 30.0065 56.132 30.2065 56.328C30.4105 56.524 30.5665 56.756 30.6745 57.024C30.7865 57.288 30.8425 57.58 30.8425 57.9C30.8425 58.216 30.7865 58.51 30.6745 58.782C30.5665 59.05 30.4125 59.284 30.2125 59.484C30.0165 59.684 29.7825 59.84 29.5105 59.952C29.2425 60.06 28.9465 60.114 28.6225 60.114C28.2985 60.114 28.0005 60.06 27.7285 59.952C27.4605 59.84 27.2265 59.684 27.0265 59.484C26.8265 59.284 26.6725 59.05 26.5645 58.782C26.4565 58.51 26.4025 58.216 26.4025 57.9ZM35.1762 58.41L36.0762 55.8H37.0842L35.3142 60.234L33.9942 57.474L32.6682 60.234L30.9042 55.8H31.9122L32.8242 58.41L33.9942 55.59L35.1762 58.41ZM38.1223 60V59.274H40.2403V60H38.1223ZM38.1223 56.526V55.8H40.2403V56.526H38.1223ZM38.1223 58.128V57.414H40.1203V58.128H38.1223ZM37.5703 55.8H38.3983V60H37.5703V55.8ZM42.0399 58.044H42.9459L44.3139 60H43.2999L42.0399 58.044ZM41.0859 55.8H41.9439V60H41.0859V55.8ZM41.6079 56.532V55.8H42.4959C42.8279 55.8 43.1099 55.856 43.3419 55.968C43.5739 56.08 43.7519 56.236 43.8759 56.436C43.9999 56.636 44.0619 56.87 44.0619 57.138C44.0619 57.402 43.9999 57.636 43.8759 57.84C43.7519 58.04 43.5739 58.196 43.3419 58.308C43.1099 58.42 42.8279 58.476 42.4959 58.476H41.6079V57.792H42.4419C42.5939 57.792 42.7239 57.768 42.8319 57.72C42.9439 57.668 43.0299 57.596 43.0899 57.504C43.1499 57.408 43.1799 57.294 43.1799 57.162C43.1799 57.03 43.1499 56.918 43.0899 56.826C43.0299 56.73 42.9439 56.658 42.8319 56.61C42.7239 56.558 42.5939 56.532 42.4419 56.532H41.6079ZM46.5754 55.8H47.4334V58.566C47.4334 58.806 47.4954 59 47.6194 59.148C47.7474 59.292 47.9354 59.364 48.1834 59.364C48.4314 59.364 48.6174 59.292 48.7414 59.148C48.8694 59 48.9334 58.806 48.9334 58.566V55.8H49.7914V58.62C49.7914 58.868 49.7514 59.086 49.6714 59.274C49.5914 59.462 49.4774 59.62 49.3294 59.748C49.1854 59.876 49.0154 59.972 48.8194 60.036C48.6234 60.104 48.4114 60.138 48.1834 60.138C47.9514 60.138 47.7374 60.104 47.5414 60.036C47.3454 59.972 47.1754 59.876 47.0314 59.748C46.8874 59.62 46.7754 59.462 46.6954 59.274C46.6154 59.086 46.5754 58.868 46.5754 58.62V55.8ZM50.666 55.8H51.524V60H50.666V55.8ZM51.188 56.526V55.8H52.022C52.354 55.8 52.636 55.854 52.868 55.962C53.104 56.07 53.284 56.224 53.408 56.424C53.532 56.624 53.594 56.862 53.594 57.138C53.594 57.41 53.532 57.648 53.408 57.852C53.284 58.052 53.104 58.206 52.868 58.314C52.636 58.422 52.354 58.476 52.022 58.476H51.188V57.75H52.022C52.25 57.75 52.43 57.698 52.562 57.594C52.694 57.49 52.76 57.338 52.76 57.138C52.76 56.934 52.694 56.782 52.562 56.682C52.43 56.578 52.25 56.526 52.022 56.526H51.188ZM54.6238 58.59C54.7118 58.746 54.8078 58.882 54.9118 58.998C55.0198 59.114 55.1378 59.204 55.2658 59.268C55.3938 59.332 55.5318 59.364 55.6798 59.364C55.8518 59.364 55.9918 59.32 56.0998 59.232C56.2078 59.144 56.2618 59.024 56.2618 58.872C56.2618 58.74 56.2278 58.634 56.1598 58.554C56.0958 58.474 55.9978 58.404 55.8658 58.344C55.7378 58.28 55.5798 58.212 55.3918 58.14C55.2918 58.104 55.1758 58.056 55.0438 57.996C54.9158 57.932 54.7938 57.852 54.6778 57.756C54.5618 57.656 54.4658 57.536 54.3898 57.396C54.3138 57.252 54.2758 57.08 54.2758 56.88C54.2758 56.64 54.3358 56.434 54.4558 56.262C54.5798 56.086 54.7458 55.952 54.9538 55.86C55.1658 55.764 55.4018 55.716 55.6618 55.716C55.9298 55.716 56.1598 55.762 56.3518 55.854C56.5478 55.942 56.7098 56.056 56.8378 56.196C56.9698 56.332 57.0718 56.474 57.1438 56.622L56.4718 56.994C56.4158 56.894 56.3478 56.804 56.2678 56.724C56.1918 56.64 56.1038 56.574 56.0038 56.526C55.9038 56.474 55.7898 56.448 55.6618 56.448C55.4938 56.448 55.3678 56.488 55.2838 56.568C55.1998 56.644 55.1578 56.734 55.1578 56.838C55.1578 56.942 55.1918 57.034 55.2598 57.114C55.3278 57.19 55.4318 57.264 55.5718 57.336C55.7118 57.404 55.8878 57.474 56.0998 57.546C56.2358 57.594 56.3658 57.654 56.4898 57.726C56.6178 57.798 56.7318 57.886 56.8318 57.99C56.9358 58.09 57.0158 58.21 57.0718 58.35C57.1318 58.486 57.1618 58.644 57.1618 58.824C57.1618 59.028 57.1218 59.21 57.0418 59.37C56.9618 59.53 56.8518 59.666 56.7118 59.778C56.5718 59.886 56.4138 59.968 56.2378 60.024C56.0658 60.084 55.8838 60.114 55.6918 60.114C55.4358 60.114 55.1958 60.066 54.9718 59.97C54.7518 59.87 54.5598 59.736 54.3958 59.568C54.2318 59.4 54.1038 59.218 54.0118 59.022L54.6238 58.59Z" fill="#222222"/>
<path d="M48.1667 32.3334C50.0997 32.3334 51.6667 30.7664 51.6667 28.8334C51.6667 26.9004 50.0997 25.3334 48.1667 25.3334C46.2337 25.3334 44.6667 26.9004 44.6667 28.8334C44.6667 30.7664 46.2337 32.3334 48.1667 32.3334Z" fill="#FF7A1A"/>
<path opacity="0.4" d="M48.1667 34.0833C45.2733 34.0833 42.9167 31.7267 42.9167 28.8333C42.9167 27.9933 43.1383 27.2117 43.4883 26.5H34.7733C30.7483 26.5 28.3333 28.9033 28.3333 32.94V42.215C28.3333 46.2633 30.7483 48.6667 34.7733 48.6667H44.0483C48.085 48.6667 50.4883 46.2633 50.4883 42.2267V33.5117C49.7883 33.8617 49.0067 34.0833 48.1667 34.0833Z" fill="#222222"/>
<path opacity="0.7" d="M38.7167 37.42C38.0517 37.21 37.34 37.3267 36.8383 37.7233C36.325 37.3267 35.625 37.21 34.9717 37.42C33.5367 37.8867 33.0817 39.52 33.49 40.78C34.1083 42.6933 36.1267 43.685 36.85 43.685C37.5617 43.685 39.615 42.67 40.21 40.78C40.6183 39.52 40.1517 37.8867 38.7167 37.42Z" fill="#222222"/>
<defs>
<filter id="filter0_bd_76_869" x="-44" y="-43.3965" width="167" height="172.793" filterUnits="userSpaceOnUse" color-interpolation-filters="sRGB">
<feFlood flood-opacity="0" result="BackgroundImageFix"/>
<feGaussianBlur in="BackgroundImageFix" stdDeviation="27"/>
<feComposite in2="SourceAlpha" operator="in" result="effect1_backgroundBlur_76_869"/>
<feColorMatrix in="SourceAlpha" type="matrix" values="0 0 0 0 0 0 0 0 0 0 0 0 0 0 0 0 0 0 127 0" result="hardAlpha"/>
<feOffset/>
<feGaussianBlur stdDeviation="5"/>
<feComposite in2="hardAlpha" operator="out"/>
<feColorMatrix type="matrix" values="0 0 0 0 0 0 0 0 0 0 0 0 0 0 0 0 0 0 0.3 0"/>
<feBlend mode="normal" in2="effect1_backgroundBlur_76_869" result="effect2_dropShadow_76_869"/>
<feBlend mode="normal" in="SourceGraphic" in2="effect2_dropShadow_76_869" result="shape"/>
</filter>
<filter id="filter1_b_76_869" x="-41" y="-39.4257" width="161" height="163.965" filterUnits="userSpaceOnUse" color-interpolation-filters="sRGB">
<feFlood flood-opacity="0" result="BackgroundImageFix"/>
<feGaussianBlur in="BackgroundImageFix" stdDeviation="27"/>
<feComposite in2="SourceAlpha" operator="in" result="effect1_backgroundBlur_76_869"/>
<feBlend mode="normal" in="SourceGraphic" in2="effect1_backgroundBlur_76_869" result="shape"/>
</filter>
<linearGradient id="paint0_linear_76_869" x1="72.2065" y1="1.91304" x2="47.2883" y2="-19.435" gradientUnits="userSpaceOnUse">
<stop stop-color="white" stop-opacity="0"/>
<stop offset="1" stop-color="white"/>
</linearGradient>
<linearGradient id="paint1_linear_76_869" x1="55.5326" y1="78" x2="36.801" y2="62.6329" gradientUnits="userSpaceOnUse">
<stop stop-color="white"/>
<stop offset="1" stop-color="white" stop-opacity="0"/>
</linearGradient>
<linearGradient id="paint2_linear_76_869" x1="68.8804" y1="6.69565" x2="47.0744" y2="-12.5623" gradientUnits="userSpaceOnUse">
<stop stop-color="white" stop-opacity="0"/>
<stop offset="1" stop-color="white"/>
</linearGradient>
<linearGradient id="paint3_linear_76_869" x1="53.9022" y1="73" x2="37.489" y2="59.1196" gradientUnits="userSpaceOnUse">
<stop stop-color="white"/>
<stop offset="1" stop-color="white" stop-opacity="0"/>
</linearGradient>
</defs>
</svg>
