<svg width="91" height="100" viewBox="0 0 91 100" fill="none" xmlns="http://www.w3.org/2000/svg">
<g filter="url(#filter0_bd_1_480)">
<path d="M32.4448 15.7399C37.1944 12.924 39.5692 11.5161 42.1011 10.9657C44.3409 10.4788 46.6591 10.4788 48.8989 10.9657C51.4308 11.5161 53.8056 12.924 58.5553 15.7399L68.4553 21.6092C73.0284 24.3204 75.3149 25.676 76.9765 27.5516C78.4468 29.2114 79.5561 31.1586 80.2339 33.2697C81 35.6555 81 38.3137 81 43.6301V56.5556C81 61.872 81 64.5302 80.2339 66.916C79.5561 69.0271 78.4468 70.9744 76.9765 72.6341C75.3149 74.5097 73.0284 75.8653 68.4553 78.5765L58.5552 84.4458C53.8056 87.2617 51.4308 88.6696 48.8989 89.22C46.6591 89.7069 44.3409 89.7069 42.1011 89.22C39.5692 88.6696 37.1944 87.2617 32.4447 84.4458L22.5447 78.5765C17.9716 75.8653 15.6851 74.5097 14.0235 72.6341C12.5532 70.9744 11.4439 69.0271 10.7661 66.916C10 64.5302 10 61.872 10 56.5556V43.6301C10 38.3137 10 35.6555 10.7661 33.2697C11.4439 31.1586 12.5532 29.2114 14.0235 27.5516C15.6851 25.676 17.9716 24.3204 22.5447 21.6092L32.4448 15.7399Z" fill="black" fill-opacity="0.1" shape-rendering="crispEdges"/>
<path d="M32.5722 15.9549C37.3368 13.1302 39.6713 11.7497 42.1542 11.21C44.359 10.7307 46.641 10.7307 48.8458 11.21C51.3287 11.7497 53.6632 13.1302 58.4278 15.9549L68.3278 21.8242C72.9152 24.5439 75.1599 25.878 76.7894 27.7174C78.2367 29.3512 79.3286 31.268 79.9959 33.3461C80.7472 35.6858 80.75 38.2971 80.75 43.6301V56.5556C80.75 61.8887 80.7472 64.4999 79.9959 66.8396C79.3286 68.9177 78.2367 70.8345 76.7894 72.4683C75.1599 74.3077 72.9152 75.6418 68.3278 78.3615L58.4277 84.2308C53.6632 87.0555 51.3287 88.436 48.8458 88.9757C46.641 89.455 44.359 89.455 42.1542 88.9757C39.6713 88.436 37.3368 87.0555 32.5722 84.2308L22.6722 78.3615C18.0848 75.6418 15.8401 74.3077 14.2106 72.4683C12.7633 70.8345 11.6714 68.9177 11.0041 66.8396C10.2528 64.4999 10.25 61.8887 10.25 56.5556V43.6301C10.25 38.2971 10.2528 35.6858 11.0041 33.3461C11.6714 31.268 12.7633 29.3512 14.2106 27.7174C15.8401 25.878 18.0848 24.5439 22.6722 21.8242L32.5722 15.9549Z" stroke="url(#paint0_linear_1_480)" stroke-width="0.5" shape-rendering="crispEdges"/>
<path d="M32.5722 15.9549C37.3368 13.1302 39.6713 11.7497 42.1542 11.21C44.359 10.7307 46.641 10.7307 48.8458 11.21C51.3287 11.7497 53.6632 13.1302 58.4278 15.9549L68.3278 21.8242C72.9152 24.5439 75.1599 25.878 76.7894 27.7174C78.2367 29.3512 79.3286 31.268 79.9959 33.3461C80.7472 35.6858 80.75 38.2971 80.75 43.6301V56.5556C80.75 61.8887 80.7472 64.4999 79.9959 66.8396C79.3286 68.9177 78.2367 70.8345 76.7894 72.4683C75.1599 74.3077 72.9152 75.6418 68.3278 78.3615L58.4277 84.2308C53.6632 87.0555 51.3287 88.436 48.8458 88.9757C46.641 89.455 44.359 89.455 42.1542 88.9757C39.6713 88.436 37.3368 87.0555 32.5722 84.2308L22.6722 78.3615C18.0848 75.6418 15.8401 74.3077 14.2106 72.4683C12.7633 70.8345 11.6714 68.9177 11.0041 66.8396C10.2528 64.4999 10.25 61.8887 10.25 56.5556V43.6301C10.25 38.2971 10.2528 35.6858 11.0041 33.3461C11.6714 31.268 12.7633 29.3512 14.2106 27.7174C15.8401 25.878 18.0848 24.5439 22.6722 21.8242L32.5722 15.9549Z" stroke="url(#paint1_linear_1_480)" stroke-width="0.5" shape-rendering="crispEdges"/>
</g>
<g filter="url(#filter1_bd_1_480)">
<path d="M35.5656 19.0068C39.1761 16.8237 40.9814 15.7322 42.9101 15.3059C44.6161 14.9288 46.3839 14.9288 48.0898 15.3059C50.0186 15.7322 51.8239 16.8237 55.4344 19.0068L67.7344 26.444C71.1138 28.4874 72.8035 29.509 74.0306 30.9112C75.1165 32.1521 75.935 33.6035 76.435 35.1748C77 36.9504 77 38.925 77 42.8741V57.3116C77 61.2607 77 63.2353 76.435 65.0109C75.935 66.5822 75.1165 68.0336 74.0306 69.2745C72.8035 70.6767 71.1138 71.6984 67.7344 73.7417L55.4344 81.1789C51.8239 83.362 50.0186 84.4535 48.0898 84.8798C46.3839 85.2569 44.6161 85.2569 42.9101 84.8798C40.9814 84.4535 39.1761 83.362 35.5656 81.1789L23.2656 73.7417C19.8862 71.6984 18.1965 70.6767 16.9694 69.2745C15.8835 68.0336 15.065 66.5822 14.565 65.0109C14 63.2353 14 61.2607 14 57.3116V42.8741C14 38.925 14 36.9504 14.565 35.1748C15.065 33.6035 15.8835 32.1521 16.9694 30.9112C18.1965 29.509 19.8862 28.4874 23.2656 26.444L35.5656 19.0068Z" fill="black" fill-opacity="0.7" shape-rendering="crispEdges"/>
<path d="M35.6949 19.2208C39.3206 17.0285 41.0851 15.9653 42.9641 15.55C44.6345 15.1808 46.3655 15.1808 48.0359 15.55C49.9149 15.9653 51.6794 17.0285 55.3051 19.2208L67.6051 26.6579C70.9985 28.7098 72.647 29.7098 73.8424 31.0759C74.9057 32.2909 75.7071 33.7121 76.1967 35.2507C76.7472 36.9805 76.75 38.9085 76.75 42.8741V57.3116C76.75 61.2772 76.7472 63.2052 76.1967 64.9351C75.7071 66.4736 74.9057 67.8948 73.8424 69.1098C72.647 70.4759 70.9985 71.4759 67.6051 73.5278L55.3051 80.965C51.6794 83.1572 49.9149 84.2204 48.0359 84.6357C46.3655 85.005 44.6345 85.005 42.9641 84.6357C41.0851 84.2204 39.3206 83.1572 35.6949 80.9649L23.3949 73.5278C20.0015 71.4759 18.353 70.4759 17.1576 69.1098C16.0943 67.8948 15.2929 66.4736 14.8033 64.9351C14.2528 63.2052 14.25 61.2772 14.25 57.3116V42.8741C14.25 38.9085 14.2528 36.9805 14.8033 35.2507C15.2929 33.7121 16.0943 32.2909 17.1576 31.0759C18.353 29.7098 20.0015 28.7098 23.3949 26.6579L35.6949 19.2208Z" stroke="url(#paint2_linear_1_480)" stroke-width="0.5" shape-rendering="crispEdges"/>
<path d="M35.6949 19.2208C39.3206 17.0285 41.0851 15.9653 42.9641 15.55C44.6345 15.1808 46.3655 15.1808 48.0359 15.55C49.9149 15.9653 51.6794 17.0285 55.3051 19.2208L67.6051 26.6579C70.9985 28.7098 72.647 29.7098 73.8424 31.0759C74.9057 32.2909 75.7071 33.7121 76.1967 35.2507C76.7472 36.9805 76.75 38.9085 76.75 42.8741V57.3116C76.75 61.2772 76.7472 63.2052 76.1967 64.9351C75.7071 66.4736 74.9057 67.8948 73.8424 69.1098C72.647 70.4759 70.9985 71.4759 67.6051 73.5278L55.3051 80.965C51.6794 83.1572 49.9149 84.2204 48.0359 84.6357C46.3655 85.005 44.6345 85.005 42.9641 84.6357C41.0851 84.2204 39.3206 83.1572 35.6949 80.9649L23.3949 73.5278C20.0015 71.4759 18.353 70.4759 17.1576 69.1098C16.0943 67.8948 15.2929 66.4736 14.8033 64.9351C14.2528 63.2052 14.25 61.2772 14.25 57.3116V42.8741C14.25 38.9085 14.2528 36.9805 14.8033 35.2507C15.2929 33.7121 16.0943 32.2909 17.1576 31.0759C18.353 29.7098 20.0015 28.7098 23.3949 26.6579L35.6949 19.2208Z" stroke="url(#paint3_linear_1_480)" stroke-width="0.5" shape-rendering="crispEdges"/>
</g>
<g opacity="0.5">
<path d="M33.5028 66.65C33.6495 66.91 33.8095 67.1367 33.9828 67.33C34.1628 67.5233 34.3595 67.6733 34.5728 67.78C34.7861 67.8867 35.0161 67.94 35.2628 67.94C35.5495 67.94 35.7828 67.8667 35.9628 67.72C36.1428 67.5733 36.2328 67.3733 36.2328 67.12C36.2328 66.9 36.1761 66.7233 36.0628 66.59C35.9561 66.4567 35.7928 66.34 35.5728 66.24C35.3595 66.1333 35.0961 66.02 34.7828 65.9C34.6161 65.84 34.4228 65.76 34.2028 65.66C33.9895 65.5533 33.7861 65.42 33.5928 65.26C33.3995 65.0933 33.2395 64.8933 33.1128 64.66C32.9861 64.42 32.9228 64.1333 32.9228 63.8C32.9228 63.4 33.0228 63.0567 33.2228 62.77C33.4295 62.4767 33.7061 62.2533 34.0528 62.1C34.4061 61.94 34.7995 61.86 35.2328 61.86C35.6795 61.86 36.0628 61.9367 36.3828 62.09C36.7095 62.2367 36.9795 62.4267 37.1928 62.66C37.4128 62.8867 37.5828 63.1233 37.7028 63.37L36.5828 63.99C36.4895 63.8233 36.3761 63.6733 36.2428 63.54C36.1161 63.4 35.9695 63.29 35.8028 63.21C35.6361 63.1233 35.4461 63.08 35.2328 63.08C34.9528 63.08 34.7428 63.1467 34.6028 63.28C34.4628 63.4067 34.3928 63.5567 34.3928 63.73C34.3928 63.9033 34.4495 64.0567 34.5628 64.19C34.6761 64.3167 34.8495 64.44 35.0828 64.56C35.3161 64.6733 35.6095 64.79 35.9628 64.91C36.1895 64.99 36.4061 65.09 36.6128 65.21C36.8261 65.33 37.0161 65.4767 37.1828 65.65C37.3561 65.8167 37.4895 66.0167 37.5828 66.25C37.6828 66.4767 37.7328 66.74 37.7328 67.04C37.7328 67.38 37.6661 67.6833 37.5328 67.95C37.3995 68.2167 37.2161 68.4433 36.9828 68.63C36.7495 68.81 36.4861 68.9467 36.1928 69.04C35.9061 69.14 35.6028 69.19 35.2828 69.19C34.8561 69.19 34.4561 69.11 34.0828 68.95C33.7161 68.7833 33.3961 68.56 33.1228 68.28C32.8495 68 32.6361 67.6967 32.4828 67.37L33.5028 66.65ZM39.3687 65.92V64.63H44.5087V65.92H39.3687ZM43.5987 62H45.0287V69H43.5987V62ZM38.8987 62H40.3287V69H38.8987V62ZM47.6454 65.5C47.6454 65.9467 47.7387 66.3433 47.9254 66.69C48.1121 67.0367 48.3687 67.31 48.6954 67.51C49.0221 67.71 49.4021 67.81 49.8354 67.81C50.2687 67.81 50.6487 67.71 50.9754 67.51C51.3021 67.31 51.5554 67.0367 51.7354 66.69C51.9221 66.3433 52.0154 65.9467 52.0154 65.5C52.0154 65.0533 51.9254 64.6567 51.7454 64.31C51.5654 63.9633 51.3121 63.69 50.9854 63.49C50.6587 63.29 50.2754 63.19 49.8354 63.19C49.4021 63.19 49.0221 63.29 48.6954 63.49C48.3687 63.69 48.1121 63.9633 47.9254 64.31C47.7387 64.6567 47.6454 65.0533 47.6454 65.5ZM46.1354 65.5C46.1354 64.9667 46.2287 64.48 46.4154 64.04C46.6021 63.5933 46.8621 63.2067 47.1954 62.88C47.5287 62.5533 47.9187 62.3033 48.3654 62.13C48.8187 61.95 49.3087 61.86 49.8354 61.86C50.3687 61.86 50.8587 61.95 51.3054 62.13C51.7521 62.3033 52.1421 62.5533 52.4754 62.88C52.8154 63.2067 53.0754 63.5933 53.2554 64.04C53.4421 64.48 53.5354 64.9667 53.5354 65.5C53.5354 66.0267 53.4421 66.5167 53.2554 66.97C53.0754 67.4167 52.8187 67.8067 52.4854 68.14C52.1587 68.4733 51.7687 68.7333 51.3154 68.92C50.8687 69.1 50.3754 69.19 49.8354 69.19C49.2954 69.19 48.7987 69.1 48.3454 68.92C47.8987 68.7333 47.5087 68.4733 47.1754 68.14C46.8421 67.8067 46.5854 67.4167 46.4054 66.97C46.2254 66.5167 46.1354 66.0267 46.1354 65.5ZM54.6409 62H56.0709V69H54.6409V62ZM55.5109 63.21V62H56.9009C57.4542 62 57.9242 62.09 58.3109 62.27C58.7042 62.45 59.0042 62.7067 59.2109 63.04C59.4175 63.3733 59.5209 63.77 59.5209 64.23C59.5209 64.6833 59.4175 65.08 59.2109 65.42C59.0042 65.7533 58.7042 66.01 58.3109 66.19C57.9242 66.37 57.4542 66.46 56.9009 66.46H55.5109V65.25H56.9009C57.2809 65.25 57.5809 65.1633 57.8009 64.99C58.0209 64.8167 58.1309 64.5633 58.1309 64.23C58.1309 63.89 58.0209 63.6367 57.8009 63.47C57.5809 63.2967 57.2809 63.21 56.9009 63.21H55.5109Z" fill="white"/>
<path opacity="0.4" d="M56.9317 42.2883V49.2767C56.9317 52.4967 54.3183 55.11 51.0983 55.11H40.9017C37.6817 55.11 35.0683 52.4967 35.0683 49.2767V42.37C35.955 43.3267 37.215 43.875 38.58 43.875C40.05 43.875 41.4617 43.14 42.3483 41.9617C43.1417 43.14 44.495 43.875 46 43.875C47.4933 43.875 48.8233 43.175 49.6283 42.0083C50.5267 43.1633 51.915 43.875 53.3617 43.875C54.7733 43.875 56.0567 43.3033 56.9317 42.2883Z" fill="white"/>
<path d="M49.4883 30.4583H42.4883L41.625 39.045C41.555 39.8383 41.6717 40.585 41.9633 41.2617C42.64 42.8483 44.2267 43.875 46 43.875C47.7967 43.875 49.3483 42.8717 50.0483 41.2733C50.2583 40.7717 50.3867 40.1883 50.3983 39.5933V39.3717L49.4883 30.4583Z" fill="white"/>
<path opacity="0.6" d="M58.0867 38.6483L57.7483 35.4167C57.2583 31.8933 55.66 30.4583 52.2417 30.4583H47.7617L48.625 39.2083C48.6367 39.325 48.6483 39.4533 48.6483 39.675C48.7183 40.2817 48.905 40.8417 49.185 41.3433C50.025 42.8833 51.6583 43.875 53.3617 43.875C54.9133 43.875 56.3133 43.1867 57.1883 41.9733C57.8883 41.04 58.2033 39.8617 58.0867 38.6483Z" fill="white"/>
<path opacity="0.6" d="M39.6883 30.4583C36.2583 30.4583 34.6717 31.8933 34.17 35.4517L33.855 38.66C33.7383 39.9083 34.0767 41.1217 34.8117 42.0667C35.6983 43.2217 37.0633 43.875 38.58 43.875C40.2833 43.875 41.9167 42.8833 42.745 41.3667C43.0483 40.8417 43.2467 40.235 43.305 39.605L44.215 30.47H39.6883V30.4583Z" fill="white"/>
<path d="M45.2417 48.4367C43.76 48.5883 42.64 49.8483 42.64 51.3417V55.11H49.3483V51.75C49.36 49.3117 47.925 48.1567 45.2417 48.4367Z" fill="white"/>
</g>
<defs>
<filter id="filter0_bd_1_480" x="-44" y="-43.3995" width="179" height="186.985" filterUnits="userSpaceOnUse" color-interpolation-filters="sRGB">
<feFlood flood-opacity="0" result="BackgroundImageFix"/>
<feGaussianBlur in="BackgroundImageFix" stdDeviation="27"/>
<feComposite in2="SourceAlpha" operator="in" result="effect1_backgroundBlur_1_480"/>
<feColorMatrix in="SourceAlpha" type="matrix" values="0 0 0 0 0 0 0 0 0 0 0 0 0 0 0 0 0 0 127 0" result="hardAlpha"/>
<feOffset/>
<feGaussianBlur stdDeviation="5"/>
<feComposite in2="hardAlpha" operator="out"/>
<feColorMatrix type="matrix" values="0 0 0 0 0 0 0 0 0 0 0 0 0 0 0 0 0 0 0.8 0"/>
<feBlend mode="normal" in2="effect1_backgroundBlur_1_480" result="effect2_dropShadow_1_480"/>
<feBlend mode="normal" in="SourceGraphic" in2="effect2_dropShadow_1_480" result="shape"/>
</filter>
<filter id="filter1_bd_1_480" x="-40" y="-38.9769" width="171" height="178.14" filterUnits="userSpaceOnUse" color-interpolation-filters="sRGB">
<feFlood flood-opacity="0" result="BackgroundImageFix"/>
<feGaussianBlur in="BackgroundImageFix" stdDeviation="27"/>
<feComposite in2="SourceAlpha" operator="in" result="effect1_backgroundBlur_1_480"/>
<feColorMatrix in="SourceAlpha" type="matrix" values="0 0 0 0 0 0 0 0 0 0 0 0 0 0 0 0 0 0 127 0" result="hardAlpha"/>
<feOffset/>
<feGaussianBlur stdDeviation="5"/>
<feComposite in2="hardAlpha" operator="out"/>
<feColorMatrix type="matrix" values="0 0 0 0 0 0 0 0 0 0 0 0 0 0 0 0 0 0 0.8 0"/>
<feBlend mode="normal" in2="effect1_backgroundBlur_1_480" result="effect2_dropShadow_1_480"/>
<feBlend mode="normal" in="SourceGraphic" in2="effect2_dropShadow_1_480" result="shape"/>
</filter>
<linearGradient id="paint0_linear_1_480" x1="14.9581" y1="0.899999" x2="59.0154" y2="32.2423" gradientUnits="userSpaceOnUse">
<stop stop-color="#696969"/>
<stop offset="1" stop-color="#696969" stop-opacity="0"/>
</linearGradient>
<linearGradient id="paint1_linear_1_480" x1="80.1075" y1="92.1857" x2="42.6323" y2="75.2916" gradientUnits="userSpaceOnUse">
<stop stop-color="#696969"/>
<stop offset="1" stop-color="#696969" stop-opacity="0"/>
</linearGradient>
<linearGradient id="paint2_linear_1_480" x1="15.2573" y1="2.40843" x2="58.2542" y2="33.6548" gradientUnits="userSpaceOnUse">
<stop stop-color="#696969"/>
<stop offset="1" stop-color="#696969" stop-opacity="0"/>
</linearGradient>
<linearGradient id="paint3_linear_1_480" x1="79.7685" y1="90.895" x2="42.9312" y2="73.931" gradientUnits="userSpaceOnUse">
<stop stop-color="#696969"/>
<stop offset="1" stop-color="#696969" stop-opacity="0"/>
</linearGradient>
</defs>
</svg>
