<svg viewBox="0 0 390 107" fill="none" xmlns="http://www.w3.org/2000/svg" style="width: 100vw filter: drop-shadow(2px 2px 5px rgba(0, 0, 0, 0.5));">
<g filter="url(#filter0_b_80_856)">
<path d="M-1 0H391V82L297.459 79.151C295.604 79.0945 294.676 79.0663 293.76 78.9532C292.945 78.8528 292.138 78.7023 291.342 78.5026C290.446 78.2779 289.571 77.9701 287.82 77.3546L238.988 60.1872C232.705 57.9782 228.5 52.0432 228.5 45.3827C228.5 39.6046 225.325 34.2939 220.235 31.559L210.564 26.3628C204.882 23.3096 202.041 21.783 199.046 21.2059C196.395 20.6951 193.668 20.7263 191.029 21.2976C188.048 21.9431 185.242 23.5343 179.631 26.7166L169.153 32.6593C164.423 35.3421 161.5 40.3605 161.5 45.7987C161.5 52.21 157.453 57.9228 151.404 60.0492L102.18 77.3546C100.429 77.9701 99.5539 78.2779 98.6582 78.5026C97.8623 78.7023 97.0548 78.8528 96.2404 78.9532C95.3238 79.0663 94.3963 79.0945 92.5412 79.151L-1 82V0Z" fill="white" fill-opacity="0.1"/>
<path d="M-0.75 0.25H390.75V81.7423L297.466 78.9011C295.607 78.8445 294.693 78.8164 293.79 78.7051C292.986 78.6059 292.189 78.4573 291.403 78.2601C290.521 78.0389 289.658 77.7357 287.903 77.1187L239.071 59.9514C232.888 57.7775 228.75 51.9371 228.75 45.3827C228.75 39.5125 225.524 34.1172 220.353 31.3388L210.682 26.1426L210.633 26.1162C204.998 23.0881 202.125 21.5448 199.093 20.9604C196.409 20.4432 193.648 20.4748 190.976 21.0533C187.958 21.7068 185.121 23.3154 179.556 26.4716L179.508 26.4992L169.03 32.4418C164.221 35.1691 161.25 40.2705 161.25 45.7987C161.25 52.1039 157.27 57.7222 151.321 59.8134L102.097 77.1187C100.342 77.7357 99.4794 78.0389 98.5973 78.2601C97.8114 78.4573 97.014 78.6059 96.2098 78.7051C95.3073 78.8164 94.3931 78.8445 92.5336 78.9011L-0.75 81.7423V0.25Z" stroke="url(#paint0_linear_80_856)" stroke-width="0.5"/>
<path d="M-0.75 0.25H390.75V81.7423L297.466 78.9011C295.607 78.8445 294.693 78.8164 293.79 78.7051C292.986 78.6059 292.189 78.4573 291.403 78.2601C290.521 78.0389 289.658 77.7357 287.903 77.1187L239.071 59.9514C232.888 57.7775 228.75 51.9371 228.75 45.3827C228.75 39.5125 225.524 34.1172 220.353 31.3388L210.682 26.1426L210.633 26.1162C204.998 23.0881 202.125 21.5448 199.093 20.9604C196.409 20.4432 193.648 20.4748 190.976 21.0533C187.958 21.7068 185.121 23.3154 179.556 26.4716L179.508 26.4992L169.03 32.4418C164.221 35.1691 161.25 40.2705 161.25 45.7987C161.25 52.1039 157.27 57.7222 151.321 59.8134L102.097 77.1187C100.342 77.7357 99.4794 78.0389 98.5973 78.2601C97.8114 78.4573 97.014 78.6059 96.2098 78.7051C95.3073 78.8164 94.3931 78.8445 92.5336 78.9011L-0.75 81.7423V0.25Z" stroke="url(#paint1_linear_80_856)" stroke-width="0.5"/>
</g>
<g filter="url(#filter1_b_80_856)">
<path d="M-1 0H391V74H297.498C296.001 74 295.253 74 294.509 73.9444C293.847 73.895 293.189 73.8127 292.536 73.6979C291.801 73.5688 291.076 73.3846 289.625 73.0163L239.427 60.2737C233 58.6423 228.5 52.8573 228.5 46.2266C228.5 41.1246 225.817 36.3983 221.436 33.783L211.404 27.7931C205.438 24.2316 202.455 22.4508 199.273 21.7549C196.457 21.1392 193.543 21.1392 190.727 21.7549C187.545 22.4508 184.562 24.2316 178.596 27.7931L168.587 33.7688C164.192 36.3929 161.5 41.135 161.5 46.2543C161.5 52.8767 157.025 58.6627 150.616 60.3282L101.958 72.9715C100.476 73.3566 99.7353 73.5491 98.9843 73.6842C98.317 73.8042 97.644 73.8902 96.9679 73.9419C96.207 74 95.4415 74 93.9104 74H-1V0Z" fill="white" fill-opacity="0.5"/>
<path d="M-0.75 0.25H390.75V73.75H297.498C295.998 73.75 295.26 73.7498 294.527 73.6951C293.874 73.6463 293.224 73.5651 292.579 73.4517C291.856 73.3245 291.141 73.1432 289.686 72.774L239.488 60.0314C233.172 58.4281 228.75 52.7429 228.75 46.2266C228.75 41.0365 226.021 36.2288 221.565 33.5683L211.532 27.5785L211.479 27.5473C205.563 24.0153 202.548 22.2153 199.326 21.5106C196.476 20.8873 193.524 20.8873 190.674 21.5106C187.452 22.2153 184.437 24.0153 178.52 27.5473L178.468 27.5785L168.459 33.5541C163.988 36.2234 161.25 41.047 161.25 46.2543C161.25 52.7629 156.852 58.4494 150.553 60.0862L101.895 72.7295C100.41 73.1155 99.6796 73.3051 98.9401 73.4381C98.2811 73.5566 97.6165 73.6416 96.9488 73.6926C96.1997 73.7498 95.4451 73.75 93.9104 73.75H-0.75V0.25Z" stroke="url(#paint2_linear_80_856)" stroke-width="0.5"/>
<path d="M-0.75 0.25H390.75V73.75H297.498C295.998 73.75 295.26 73.7498 294.527 73.6951C293.874 73.6463 293.224 73.5651 292.579 73.4517C291.856 73.3245 291.141 73.1432 289.686 72.774L239.488 60.0314C233.172 58.4281 228.75 52.7429 228.75 46.2266C228.75 41.0365 226.021 36.2288 221.565 33.5683L211.532 27.5785L211.479 27.5473C205.563 24.0153 202.548 22.2153 199.326 21.5106C196.476 20.8873 193.524 20.8873 190.674 21.5106C187.452 22.2153 184.437 24.0153 178.52 27.5473L178.468 27.5785L168.459 33.5541C163.988 36.2234 161.25 41.047 161.25 46.2543C161.25 52.7629 156.852 58.4494 150.553 60.0862L101.895 72.7295C100.41 73.1155 99.6796 73.3051 98.9401 73.4381C98.2811 73.5566 97.6165 73.6416 96.9488 73.6926C96.1997 73.7498 95.4451 73.75 93.9104 73.75H-0.75V0.25Z" stroke="url(#paint3_linear_80_856)" stroke-width="0.5"/>
</g>
<mask id="mask0_80_856" style="mask-type:alpha" maskUnits="userSpaceOnUse" x="-1" y="0" width="392" height="74">
<path d="M-0.75 0.25H390.75V73.75H297.498C295.998 73.75 295.26 73.7498 294.527 73.6951C293.874 73.6463 293.224 73.5651 292.579 73.4517C291.856 73.3245 291.141 73.1432 289.686 72.774L239.488 60.0314C233.172 58.4281 228.75 52.7429 228.75 46.2266C228.75 41.0365 226.021 36.2288 221.565 33.5683L211.532 27.5785L211.48 27.5474C205.563 24.0153 202.548 22.2153 199.326 21.5106C196.476 20.8873 193.524 20.8873 190.674 21.5106C187.452 22.2153 184.437 24.0153 178.52 27.5474L178.468 27.5785L168.459 33.5541C163.988 36.2234 161.25 41.047 161.25 46.2543C161.25 52.7629 156.852 58.4494 150.553 60.0862L101.895 72.7295C100.41 73.1155 99.6796 73.3051 98.9401 73.4381C98.2811 73.5566 97.6165 73.6416 96.9488 73.6926C96.1997 73.7498 95.4451 73.75 93.9104 73.75H-0.75V0.25Z" fill="white" fill-opacity="0.5"/>
<path d="M-0.75 0.25H390.75V73.75H297.498C295.998 73.75 295.26 73.7498 294.527 73.6951C293.874 73.6463 293.224 73.5651 292.579 73.4517C291.856 73.3245 291.141 73.1432 289.686 72.774L239.488 60.0314C233.172 58.4281 228.75 52.7429 228.75 46.2266C228.75 41.0365 226.021 36.2288 221.565 33.5683L211.532 27.5785L211.48 27.5474C205.563 24.0153 202.548 22.2153 199.326 21.5106C196.476 20.8873 193.524 20.8873 190.674 21.5106C187.452 22.2153 184.437 24.0153 178.52 27.5474L178.468 27.5785L168.459 33.5541C163.988 36.2234 161.25 41.047 161.25 46.2543C161.25 52.7629 156.852 58.4494 150.553 60.0862L101.895 72.7295C100.41 73.1155 99.6796 73.3051 98.9401 73.4381C98.2811 73.5566 97.6165 73.6416 96.9488 73.6926C96.1997 73.7498 95.4451 73.75 93.9104 73.75H-0.75V0.25Z" stroke="url(#paint4_linear_80_856)" stroke-width="0.5"/>
<path d="M-0.75 0.25H390.75V73.75H297.498C295.998 73.75 295.26 73.7498 294.527 73.6951C293.874 73.6463 293.224 73.5651 292.579 73.4517C291.856 73.3245 291.141 73.1432 289.686 72.774L239.488 60.0314C233.172 58.4281 228.75 52.7429 228.75 46.2266C228.75 41.0365 226.021 36.2288 221.565 33.5683L211.532 27.5785L211.48 27.5474C205.563 24.0153 202.548 22.2153 199.326 21.5106C196.476 20.8873 193.524 20.8873 190.674 21.5106C187.452 22.2153 184.437 24.0153 178.52 27.5474L178.468 27.5785L168.459 33.5541C163.988 36.2234 161.25 41.047 161.25 46.2543C161.25 52.7629 156.852 58.4494 150.553 60.0862L101.895 72.7295C100.41 73.1155 99.6796 73.3051 98.9401 73.4381C98.2811 73.5566 97.6165 73.6416 96.9488 73.6926C96.1997 73.7498 95.4451 73.75 93.9104 73.75H-0.75V0.25Z" stroke="url(#paint5_linear_80_856)" stroke-width="0.5"/>
</mask>
<g mask="url(#mask0_80_856)">
<g filter="url(#filter2_f_80_856)">
<circle cx="142" cy="37" r="21" fill="#F2211B"/>
</g>
<g filter="url(#filter3_f_80_856)">
<circle cx="243" cy="37" r="21" fill="#F2AF00"/>
</g>
</g>
<g filter="url(#filter0_b_80_856)">
    <path d="M-1 0H391V82L297.459 79.151C295.604 79.0945 294.676 79.0663 293.76 78.9532C292.945 78.8528 292.138 78.7023 291.342 78.5026C290.446 78.2779 289.571 77.9701 287.82 77.3546L238.988 60.1872C232.705 57.9782 228.5 52.0432 228.5 45.3827C228.5 39.6046 225.325 34.2939 220.235 31.559L210.564 26.3628C204.882 23.3096 202.041 21.783 199.046 21.2059C196.395 20.6951 193.668 20.7263 191.029 21.2976C188.048 21.9431 185.242 23.5343 179.631 26.7166L169.153 32.6593C164.423 35.3421 161.5 40.3605 161.5 45.7987C161.5 52.21 157.453 57.9228 151.404 60.0492L102.18 77.3546C100.429 77.9701 99.5539 78.2779 98.6582 78.5026C97.8623 78.7023 97.0548 78.8528 96.2404 78.9532C95.3238 79.0663 94.3963 79.0945 92.5412 79.151L-1 82V0Z" fill="white" fill-opacity="0.1" filter="url(#bottom-shadow)" />
    <!-- Other paths here... -->
  </g>
<defs>
<filter id="bottom-shadow" x="-20%" y="0" width="140%" height="200%">
      <feGaussianBlur in="SourceAlpha" stdDeviation="4" />
      <feOffset dy="4" result="offsetblur" />
      <feFlood flood-color="rgba(0, 0, 0, 0.5)" />
      <feComposite in2="offsetblur" operator="in" />
      <feMerge>
        <feMergeNode />
        <feMergeNode in="SourceGraphic" />
      </feMerge>
    </filter>
<filter id="filter0_b_80_856" x="-55" y="-54" width="500" height="190" filterUnits="userSpaceOnUse" color-interpolation-filters="sRGB">
<feFlood flood-opacity="0" result="BackgroundImageFix"/>
<feGaussianBlur in="BackgroundImageFix" stdDeviation="27"/>
<feComposite in2="SourceAlpha" operator="in" result="effect1_backgroundBlur_80_856"/>
<feBlend mode="normal" in="SourceGraphic" in2="effect1_backgroundBlur_80_856" result="shape"/>
</filter>
<filter id="filter1_b_80_856" x="-55" y="-54" width="500" height="182" filterUnits="userSpaceOnUse" color-interpolation-filters="sRGB">
<feFlood flood-opacity="0" result="BackgroundImageFix"/>
<feGaussianBlur in="BackgroundImageFix" stdDeviation="27"/>
<feComposite in2="SourceAlpha" operator="in" result="effect1_backgroundBlur_80_856"/>
<feBlend mode="normal" in="SourceGraphic" in2="effect1_backgroundBlur_80_856" result="shape"/>
</filter>
<filter id="filter2_f_80_856" x="77" y="-28" width="130" height="130" filterUnits="userSpaceOnUse" color-interpolation-filters="sRGB">
<feFlood flood-opacity="0" result="BackgroundImageFix"/>
<feBlend mode="normal" in="SourceGraphic" in2="BackgroundImageFix" result="shape"/>
<feGaussianBlur stdDeviation="22" result="effect1_foregroundBlur_80_856"/>
</filter>
<filter id="filter3_f_80_856" x="178" y="-28" width="130" height="130" filterUnits="userSpaceOnUse" color-interpolation-filters="sRGB">
<feFlood flood-opacity="0" result="BackgroundImageFix"/>
<feBlend mode="normal" in="SourceGraphic" in2="BackgroundImageFix" result="shape"/>
<feGaussianBlur stdDeviation="22" result="effect1_foregroundBlur_80_856"/>
</filter>
<linearGradient id="paint0_linear_80_856" x1="104.5" y1="40.5" x2="52.5017" y2="81.7543" gradientUnits="userSpaceOnUse">
<stop stop-color="white" stop-opacity="0"/>
<stop offset="1" stop-color="white"/>
</linearGradient>
<linearGradient id="paint1_linear_80_856" x1="328" y1="89" x2="301.442" y2="50.6933" gradientUnits="userSpaceOnUse">
<stop stop-color="white"/>
<stop offset="1" stop-color="white" stop-opacity="0"/>
</linearGradient>
<linearGradient id="paint2_linear_80_856" x1="69.5" y1="52.5" x2="54.0826" y2="78.3035" gradientUnits="userSpaceOnUse">
<stop stop-color="white" stop-opacity="0"/>
<stop offset="1" stop-color="white"/>
</linearGradient>
<linearGradient id="paint3_linear_80_856" x1="328" y1="84" x2="303.473" y2="46.5166" gradientUnits="userSpaceOnUse">
<stop stop-color="white"/>
<stop offset="1" stop-color="white" stop-opacity="0"/>
</linearGradient>
<linearGradient id="paint4_linear_80_856" x1="69.5" y1="52.5" x2="54.0826" y2="78.3035" gradientUnits="userSpaceOnUse">
<stop stop-color="white" stop-opacity="0"/>
<stop offset="1" stop-color="white"/>
</linearGradient>
<linearGradient id="paint5_linear_80_856" x1="328" y1="84" x2="303.473" y2="46.5166" gradientUnits="userSpaceOnUse">
<stop stop-color="white"/>
<stop offset="1" stop-color="white" stop-opacity="0"/>
</linearGradient>
</defs>
</svg>
