<svg width="133" height="69" viewBox="0 0 133 69" fill="none" xmlns="http://www.w3.org/2000/svg">
<g filter="url(#filter0_bd_1_547)">
<path d="M121.603 23.5888C122.423 20.3067 122.834 18.6656 122.443 17.3542C122.101 16.2042 121.357 15.2156 120.346 14.5689C119.194 13.8314 117.503 13.772 114.122 13.6534L18.2805 10.2905C15.3921 10.1892 13.9478 10.1385 12.8401 10.6691C11.8662 11.1356 11.0695 11.9048 10.5691 12.8618C10 13.9503 10 15.3954 10 18.2856V50.6061C10 53.5303 10 54.9924 10.5781 56.0878C11.0864 57.0506 11.895 57.8213 12.8811 58.2827C14.003 58.8075 15.4634 58.7373 18.3842 58.5969L108.064 54.2854C110.194 54.183 111.259 54.1318 112.141 53.7261C112.919 53.368 113.592 52.816 114.095 52.123C114.665 51.3381 114.924 50.3037 115.441 48.2349L121.603 23.5888Z" fill="black" fill-opacity="0.7" shape-rendering="crispEdges"/>
<path d="M121.36 23.5281C121.772 21.8827 122.076 20.6644 122.23 19.6933C122.384 18.7242 122.383 18.0292 122.204 17.4255C121.879 16.333 121.172 15.3939 120.211 14.7794C119.681 14.44 119.013 14.2471 118.039 14.1272C117.063 14.007 115.808 13.9627 114.113 13.9033L18.2718 10.5404C16.8233 10.4896 15.7523 10.4522 14.9044 10.4926C14.0594 10.5328 13.4592 10.6498 12.9481 10.8946C12.0229 11.3377 11.266 12.0685 10.7906 12.9776C10.5281 13.4798 10.3901 14.0756 10.3203 14.9187C10.2502 15.7646 10.25 16.8363 10.25 18.2856V50.6061C10.25 52.0725 10.2502 53.1568 10.3214 54.012C10.3924 54.8644 10.5325 55.4658 10.7992 55.9711C11.282 56.8858 12.0502 57.6179 12.9871 58.0562C13.5046 58.2984 14.112 58.4095 14.9668 58.4394C15.8244 58.4695 16.9075 58.4176 18.3722 58.3472L108.052 54.0357C110.204 53.9322 111.21 53.8795 112.036 53.499C112.775 53.1588 113.415 52.6344 113.893 51.9761C114.428 51.2399 114.676 50.2644 115.199 48.1743L121.36 23.5281Z" stroke="url(#paint0_linear_1_547)" stroke-width="0.5" shape-rendering="crispEdges"/>
<path d="M121.36 23.5281C121.772 21.8827 122.076 20.6644 122.23 19.6933C122.384 18.7242 122.383 18.0292 122.204 17.4255C121.879 16.333 121.172 15.3939 120.211 14.7794C119.681 14.44 119.013 14.2471 118.039 14.1272C117.063 14.007 115.808 13.9627 114.113 13.9033L18.2718 10.5404C16.8233 10.4896 15.7523 10.4522 14.9044 10.4926C14.0594 10.5328 13.4592 10.6498 12.9481 10.8946C12.0229 11.3377 11.266 12.0685 10.7906 12.9776C10.5281 13.4798 10.3901 14.0756 10.3203 14.9187C10.2502 15.7646 10.25 16.8363 10.25 18.2856V50.6061C10.25 52.0725 10.2502 53.1568 10.3214 54.012C10.3924 54.8644 10.5325 55.4658 10.7992 55.9711C11.282 56.8858 12.0502 57.6179 12.9871 58.0562C13.5046 58.2984 14.112 58.4095 14.9668 58.4394C15.8244 58.4695 16.9075 58.4176 18.3722 58.3472L108.052 54.0357C110.204 53.9322 111.21 53.8795 112.036 53.499C112.775 53.1588 113.415 52.6344 113.893 51.9761C114.428 51.2399 114.676 50.2644 115.199 48.1743L121.36 23.5281Z" stroke="url(#paint1_linear_1_547)" stroke-width="0.5" shape-rendering="crispEdges"/>
</g>
<defs>
<filter id="filter0_bd_1_547" x="-44" y="-43.7745" width="220.592" height="156.473" filterUnits="userSpaceOnUse" color-interpolation-filters="sRGB">
<feFlood flood-opacity="0" result="BackgroundImageFix"/>
<feGaussianBlur in="BackgroundImageFix" stdDeviation="27"/>
<feComposite in2="SourceAlpha" operator="in" result="effect1_backgroundBlur_1_547"/>
<feColorMatrix in="SourceAlpha" type="matrix" values="0 0 0 0 0 0 0 0 0 0 0 0 0 0 0 0 0 0 127 0" result="hardAlpha"/>
<feOffset/>
<feGaussianBlur stdDeviation="5"/>
<feComposite in2="hardAlpha" operator="out"/>
<feColorMatrix type="matrix" values="0 0 0 0 0 0 0 0 0 0 0 0 0 0 0 0 0 0 0.8 0"/>
<feBlend mode="normal" in2="effect1_backgroundBlur_1_547" result="effect2_dropShadow_1_547"/>
<feBlend mode="normal" in="SourceGraphic" in2="effect2_dropShadow_1_547" result="shape"/>
</filter>
<linearGradient id="paint0_linear_1_547" x1="116.039" y1="10.6265" x2="100.324" y2="48.4069" gradientUnits="userSpaceOnUse">
<stop stop-color="#696969"/>
<stop offset="1" stop-color="#696969" stop-opacity="0"/>
</linearGradient>
<linearGradient id="paint1_linear_1_547" x1="11.433" y1="54" x2="33.2351" y2="20.7865" gradientUnits="userSpaceOnUse">
<stop stop-color="#696969"/>
<stop offset="1" stop-color="#696969" stop-opacity="0"/>
</linearGradient>
</defs>
</svg>
