<svg width="25" height="5" viewBox="0 0 25 5" fill="none" xmlns="http://www.w3.org/2000/svg">
<mask id="mask0_1_543" style="mask-type:alpha" maskUnits="userSpaceOnUse" x="0" y="0" width="25" height="5">
<rect width="25" height="5" rx="2.5" fill="url(#paint0_linear_1_543)"/>
</mask>
<g mask="url(#mask0_1_543)">
<g opacity="0.2">
<path d="M1.19269 -0.717331L1.58417 -0.222356L-3.11359 5.71734L-3.50507 5.22237L1.19269 -0.717331Z" fill="white"/>
<path d="M3.40725 -0.717329L3.79873 -0.222354L-0.899034 5.71734L-1.29051 5.22237L3.40725 -0.717329Z" fill="white"/>
<path d="M5.62179 -0.717329L6.01327 -0.222354L1.31551 5.71734L0.924031 5.22237L5.62179 -0.717329Z" fill="white"/>
<path d="M7.83634 -0.717329L8.22782 -0.222354L3.53006 5.71734L3.13858 5.22237L7.83634 -0.717329Z" fill="white"/>
<path d="M10.0509 -0.717329L10.4424 -0.222354L5.7446 5.71734L5.35312 5.22237L10.0509 -0.717329Z" fill="white"/>
<path d="M12.2654 -0.717329L12.6569 -0.222354L7.95915 5.71734L7.56767 5.22237L12.2654 -0.717329Z" fill="white"/>
<path d="M14.48 -0.717329L14.8715 -0.222354L10.1737 5.71734L9.78221 5.22237L14.48 -0.717329Z" fill="white"/>
<path d="M16.6945 -0.717329L17.086 -0.222354L12.3882 5.71734L11.9968 5.22237L16.6945 -0.717329Z" fill="white"/>
<path d="M18.9091 -0.717329L19.3005 -0.222354L14.6028 5.71734L14.2113 5.22237L18.9091 -0.717329Z" fill="white"/>
<path d="M21.1236 -0.717329L21.5151 -0.222354L16.8173 5.71734L16.4258 5.22237L21.1236 -0.717329Z" fill="white"/>
<path d="M23.3382 -0.717329L23.7296 -0.222354L19.0319 5.71734L18.6404 5.22237L23.3382 -0.717329Z" fill="white"/>
<path d="M25.5527 -0.717329L25.9442 -0.222354L21.2464 5.71734L20.8549 5.22237L25.5527 -0.717329Z" fill="white"/>
<path d="M27.7672 -0.717331L28.1587 -0.222356L23.461 5.71734L23.0695 5.22237L27.7672 -0.717331Z" fill="white"/>
<path d="M29.9818 -0.717329L30.3733 -0.222354L25.6755 5.71734L25.284 5.22237L29.9818 -0.717329Z" fill="white"/>
<path d="M32.1963 -0.717329L32.5878 -0.222354L27.8901 5.71734L27.4986 5.22237L32.1963 -0.717329Z" fill="white"/>
<path d="M34.4109 -0.717329L34.8024 -0.222354L30.1046 5.71734L29.7131 5.22237L34.4109 -0.717329Z" fill="white"/>
<path d="M36.6254 -0.717329L37.0169 -0.222354L32.3191 5.71734L31.9277 5.22237L36.6254 -0.717329Z" fill="white"/>
<path d="M38.84 -0.717329L39.2315 -0.222354L34.5337 5.71734L34.1422 5.22237L38.84 -0.717329Z" fill="white"/>
<path d="M41.0545 -0.717329L41.446 -0.222354L36.7482 5.71734L36.3568 5.22237L41.0545 -0.717329Z" fill="white"/>
<path d="M43.2691 -0.717329L43.6605 -0.222354L38.9628 5.71734L38.5713 5.22237L43.2691 -0.717329Z" fill="white"/>
<path d="M45.4836 -0.717329L45.8751 -0.222354L41.1773 5.71734L40.7859 5.22237L45.4836 -0.717329Z" fill="white"/>
<path d="M47.6982 -0.717329L48.0896 -0.222354L43.3919 5.71734L43.0004 5.22237L47.6982 -0.717329Z" fill="white"/>
<path d="M49.9127 -0.717329L50.3042 -0.222354L45.6064 5.71734L45.2149 5.22237L49.9127 -0.717329Z" fill="white"/>
<path d="M52.1272 -0.717329L52.5187 -0.222354L47.821 5.71734L47.4295 5.22237L52.1272 -0.717329Z" fill="white"/>
<path d="M54.3418 -0.717331L54.7333 -0.222356L50.0355 5.71734L49.644 5.22237L54.3418 -0.717331Z" fill="white"/>
<path d="M56.5563 -0.717329L56.9478 -0.222354L52.2501 5.71734L51.8586 5.22237L56.5563 -0.717329Z" fill="white"/>
<path d="M58.7709 -0.717329L59.1624 -0.222354L54.4646 5.71734L54.0731 5.22237L58.7709 -0.717329Z" fill="white"/>
<path d="M60.9854 -0.717329L61.3769 -0.222354L56.6791 5.71734L56.2877 5.22237L60.9854 -0.717329Z" fill="white"/>
<path d="M63.2 -0.717329L63.5915 -0.222354L58.8937 5.71734L58.5022 5.22237L63.2 -0.717329Z" fill="white"/>
<path d="M65.4145 -0.717329L65.806 -0.222354L61.1082 5.71734L60.7168 5.22237L65.4145 -0.717329Z" fill="white"/>
<path d="M67.6291 -0.717329L68.0205 -0.222354L63.3228 5.71734L62.9313 5.22237L67.6291 -0.717329Z" fill="white"/>
<path d="M69.8436 -0.717329L70.2351 -0.222354L65.5373 5.71734L65.1459 5.22237L69.8436 -0.717329Z" fill="white"/>
<path d="M72.0582 -0.717329L72.4496 -0.222354L67.7519 5.71734L67.3604 5.22237L72.0582 -0.717329Z" fill="white"/>
<path d="M74.2727 -0.717329L74.6642 -0.222354L69.9664 5.71734L69.5749 5.22237L74.2727 -0.717329Z" fill="white"/>
<path d="M76.4872 -0.717329L76.8787 -0.222354L72.181 5.71734L71.7895 5.22237L76.4872 -0.717329Z" fill="white"/>
<path d="M78.7018 -0.717329L79.0933 -0.222354L74.3955 5.71734L74.004 5.22237L78.7018 -0.717329Z" fill="white"/>
</g>
</g>
<defs>
<linearGradient id="paint0_linear_1_543" x1="0" y1="2.5" x2="25" y2="2.5" gradientUnits="userSpaceOnUse">
<stop offset="0.454682" stop-color="#D83232"/>
<stop offset="1" stop-color="#FFBE56"/>
</linearGradient>
</defs>
</svg>
