<svg width="178" height="108" viewBox="0 0 178 108" fill="none" xmlns="http://www.w3.org/2000/svg">
<g filter="url(#filter0_bd_1_561)">
<path d="M11.7287 51.6433C10.7614 46.8068 10.2777 44.3885 10.7793 42.2661C11.2213 40.3957 12.1928 38.6924 13.5777 37.3599C15.1493 35.8478 17.4769 35.0331 22.1323 33.4037L83.7144 11.85C85.6735 11.1643 86.6531 10.8214 87.6574 10.6854C88.5484 10.5646 89.4516 10.5646 90.3426 10.6854C91.3469 10.8214 92.3265 11.1643 94.2856 11.85L155.868 33.4037C160.523 35.0331 162.851 35.8478 164.422 37.3599C165.807 38.6924 166.779 40.3957 167.221 42.2661C167.722 44.3885 167.239 46.8068 166.271 51.6433L161.22 76.8996C160.421 80.8962 160.021 82.8945 159.018 84.4708C158.132 85.8631 156.915 87.0143 155.475 87.8219C153.846 88.7363 151.828 89.0245 147.794 89.6009L91.2627 97.6768C90.4159 97.7977 89.9925 97.8582 89.5673 97.8824C89.1894 97.9038 88.8106 97.9038 88.4327 97.8824C88.0075 97.8582 87.5841 97.7977 86.7373 97.6768L30.2065 89.6009C26.1717 89.0245 24.1543 88.7363 22.5247 87.8219C21.0855 87.0143 19.8685 85.8631 18.9823 84.4708C17.9789 82.8945 17.5792 80.8962 16.7799 76.8996L11.7287 51.6433Z" fill="black" fillOpacity="0.1" shapeRendering="crispEdges"/>
<path d="M11.9738 51.5942C11.4894 49.1722 11.129 47.3695 10.9513 45.9067C10.774 44.4471 10.7813 43.3447 11.0226 42.3236C11.4535 40.5 12.4008 38.8392 13.751 37.54C14.5071 36.8125 15.4523 36.2451 16.799 35.6547C18.1484 35.0631 19.8836 34.4556 22.2149 33.6396L83.797 12.0859C85.7655 11.3969 86.7175 11.065 87.6909 10.9331C88.5597 10.8154 89.4403 10.8154 90.3091 10.9331C91.2825 11.065 92.2345 11.3969 94.203 12.0859L155.785 33.6397C158.116 34.4556 159.852 35.0631 161.201 35.6547C162.548 36.2451 163.493 36.8125 164.249 37.54C165.599 38.8392 166.546 40.5 166.977 42.3236C167.219 43.3447 167.226 44.4471 167.049 45.9067C166.871 47.3695 166.511 49.1722 166.026 51.5942L160.975 76.8506C160.172 80.8677 159.779 82.8092 158.807 84.3366C157.943 85.694 156.756 86.8165 155.353 87.6039C153.774 88.4899 151.814 88.7741 147.758 89.3534L91.2274 97.4293C90.3766 97.5508 89.9653 97.6094 89.5531 97.6328C89.1847 97.6537 88.8153 97.6537 88.4469 97.6328C88.0347 97.6094 87.6234 97.5508 86.7726 97.4293L30.2418 89.3534C26.1863 88.7741 24.226 88.4899 22.6471 87.6039C21.2438 86.8165 20.0572 85.694 19.1932 84.3366C18.221 82.8092 17.8285 80.8677 17.0251 76.8506L11.9738 51.5942Z" stroke="url(#paint0_linear_1_561)" strokeWidth="0.5" shapeRendering="crispEdges"/>
<path d="M11.9738 51.5942C11.4894 49.1722 11.129 47.3695 10.9513 45.9067C10.774 44.4471 10.7813 43.3447 11.0226 42.3236C11.4535 40.5 12.4008 38.8392 13.751 37.54C14.5071 36.8125 15.4523 36.2451 16.799 35.6547C18.1484 35.0631 19.8836 34.4556 22.2149 33.6396L83.797 12.0859C85.7655 11.3969 86.7175 11.065 87.6909 10.9331C88.5597 10.8154 89.4403 10.8154 90.3091 10.9331C91.2825 11.065 92.2345 11.3969 94.203 12.0859L155.785 33.6397C158.116 34.4556 159.852 35.0631 161.201 35.6547C162.548 36.2451 163.493 36.8125 164.249 37.54C165.599 38.8392 166.546 40.5 166.977 42.3236C167.219 43.3447 167.226 44.4471 167.049 45.9067C166.871 47.3695 166.511 49.1722 166.026 51.5942L160.975 76.8506C160.172 80.8677 159.779 82.8092 158.807 84.3366C157.943 85.694 156.756 86.8165 155.353 87.6039C153.774 88.4899 151.814 88.7741 147.758 89.3534L91.2274 97.4293C90.3766 97.5508 89.9653 97.6094 89.5531 97.6328C89.1847 97.6537 88.8153 97.6537 88.4469 97.6328C88.0347 97.6094 87.6234 97.5508 86.7726 97.4293L30.2418 89.3534C26.1863 88.7741 24.226 88.4899 22.6471 87.6039C21.2438 86.8165 20.0572 85.694 19.1932 84.3366C18.221 82.8092 17.8285 80.8677 17.0251 76.8506L11.9738 51.5942Z" stroke="url(#paint1_linear_1_561)" strokeWidth="0.5" shapeRendering="crispEdges"/>
</g>
<g filter="url(#filter1_b_1_561)">
<path d="M16.5322 50.0443C15.9882 47.188 15.7162 45.7599 16.0173 44.5049C16.2828 43.3987 16.8572 42.3908 17.6737 41.5987C18.5999 40.7 19.9673 40.2062 22.7021 39.2187L51 29L85.8926 17.0631C87.0449 16.6688 87.6211 16.4717 88.2112 16.3935C88.7348 16.324 89.2652 16.324 89.7888 16.3935C90.3789 16.4717 90.9551 16.6688 92.1074 17.0631L127 29L155.298 39.2187C158.033 40.2062 159.4 40.7 160.326 41.5987C161.143 42.3908 161.717 43.3987 161.983 44.5049C162.284 45.7599 162.012 47.188 161.468 50.0443L156.292 77.2172C155.827 79.6566 155.595 80.8763 154.99 81.8371C154.455 82.6855 153.716 83.3864 152.841 83.8756C151.849 84.4296 150.619 84.5974 148.159 84.9329L90.2971 92.8231C89.8116 92.8893 89.5688 92.9224 89.3251 92.9357C89.1085 92.9474 88.8915 92.9474 88.6749 92.9357C88.4312 92.9224 88.1884 92.8893 87.7029 92.8231L29.8414 84.9329C27.3809 84.5974 26.1507 84.4296 25.1594 83.8756C24.284 83.3864 23.5452 82.6855 23.0105 81.8371C22.405 80.8763 22.1727 79.6566 21.708 77.2172L16.5322 50.0443Z" fill="black" fillOpacity="0.5"/>
<path d="M16.7778 49.9975C16.5051 48.5657 16.3033 47.5054 16.2063 46.646C16.1095 45.7898 16.1193 45.1513 16.2604 44.5632C16.5148 43.5032 17.0653 42.5373 17.8477 41.7781C18.2818 41.357 18.8262 41.0232 19.6122 40.6701C20.401 40.3156 21.4161 39.9489 22.787 39.4538L51.0809 29.2365L51.0849 29.2351L85.9735 17.2996C87.1351 16.9022 87.6842 16.7155 88.2441 16.6413C88.7458 16.5748 89.2542 16.5748 89.7559 16.6413C90.3158 16.7155 90.8649 16.9022 92.0265 17.2996L126.915 29.2351L126.919 29.2365L155.213 39.4538C156.584 39.9489 157.599 40.3156 158.388 40.6701C159.174 41.0232 159.718 41.357 160.152 41.7781C160.935 42.5373 161.485 43.5032 161.74 44.5632C161.881 45.1513 161.89 45.7898 161.794 46.646C161.697 47.5054 161.495 48.5657 161.222 49.9975L156.046 77.1704C155.578 79.6308 155.352 80.7928 154.778 81.7038C154.266 82.5169 153.558 83.1885 152.719 83.6574C151.779 84.1827 150.606 84.3468 148.125 84.6852L90.2633 92.5754C89.774 92.6421 89.5428 92.6735 89.3116 92.686C89.104 92.6973 88.896 92.6973 88.6884 92.686C88.4572 92.6735 88.226 92.6421 87.7367 92.5754L29.8752 84.6852C27.3936 84.3468 26.2213 84.1827 25.2813 83.6574C24.4424 83.1885 23.7344 82.5169 23.222 81.7038C22.6479 80.7928 22.4223 79.6308 21.9536 77.1704L16.7778 49.9975Z" stroke="url(#paint2_linear_1_561)" strokeWidth="0.5"/>
<path d="M16.7778 49.9975C16.5051 48.5657 16.3033 47.5054 16.2063 46.646C16.1095 45.7898 16.1193 45.1513 16.2604 44.5632C16.5148 43.5032 17.0653 42.5373 17.8477 41.7781C18.2818 41.357 18.8262 41.0232 19.6122 40.6701C20.401 40.3156 21.4161 39.9489 22.787 39.4538L51.0809 29.2365L51.0849 29.2351L85.9735 17.2996C87.1351 16.9022 87.6842 16.7155 88.2441 16.6413C88.7458 16.5748 89.2542 16.5748 89.7559 16.6413C90.3158 16.7155 90.8649 16.9022 92.0265 17.2996L126.915 29.2351L126.919 29.2365L155.213 39.4538C156.584 39.9489 157.599 40.3156 158.388 40.6701C159.174 41.0232 159.718 41.357 160.152 41.7781C160.935 42.5373 161.485 43.5032 161.74 44.5632C161.881 45.1513 161.89 45.7898 161.794 46.646C161.697 47.5054 161.495 48.5657 161.222 49.9975L156.046 77.1704C155.578 79.6308 155.352 80.7928 154.778 81.7038C154.266 82.5169 153.558 83.1885 152.719 83.6574C151.779 84.1827 150.606 84.3468 148.125 84.6852L90.2633 92.5754C89.774 92.6421 89.5428 92.6735 89.3116 92.686C89.104 92.6973 88.896 92.6973 88.6884 92.686C88.4572 92.6735 88.226 92.6421 87.7367 92.5754L29.8752 84.6852C27.3936 84.3468 26.2213 84.1827 25.2813 83.6574C24.4424 83.1885 23.7344 82.5169 23.222 81.7038C22.6479 80.7928 22.4223 79.6308 21.9536 77.1704L16.7778 49.9975Z" stroke="url(#paint3_linear_1_561)" strokeWidth="0.5"/>
</g>
<defs>
<filter id="filter0_bd_1_561" x="-43.4214" y="-43.4052" width="264.843" height="195.304" filterUnits="userSpaceOnUse" colorInterpolationFilters="sRGB">
<feFlood floodOpacity="0" result="BackgroundImageFix"/>
<feGaussianBlur in="BackgroundImageFix" stdDeviation="27"/>
<feComposite in2="SourceAlpha" operator="in" result="effect1_backgroundBlur_1_561"/>
<feColorMatrix in="SourceAlpha" type="matrix" values="0 0 0 0 0 0 0 0 0 0 0 0 0 0 0 0 0 0 127 0" result="hardAlpha"/>
<feOffset/>
<feGaussianBlur stdDeviation="5"/>
<feComposite in2="hardAlpha" operator="out"/>
<feColorMatrix type="matrix" values="0 0 0 0 0 0 0 0 0 0 0 0 0 0 0 0 0 0 0.8 0"/>
<feBlend mode="normal" in2="effect1_backgroundBlur_1_561" result="effect2_dropShadow_1_561"/>
<feBlend mode="normal" in="SourceGraphic" in2="effect2_dropShadow_1_561" result="shape"/>
</filter>
<filter id="filter1_b_1_561" x="-38.1075" y="-37.6586" width="254.215" height="184.603" filterUnits="userSpaceOnUse" colorInterpolationFilters="sRGB">
<feFlood floodOpacity="0" result="BackgroundImageFix"/>
<feGaussianBlur in="BackgroundImageFix" stdDeviation="27"/>
<feComposite in2="SourceAlpha" operator="in" result="effect1_backgroundBlur_1_561"/>
<feBlend mode="normal" in="SourceGraphic" in2="effect1_backgroundBlur_1_561" result="shape"/>
</filter>
<linearGradient id="paint0_linear_1_561" x1="51.8718" y1="70.5488" x2="21.1127" y2="81.6428" gradientUnits="userSpaceOnUse">
<stop stopColor="#696969" stopOpacity="0"/>
<stop offset="1" stopColor="#696969"/>
</linearGradient>
<linearGradient id="paint1_linear_1_561" x1="143.564" y1="114.317" x2="120.093" y2="98.9262" gradientUnits="userSpaceOnUse">
<stop stopColor="#696969"/>
<stop offset="1" stopColor="#696969" stopOpacity="0"/>
</linearGradient>
<linearGradient id="paint2_linear_1_561" x1="40.0872" y1="84.8243" x2="25.2064" y2="95.7076" gradientUnits="userSpaceOnUse">
<stop stopColor="#696969" stopOpacity="0"/>
<stop offset="1" stopColor="#696969"/>
</linearGradient>
<linearGradient id="paint3_linear_1_561" x1="140.836" y1="112.919" x2="118.785" y2="98.1927" gradientUnits="userSpaceOnUse">
<stop stopColor="#696969"/>
<stop offset="1" stopColor="#696969" stopOpacity="0"/>
</linearGradient>
</defs>
</svg>
