<svg width="79" height="86" viewBox="0 0 79 86" fill="none" xmlns="http://www.w3.org/2000/svg">
<g filter="url(#filter0_bd_1_571)">
<path d="M26.4388 15.7481C31.1905 12.9294 33.5663 11.52 36.0994 10.969C38.3403 10.4816 40.6597 10.4816 42.9005 10.969C45.4337 11.52 47.8095 12.9294 52.5612 15.7482L56.4612 18.0617C61.0322 20.7733 63.3177 22.1292 64.9785 24.0046C66.4481 25.6642 67.5568 27.611 68.2343 29.7217C69 32.1069 69 34.7643 69 40.0791V45.9209C69 51.2357 69 53.8931 68.2343 56.2783C67.5568 58.389 66.4481 60.3358 64.9785 61.9954C63.3177 63.8708 61.0322 65.2267 56.4612 67.9383L52.5612 70.2519C47.8095 73.0706 45.4337 74.48 42.9005 75.031C40.6597 75.5184 38.3403 75.5184 36.0994 75.031C33.5663 74.48 31.1905 73.0706 26.4388 70.2519L22.5388 67.9383C17.9678 65.2267 15.6823 63.8708 14.0215 61.9954C12.5519 60.3358 11.4432 58.389 10.7657 56.2783C10 53.8931 10 51.2357 10 45.9209V40.0791C10 34.7643 10 32.1069 10.7657 29.7217C11.4432 27.611 12.5519 25.6642 14.0215 24.0046C15.6823 22.1292 17.9678 20.7733 22.5388 18.0617L26.4388 15.7481Z" fill="black" fill-opacity="0.1" shape-rendering="crispEdges"/>
<path d="M26.5664 15.9632C31.333 13.1355 33.6685 11.7536 36.1526 11.2133C38.3584 10.7335 40.6416 10.7335 42.8474 11.2133C45.3315 11.7536 47.667 13.1355 52.4336 15.9632L56.3336 18.2767C60.919 20.9968 63.1627 22.3312 64.7913 24.1703C66.238 25.804 67.3294 27.7204 67.9963 29.7981C68.7472 32.1372 68.75 34.7477 68.75 40.0791V45.9209C68.75 51.2523 68.7472 53.8628 67.9963 56.2019C67.3294 58.2796 66.238 60.196 64.7913 61.8297C63.1627 63.6688 60.919 65.0032 56.3336 67.7233L52.4336 70.0368C47.667 72.8645 45.3315 74.2464 42.8474 74.7867C40.6416 75.2665 38.3584 75.2665 36.1526 74.7867C33.6685 74.2464 31.333 72.8645 26.5664 70.0368L22.6664 67.7233C18.081 65.0032 15.8373 63.6688 14.2087 61.8297C12.762 60.196 11.6706 58.2796 11.0037 56.2019C10.2528 53.8628 10.25 51.2523 10.25 45.9209V40.0791C10.25 34.7477 10.2528 32.1372 11.0037 29.7981C11.6706 27.7204 12.762 25.804 14.2087 24.1703C15.8373 22.3312 18.081 20.9968 22.6664 18.2767L26.5664 15.9632Z" stroke="url(#paint0_linear_1_571)" stroke-width="0.5" shape-rendering="crispEdges"/>
<path d="M26.5664 15.9632C31.333 13.1355 33.6685 11.7536 36.1526 11.2133C38.3584 10.7335 40.6416 10.7335 42.8474 11.2133C45.3315 11.7536 47.667 13.1355 52.4336 15.9632L56.3336 18.2767C60.919 20.9968 63.1627 22.3312 64.7913 24.1703C66.238 25.804 67.3294 27.7204 67.9963 29.7981C68.7472 32.1372 68.75 34.7477 68.75 40.0791V45.9209C68.75 51.2523 68.7472 53.8628 67.9963 56.2019C67.3294 58.2796 66.238 60.196 64.7913 61.8297C63.1627 63.6688 60.919 65.0032 56.3336 67.7233L52.4336 70.0368C47.667 72.8645 45.3315 74.2464 42.8474 74.7867C40.6416 75.2665 38.3584 75.2665 36.1526 74.7867C33.6685 74.2464 31.333 72.8645 26.5664 70.0368L22.6664 67.7233C18.081 65.0032 15.8373 63.6688 14.2087 61.8297C12.762 60.196 11.6706 58.2796 11.0037 56.2019C10.2528 53.8628 10.25 51.2523 10.25 45.9209V40.0791C10.25 34.7477 10.2528 32.1372 11.0037 29.7981C11.6706 27.7204 12.762 25.804 14.2087 24.1703C15.8373 22.3312 18.081 20.9968 22.6664 18.2767L26.5664 15.9632Z" stroke="url(#paint1_linear_1_571)" stroke-width="0.5" shape-rendering="crispEdges"/>
</g>
<g filter="url(#filter1_bd_1_571)">
<path d="M29.8083 17.8561C33.3352 15.725 35.0987 14.6595 36.9852 14.23C38.6542 13.8501 40.3851 13.8316 42.0618 14.1758C43.9571 14.5649 45.7429 15.5926 49.3144 17.6479L56.3765 21.712C59.8821 23.7293 61.6349 24.738 62.9098 26.1511C64.0378 27.4014 64.8901 28.8751 65.4111 30.4765C66 32.2863 66 34.3086 66 38.3532V46.6468C66 50.6914 66 52.7137 65.4111 54.5235C64.8901 56.1248 64.0378 57.5986 62.9098 58.8489C61.6349 60.262 59.8821 61.2707 56.3765 63.288L49.0765 67.489C45.5872 69.497 43.8425 70.501 41.9883 70.894C40.3477 71.2418 38.6523 71.2418 37.0117 70.894C35.1575 70.501 33.4128 69.497 29.9235 67.489L22.6235 63.288C19.1179 61.2707 17.3651 60.262 16.0902 58.8489C14.9622 57.5986 14.1099 56.1248 13.5889 54.5235C13 52.7137 13 50.6914 13 46.6468V38.8439C13 34.8935 13 32.9183 13.5653 31.1422C14.0657 29.5705 14.8846 28.1188 15.9711 26.8778C17.1988 25.4754 18.8893 24.4539 22.2704 22.4109L29.8083 17.8561Z" fill="black" fill-opacity="0.7" shape-rendering="crispEdges"/>
<path d="M29.9376 18.0701C33.4793 15.9301 35.2028 14.8922 37.0407 14.4738C38.6749 14.1018 40.3698 14.0837 42.0115 14.4207C43.8579 14.7998 45.6032 15.8007 49.1898 17.8646L56.2519 21.9287C59.7721 23.9544 61.4822 24.9419 62.7242 26.3186C63.8287 27.5428 64.6632 28.9859 65.1734 30.5538C65.7471 32.317 65.75 34.2917 65.75 38.3532V46.6468C65.75 50.7083 65.7471 52.683 65.1734 54.4462C64.6632 56.0141 63.8287 57.4571 62.7242 58.6814C61.4822 60.0581 59.7721 61.0455 56.2519 63.0713L48.9519 67.2723C45.4479 69.2887 43.7429 70.2666 41.9365 70.6495C40.33 70.99 38.67 70.99 37.0635 70.6495C35.2571 70.2666 33.5521 69.2887 30.0481 67.2723L22.7481 63.0713C19.2279 61.0456 17.5178 60.0581 16.2758 58.6814C15.1713 57.4571 14.3368 56.0141 13.8266 54.4462C13.2529 52.683 13.25 50.7083 13.25 46.6468V38.8439C13.25 34.877 13.2528 32.9483 13.8036 31.2181C14.2935 29.6791 15.0953 28.2576 16.1592 27.0425C17.3552 25.6762 19.0045 24.6764 22.3997 22.6249L29.9376 18.0701Z" stroke="url(#paint2_linear_1_571)" stroke-width="0.5" shape-rendering="crispEdges"/>
<path d="M29.9376 18.0701C33.4793 15.9301 35.2028 14.8922 37.0407 14.4738C38.6749 14.1018 40.3698 14.0837 42.0115 14.4207C43.8579 14.7998 45.6032 15.8007 49.1898 17.8646L56.2519 21.9287C59.7721 23.9544 61.4822 24.9419 62.7242 26.3186C63.8287 27.5428 64.6632 28.9859 65.1734 30.5538C65.7471 32.317 65.75 34.2917 65.75 38.3532V46.6468C65.75 50.7083 65.7471 52.683 65.1734 54.4462C64.6632 56.0141 63.8287 57.4571 62.7242 58.6814C61.4822 60.0581 59.7721 61.0455 56.2519 63.0713L48.9519 67.2723C45.4479 69.2887 43.7429 70.2666 41.9365 70.6495C40.33 70.99 38.67 70.99 37.0635 70.6495C35.2571 70.2666 33.5521 69.2887 30.0481 67.2723L22.7481 63.0713C19.2279 61.0456 17.5178 60.0581 16.2758 58.6814C15.1713 57.4571 14.3368 56.0141 13.8266 54.4462C13.2529 52.683 13.25 50.7083 13.25 46.6468V38.8439C13.25 34.877 13.2528 32.9483 13.8036 31.2181C14.2935 29.6791 15.0953 28.2576 16.1592 27.0425C17.3552 25.6762 19.0045 24.6764 22.3997 22.6249L29.9376 18.0701Z" stroke="url(#paint3_linear_1_571)" stroke-width="0.5" shape-rendering="crispEdges"/>
</g>
<mask id="mask0_1_571" style="mask-type:alpha" maskUnits="userSpaceOnUse" x="13" y="13" width="53" height="59">
<path d="M29.9376 18.0701C33.4793 15.9301 35.2028 14.8922 37.0407 14.4738C38.6749 14.1018 40.3698 14.0837 42.0115 14.4207C43.8579 14.7998 45.6032 15.8007 49.1898 17.8646L56.2519 21.9287C59.7721 23.9544 61.4822 24.9419 62.7242 26.3186C63.8287 27.5428 64.6632 28.9859 65.1734 30.5538C65.7471 32.317 65.75 34.2917 65.75 38.3532V46.6468C65.75 50.7083 65.7471 52.683 65.1734 54.4462C64.6632 56.0141 63.8287 57.4571 62.7242 58.6814C61.4822 60.0581 59.7721 61.0455 56.2519 63.0713L48.9519 67.2723C45.4479 69.2887 43.7429 70.2666 41.9365 70.6495C40.33 70.99 38.67 70.99 37.0635 70.6495C35.2571 70.2666 33.5521 69.2887 30.0481 67.2723L22.7481 63.0713C19.2279 61.0456 17.5178 60.0581 16.2758 58.6814C15.1713 57.4571 14.3368 56.0141 13.8266 54.4462C13.2529 52.683 13.25 50.7083 13.25 46.6468V38.8439C13.25 34.877 13.2528 32.9483 13.8036 31.2181C14.2935 29.6791 15.0953 28.2576 16.1592 27.0425C17.3552 25.6762 19.0045 24.6764 22.3997 22.6249L29.9376 18.0701Z" fill="black" fill-opacity="0.7"/>
<path d="M29.9376 18.0701C33.4793 15.9301 35.2028 14.8922 37.0407 14.4738C38.6749 14.1018 40.3698 14.0837 42.0115 14.4207C43.8579 14.7998 45.6032 15.8007 49.1898 17.8646L56.2519 21.9287C59.7721 23.9544 61.4822 24.9419 62.7242 26.3186C63.8287 27.5428 64.6632 28.9859 65.1734 30.5538C65.7471 32.317 65.75 34.2917 65.75 38.3532V46.6468C65.75 50.7083 65.7471 52.683 65.1734 54.4462C64.6632 56.0141 63.8287 57.4571 62.7242 58.6814C61.4822 60.0581 59.7721 61.0455 56.2519 63.0713L48.9519 67.2723C45.4479 69.2887 43.7429 70.2666 41.9365 70.6495C40.33 70.99 38.67 70.99 37.0635 70.6495C35.2571 70.2666 33.5521 69.2887 30.0481 67.2723L22.7481 63.0713C19.2279 61.0456 17.5178 60.0581 16.2758 58.6814C15.1713 57.4571 14.3368 56.0141 13.8266 54.4462C13.2529 52.683 13.25 50.7083 13.25 46.6468V38.8439C13.25 34.877 13.2528 32.9483 13.8036 31.2181C14.2935 29.6791 15.0953 28.2576 16.1592 27.0425C17.3552 25.6762 19.0045 24.6764 22.3997 22.6249L29.9376 18.0701Z" stroke="url(#paint4_linear_1_571)" stroke-width="0.5"/>
<path d="M29.9376 18.0701C33.4793 15.9301 35.2028 14.8922 37.0407 14.4738C38.6749 14.1018 40.3698 14.0837 42.0115 14.4207C43.8579 14.7998 45.6032 15.8007 49.1898 17.8646L56.2519 21.9287C59.7721 23.9544 61.4822 24.9419 62.7242 26.3186C63.8287 27.5428 64.6632 28.9859 65.1734 30.5538C65.7471 32.317 65.75 34.2917 65.75 38.3532V46.6468C65.75 50.7083 65.7471 52.683 65.1734 54.4462C64.6632 56.0141 63.8287 57.4571 62.7242 58.6814C61.4822 60.0581 59.7721 61.0455 56.2519 63.0713L48.9519 67.2723C45.4479 69.2887 43.7429 70.2666 41.9365 70.6495C40.33 70.99 38.67 70.99 37.0635 70.6495C35.2571 70.2666 33.5521 69.2887 30.0481 67.2723L22.7481 63.0713C19.2279 61.0456 17.5178 60.0581 16.2758 58.6814C15.1713 57.4571 14.3368 56.0141 13.8266 54.4462C13.2529 52.683 13.25 50.7083 13.25 46.6468V38.8439C13.25 34.877 13.2528 32.9483 13.8036 31.2181C14.2935 29.6791 15.0953 28.2576 16.1592 27.0425C17.3552 25.6762 19.0045 24.6764 22.3997 22.6249L29.9376 18.0701Z" stroke="url(#paint5_linear_1_571)" stroke-width="0.5"/>
</mask>
<g mask="url(#mask0_1_571)">
<g filter="url(#filter2_f_1_571)">
<path d="M66.9744 18.7568L29.9706 19.3312L12.6664 50.9183L16.5879 19.2543L36.9945 7.16936L66.9744 18.7568Z" fill="#DA56FF"/>
</g>
<circle opacity="0.2" cx="40" cy="42" r="20" stroke="url(#paint6_radial_1_571)" stroke-width="36" stroke-dasharray="10 10"/>
<g filter="url(#filter3_f_1_571)">
<path d="M66.6477 38.5774L48.0011 70.5448L11.987 70.1357L41.5055 82.2456L62.0447 70.3873L66.6477 38.5774Z" fill="#3538FF"/>
</g>
</g>
<path d="M23 60.38H57V26.38H23V60.38Z" fill="white"/>
<defs>
<filter id="filter0_bd_1_571" x="-44" y="-43.3965" width="167" height="172.793" filterUnits="userSpaceOnUse" color-interpolation-filters="sRGB">
<feFlood flood-opacity="0" result="BackgroundImageFix"/>
<feGaussianBlur in="BackgroundImageFix" stdDeviation="27"/>
<feComposite in2="SourceAlpha" operator="in" result="effect1_backgroundBlur_1_571"/>
<feColorMatrix in="SourceAlpha" type="matrix" values="0 0 0 0 0 0 0 0 0 0 0 0 0 0 0 0 0 0 127 0" result="hardAlpha"/>
<feOffset/>
<feGaussianBlur stdDeviation="5"/>
<feComposite in2="hardAlpha" operator="out"/>
<feColorMatrix type="matrix" values="0 0 0 0 0 0 0 0 0 0 0 0 0 0 0 0 0 0 0.8 0"/>
<feBlend mode="normal" in2="effect1_backgroundBlur_1_571" result="effect2_dropShadow_1_571"/>
<feBlend mode="normal" in="SourceGraphic" in2="effect2_dropShadow_1_571" result="shape"/>
</filter>
<filter id="filter1_bd_1_571" x="-41" y="-40.0693" width="161" height="165.224" filterUnits="userSpaceOnUse" color-interpolation-filters="sRGB">
<feFlood flood-opacity="0" result="BackgroundImageFix"/>
<feGaussianBlur in="BackgroundImageFix" stdDeviation="27"/>
<feComposite in2="SourceAlpha" operator="in" result="effect1_backgroundBlur_1_571"/>
<feColorMatrix in="SourceAlpha" type="matrix" values="0 0 0 0 0 0 0 0 0 0 0 0 0 0 0 0 0 0 127 0" result="hardAlpha"/>
<feOffset/>
<feGaussianBlur stdDeviation="5"/>
<feComposite in2="hardAlpha" operator="out"/>
<feColorMatrix type="matrix" values="0 0 0 0 0 0 0 0 0 0 0 0 0 0 0 0 0 0 0.8 0"/>
<feBlend mode="normal" in2="effect1_backgroundBlur_1_571" result="effect2_dropShadow_1_571"/>
<feBlend mode="normal" in="SourceGraphic" in2="effect2_dropShadow_1_571" result="shape"/>
</filter>
<filter id="filter2_f_1_571" x="-11.3336" y="-16.8306" width="102.308" height="91.7489" filterUnits="userSpaceOnUse" color-interpolation-filters="sRGB">
<feFlood flood-opacity="0" result="BackgroundImageFix"/>
<feBlend mode="normal" in="SourceGraphic" in2="BackgroundImageFix" result="shape"/>
<feGaussianBlur stdDeviation="12" result="effect1_foregroundBlur_1_571"/>
</filter>
<filter id="filter3_f_1_571" x="-12.013" y="14.5774" width="102.661" height="91.6682" filterUnits="userSpaceOnUse" color-interpolation-filters="sRGB">
<feFlood flood-opacity="0" result="BackgroundImageFix"/>
<feBlend mode="normal" in="SourceGraphic" in2="BackgroundImageFix" result="shape"/>
<feGaussianBlur stdDeviation="12" result="effect1_foregroundBlur_1_571"/>
</filter>
<linearGradient id="paint0_linear_1_571" x1="14.1201" y1="2.09638" x2="50.7462" y2="28.1362" gradientUnits="userSpaceOnUse">
<stop stop-color="#696969"/>
<stop offset="1" stop-color="#696969" stop-opacity="0"/>
</linearGradient>
<linearGradient id="paint1_linear_1_571" x1="68.2584" y1="78" x2="37.1106" y2="63.9669" gradientUnits="userSpaceOnUse">
<stop stop-color="#696969"/>
<stop offset="1" stop-color="#696969" stop-opacity="0"/>
</linearGradient>
<linearGradient id="paint2_linear_1_571" x1="14.0578" y1="3.29097" x2="49.6544" y2="29.7575" gradientUnits="userSpaceOnUse">
<stop stop-color="#696969"/>
<stop offset="1" stop-color="#696969" stop-opacity="0"/>
</linearGradient>
<linearGradient id="paint3_linear_1_571" x1="68.329" y1="76.05" x2="37.5905" y2="61.5673" gradientUnits="userSpaceOnUse">
<stop stop-color="#696969"/>
<stop offset="1" stop-color="#696969" stop-opacity="0"/>
</linearGradient>
<linearGradient id="paint4_linear_1_571" x1="14.0578" y1="3.29097" x2="49.6544" y2="29.7575" gradientUnits="userSpaceOnUse">
<stop stop-color="#696969"/>
<stop offset="1" stop-color="#696969" stop-opacity="0"/>
</linearGradient>
<linearGradient id="paint5_linear_1_571" x1="68.329" y1="76.05" x2="37.5905" y2="61.5673" gradientUnits="userSpaceOnUse">
<stop stop-color="#696969"/>
<stop offset="1" stop-color="#696969" stop-opacity="0"/>
</linearGradient>
<radialGradient id="paint6_radial_1_571" cx="0" cy="0" r="1" gradientUnits="userSpaceOnUse" gradientTransform="translate(40 42) rotate(90) scale(33.652)">
<stop stop-color="white"/>
<stop offset="1" stop-color="white" stop-opacity="0"/>
</radialGradient>
</defs>
</svg>
