<svg width="148" height="77" viewBox="0 0 148 77" fill="none" xmlns="http://www.w3.org/2000/svg">
<g filter="url(#filter0_b_1_563)">
<path d="M1.53224 34.0443C0.988191 31.188 0.716165 29.7599 1.01733 28.5049C1.28278 27.3987 1.85721 26.3908 2.67366 25.5987C3.59994 24.7 4.96733 24.2062 7.70211 23.2187L36 13L70.8926 1.06306C72.0449 0.66884 72.6211 0.471731 73.2112 0.393473C73.7348 0.324036 74.2652 0.324036 74.7888 0.393473C75.3789 0.471731 75.9551 0.66884 77.1074 1.06306L112 13L140.298 23.2187C143.033 24.2062 144.4 24.7 145.326 25.5987C146.143 26.3908 146.717 27.3987 146.983 28.5049C147.284 29.7599 147.012 31.188 146.468 34.0443L141.292 61.2172C140.827 63.6566 140.595 64.8763 139.99 65.8371C139.455 66.6855 138.716 67.3864 137.841 67.8756C136.849 68.4296 135.619 68.5974 133.159 68.9329L75.2971 76.8231C74.8116 76.8893 74.5688 76.9224 74.3251 76.9357C74.1085 76.9474 73.8915 76.9474 73.6749 76.9357C73.4312 76.9224 73.1884 76.8893 72.7029 76.8231L14.8414 68.9329C12.3809 68.5974 11.1507 68.4296 10.1594 67.8756C9.28397 67.3864 8.54516 66.6855 8.01049 65.8371C7.40501 64.8763 7.17269 63.6566 6.70804 61.2172L1.53224 34.0443Z" fill="black" fill-opacity="0.5"/>
<path d="M1.77783 33.9975C1.5051 32.5657 1.30331 31.5054 1.20625 30.646C1.10955 29.7898 1.11931 29.1513 1.26043 28.5632C1.51482 27.5032 2.06532 26.5373 2.84774 25.7781C3.28178 25.357 3.82619 25.0232 4.61216 24.6701C5.40099 24.3156 6.41608 23.9489 7.78702 23.4538L36.0809 13.2365L36.0849 13.2351L70.9735 1.2996C72.1351 0.902222 72.6842 0.715548 73.2441 0.641303C73.7458 0.57476 74.2542 0.57476 74.7559 0.641303C75.3158 0.715548 75.8649 0.902223 77.0265 1.2996L111.915 13.2351L111.919 13.2365L140.213 23.4538C141.584 23.9489 142.599 24.3156 143.388 24.6701C144.174 25.0232 144.718 25.357 145.152 25.7781C145.935 26.5373 146.485 27.5032 146.74 28.5632C146.881 29.1513 146.89 29.7898 146.794 30.646C146.697 31.5054 146.495 32.5657 146.222 33.9975L141.046 61.1704C140.578 63.6308 140.352 64.7928 139.778 65.7038C139.266 66.5169 138.558 67.1885 137.719 67.6574C136.779 68.1827 135.606 68.3468 133.125 68.6852L75.2633 76.5754C74.774 76.6421 74.5428 76.6735 74.3116 76.686C74.104 76.6973 73.896 76.6973 73.6884 76.686C73.4572 76.6735 73.226 76.6421 72.7367 76.5754L14.8752 68.6852C12.3936 68.3468 11.2213 68.1827 10.2813 67.6574C9.44241 67.1885 8.73439 66.5169 8.22199 65.7038C7.64785 64.7928 7.42226 63.6308 6.95363 61.1704L1.77783 33.9975Z" stroke="url(#paint0_linear_1_563)" stroke-width="0.5"/>
<path d="M1.77783 33.9975C1.5051 32.5657 1.30331 31.5054 1.20625 30.646C1.10955 29.7898 1.11931 29.1513 1.26043 28.5632C1.51482 27.5032 2.06532 26.5373 2.84774 25.7781C3.28178 25.357 3.82619 25.0232 4.61216 24.6701C5.40099 24.3156 6.41608 23.9489 7.78702 23.4538L36.0809 13.2365L36.0849 13.2351L70.9735 1.2996C72.1351 0.902222 72.6842 0.715548 73.2441 0.641303C73.7458 0.57476 74.2542 0.57476 74.7559 0.641303C75.3158 0.715548 75.8649 0.902223 77.0265 1.2996L111.915 13.2351L111.919 13.2365L140.213 23.4538C141.584 23.9489 142.599 24.3156 143.388 24.6701C144.174 25.0232 144.718 25.357 145.152 25.7781C145.935 26.5373 146.485 27.5032 146.74 28.5632C146.881 29.1513 146.89 29.7898 146.794 30.646C146.697 31.5054 146.495 32.5657 146.222 33.9975L141.046 61.1704C140.578 63.6308 140.352 64.7928 139.778 65.7038C139.266 66.5169 138.558 67.1885 137.719 67.6574C136.779 68.1827 135.606 68.3468 133.125 68.6852L75.2633 76.5754C74.774 76.6421 74.5428 76.6735 74.3116 76.686C74.104 76.6973 73.896 76.6973 73.6884 76.686C73.4572 76.6735 73.226 76.6421 72.7367 76.5754L14.8752 68.6852C12.3936 68.3468 11.2213 68.1827 10.2813 67.6574C9.44241 67.1885 8.73439 66.5169 8.22199 65.7038C7.64785 64.7928 7.42226 63.6308 6.95363 61.1704L1.77783 33.9975Z" stroke="url(#paint1_linear_1_563)" stroke-width="0.5"/>
</g>
<defs>
<filter id="filter0_b_1_563" x="-53.1075" y="-53.6586" width="254.215" height="184.603" filterUnits="userSpaceOnUse" color-interpolation-filters="sRGB">
<feFlood flood-opacity="0" result="BackgroundImageFix"/>
<feGaussianBlur in="BackgroundImageFix" stdDeviation="27"/>
<feComposite in2="SourceAlpha" operator="in" result="effect1_backgroundBlur_1_563"/>
<feBlend mode="normal" in="SourceGraphic" in2="effect1_backgroundBlur_1_563" result="shape"/>
</filter>
<linearGradient id="paint0_linear_1_563" x1="25.0872" y1="68.8243" x2="10.2064" y2="79.7076" gradientUnits="userSpaceOnUse">
<stop stop-color="#696969" stop-opacity="0"/>
<stop offset="1" stop-color="#696969"/>
</linearGradient>
<linearGradient id="paint1_linear_1_563" x1="125.836" y1="96.9189" x2="103.785" y2="82.1927" gradientUnits="userSpaceOnUse">
<stop stop-color="#696969"/>
<stop offset="1" stop-color="#696969" stop-opacity="0"/>
</linearGradient>
</defs>
</svg>
