<svg width="178" height="108" viewBox="0 0 178 108" fill="none" xmlns="http://www.w3.org/2000/svg">
<g filter="url(#filter0_bd_1_562)">
<path d="M11.7287 51.6433C10.7614 46.8068 10.2777 44.3885 10.7793 42.2661C11.2213 40.3957 12.1928 38.6924 13.5777 37.3599C15.1493 35.8478 17.4769 35.0331 22.1323 33.4037L83.7144 11.85C85.6735 11.1643 86.6531 10.8214 87.6574 10.6854C88.5484 10.5646 89.4516 10.5646 90.3426 10.6854C91.3469 10.8214 92.3265 11.1643 94.2856 11.85L155.868 33.4037C160.523 35.0331 162.851 35.8478 164.422 37.3599C165.807 38.6924 166.779 40.3957 167.221 42.2661C167.722 44.3885 167.239 46.8068 166.271 51.6433L161.22 76.8996C160.421 80.8962 160.021 82.8945 159.018 84.4708C158.132 85.8631 156.915 87.0143 155.475 87.8219C153.846 88.7363 151.828 89.0245 147.794 89.6009L91.2627 97.6768C90.4159 97.7977 89.9925 97.8582 89.5673 97.8824C89.1894 97.9038 88.8106 97.9038 88.4327 97.8824C88.0075 97.8582 87.5841 97.7977 86.7373 97.6768L30.2065 89.6009C26.1717 89.0245 24.1543 88.7363 22.5247 87.8219C21.0855 87.0143 19.8685 85.8631 18.9823 84.4708C17.9789 82.8945 17.5792 80.8962 16.7799 76.8996L11.7287 51.6433Z" fill="#322554" fill-opacity="0.1" shape-rendering="crispEdges"/>
<path d="M11.9738 51.5942C11.4894 49.1722 11.129 47.3695 10.9513 45.9067C10.774 44.4471 10.7813 43.3447 11.0226 42.3236C11.4535 40.5 12.4008 38.8392 13.751 37.54C14.5071 36.8125 15.4523 36.2451 16.799 35.6547C18.1484 35.0631 19.8836 34.4556 22.2149 33.6396L83.797 12.0859C85.7655 11.3969 86.7175 11.065 87.6909 10.9331C88.5597 10.8154 89.4403 10.8154 90.3091 10.9331C91.2825 11.065 92.2345 11.3969 94.203 12.0859L155.785 33.6397C158.116 34.4556 159.852 35.0631 161.201 35.6547C162.548 36.2451 163.493 36.8125 164.249 37.54C165.599 38.8392 166.546 40.5 166.977 42.3236C167.219 43.3447 167.226 44.4471 167.049 45.9067C166.871 47.3695 166.511 49.1722 166.026 51.5942L160.975 76.8506C160.172 80.8677 159.779 82.8092 158.807 84.3366C157.943 85.694 156.756 86.8165 155.353 87.6039C153.774 88.4899 151.814 88.7741 147.758 89.3534L91.2274 97.4293C90.3766 97.5508 89.9653 97.6094 89.5531 97.6328C89.1847 97.6537 88.8153 97.6537 88.4469 97.6328C88.0347 97.6094 87.6234 97.5508 86.7726 97.4293L30.2418 89.3534C26.1863 88.7741 24.226 88.4899 22.6471 87.6039C21.2438 86.8165 20.0572 85.694 19.1932 84.3366C18.221 82.8092 17.8285 80.8677 17.0251 76.8506L11.9738 51.5942Z" fill="#322554" stroke="url(#paint0_linear_1_562)" stroke-width="0.5" shape-rendering="crispEdges"/>
<path d="M11.9738 51.5942C11.4894 49.1722 11.129 47.3695 10.9513 45.9067C10.774 44.4471 10.7813 43.3447 11.0226 42.3236C11.4535 40.5 12.4008 38.8392 13.751 37.54C14.5071 36.8125 15.4523 36.2451 16.799 35.6547C18.1484 35.0631 19.8836 34.4556 22.2149 33.6396L83.797 12.0859C85.7655 11.3969 86.7175 11.065 87.6909 10.9331C88.5597 10.8154 89.4403 10.8154 90.3091 10.9331C91.2825 11.065 92.2345 11.3969 94.203 12.0859L155.785 33.6397C158.116 34.4556 159.852 35.0631 161.201 35.6547C162.548 36.2451 163.493 36.8125 164.249 37.54C165.599 38.8392 166.546 40.5 166.977 42.3236C167.219 43.3447 167.226 44.4471 167.049 45.9067C166.871 47.3695 166.511 49.1722 166.026 51.5942L160.975 76.8506C160.172 80.8677 159.779 82.8092 158.807 84.3366C157.943 85.694 156.756 86.8165 155.353 87.6039C153.774 88.4899 151.814 88.7741 147.758 89.3534L91.2274 97.4293C90.3766 97.5508 89.9653 97.6094 89.5531 97.6328C89.1847 97.6537 88.8153 97.6537 88.4469 97.6328C88.0347 97.6094 87.6234 97.5508 86.7726 97.4293L30.2418 89.3534C26.1863 88.7741 24.226 88.4899 22.6471 87.6039C21.2438 86.8165 20.0572 85.694 19.1932 84.3366C18.221 82.8092 17.8285 80.8677 17.0251 76.8506L11.9738 51.5942Z" fill="#322554" stroke="url(#paint1_linear_1_562)" stroke-width="0.5" shape-rendering="crispEdges"/>
</g>
<defs>
<filter id="filter0_bd_1_562" x="-43.4214" y="-43.4052" width="264.843" height="195.304" filterUnits="userSpaceOnUse" color-interpolation-filters="sRGB">
<feFlood flood-opacity="0" result="BackgroundImageFix"/>
<feGaussianBlur in="BackgroundImageFix" stdDeviation="27"/>
<feComposite in2="SourceAlpha" operator="in" result="effect1_backgroundBlur_1_562"/>
<feColorMatrix in="SourceAlpha" type="matrix" values="0 0 0 0 0 0 0 0 0 0 0 0 0 0 0 0 0 0 127 0" result="hardAlpha"/>
<feOffset/>
<feGaussianBlur stdDeviation="5"/>
<feComposite in2="hardAlpha" operator="out"/>
<feColorMatrix type="matrix" values="0 0 0 0 0 0 0 0 0 0 0 0 0 0 0 0 0 0 0.8 0"/>
<feBlend mode="normal" in2="effect1_backgroundBlur_1_562" result="effect2_dropShadow_1_562"/>
<feBlend mode="normal" in="SourceGraphic" in2="effect2_dropShadow_1_562" result="shape"/>
</filter>
<linearGradient id="paint0_linear_1_562" x1="51.8718" y1="70.5488" x2="21.1127" y2="81.6428" gradientUnits="userSpaceOnUse">
<stop stop-color="#696969" stop-opacity="0"/>
<stop offset="1" stop-color="#696969"/>
</linearGradient>
<linearGradient id="paint1_linear_1_562" x1="143.564" y1="114.317" x2="120.093" y2="98.9262" gradientUnits="userSpaceOnUse">
<stop stop-color="#696969"/>
<stop offset="1" stop-color="#696969" stop-opacity="0"/>
</linearGradient>
</defs>
</svg>
