<svg width="79" height="86" viewBox="0 0 79 86" fill="none" xmlns="http://www.w3.org/2000/svg">
<g filter="url(#filter0_bd_76_881)">
<path d="M26.4388 15.7481C31.1905 12.9294 33.5663 11.52 36.0994 10.969C38.3403 10.4816 40.6597 10.4816 42.9005 10.969C45.4337 11.52 47.8095 12.9294 52.5612 15.7482L56.4612 18.0617C61.0322 20.7733 63.3177 22.1292 64.9785 24.0046C66.4481 25.6642 67.5568 27.611 68.2343 29.7217C69 32.1069 69 34.7643 69 40.0791V45.9209C69 51.2357 69 53.8931 68.2343 56.2783C67.5568 58.389 66.4481 60.3358 64.9785 61.9954C63.3177 63.8708 61.0322 65.2267 56.4612 67.9383L52.5612 70.2519C47.8095 73.0706 45.4337 74.48 42.9005 75.031C40.6597 75.5184 38.3403 75.5184 36.0994 75.031C33.5663 74.48 31.1905 73.0706 26.4388 70.2519L22.5388 67.9383C17.9678 65.2267 15.6823 63.8708 14.0215 61.9954C12.5519 60.3358 11.4432 58.389 10.7657 56.2783C10 53.8931 10 51.2357 10 45.9209V40.0791C10 34.7643 10 32.1069 10.7657 29.7217C11.4432 27.611 12.5519 25.6642 14.0215 24.0046C15.6823 22.1292 17.9678 20.7733 22.5388 18.0617L26.4388 15.7481Z" fill="white" fill-opacity="0.1" shape-rendering="crispEdges"/>
<path d="M26.5664 15.9632C31.333 13.1355 33.6685 11.7536 36.1526 11.2133C38.3584 10.7335 40.6416 10.7335 42.8474 11.2133C45.3315 11.7536 47.667 13.1355 52.4336 15.9632L56.3336 18.2767C60.919 20.9968 63.1627 22.3312 64.7913 24.1703C66.238 25.804 67.3294 27.7204 67.9963 29.7981C68.7472 32.1372 68.75 34.7477 68.75 40.0791V45.9209C68.75 51.2523 68.7472 53.8628 67.9963 56.2019C67.3294 58.2796 66.238 60.196 64.7913 61.8297C63.1627 63.6688 60.919 65.0032 56.3336 67.7233L52.4336 70.0368C47.667 72.8645 45.3315 74.2464 42.8474 74.7867C40.6416 75.2665 38.3584 75.2665 36.1526 74.7867C33.6685 74.2464 31.333 72.8645 26.5664 70.0368L22.6664 67.7233C18.081 65.0032 15.8373 63.6688 14.2087 61.8297C12.762 60.196 11.6706 58.2796 11.0037 56.2019C10.2528 53.8628 10.25 51.2523 10.25 45.9209V40.0791C10.25 34.7477 10.2528 32.1372 11.0037 29.7981C11.6706 27.7204 12.762 25.804 14.2087 24.1703C15.8373 22.3312 18.081 20.9968 22.6664 18.2767L26.5664 15.9632Z" stroke="url(#paint0_linear_76_881)" stroke-opacity="0.5" stroke-width="0.5" shape-rendering="crispEdges"/>
<path d="M26.5664 15.9632C31.333 13.1355 33.6685 11.7536 36.1526 11.2133C38.3584 10.7335 40.6416 10.7335 42.8474 11.2133C45.3315 11.7536 47.667 13.1355 52.4336 15.9632L56.3336 18.2767C60.919 20.9968 63.1627 22.3312 64.7913 24.1703C66.238 25.804 67.3294 27.7204 67.9963 29.7981C68.7472 32.1372 68.75 34.7477 68.75 40.0791V45.9209C68.75 51.2523 68.7472 53.8628 67.9963 56.2019C67.3294 58.2796 66.238 60.196 64.7913 61.8297C63.1627 63.6688 60.919 65.0032 56.3336 67.7233L52.4336 70.0368C47.667 72.8645 45.3315 74.2464 42.8474 74.7867C40.6416 75.2665 38.3584 75.2665 36.1526 74.7867C33.6685 74.2464 31.333 72.8645 26.5664 70.0368L22.6664 67.7233C18.081 65.0032 15.8373 63.6688 14.2087 61.8297C12.762 60.196 11.6706 58.2796 11.0037 56.2019C10.2528 53.8628 10.25 51.2523 10.25 45.9209V40.0791C10.25 34.7477 10.2528 32.1372 11.0037 29.7981C11.6706 27.7204 12.762 25.804 14.2087 24.1703C15.8373 22.3312 18.081 20.9968 22.6664 18.2767L26.5664 15.9632Z" stroke="url(#paint1_linear_76_881)" stroke-opacity="0.5" stroke-width="0.5" shape-rendering="crispEdges"/>
</g>
<g filter="url(#filter1_b_76_881)">
<path d="M26.5778 19.8082C31.2803 16.9667 33.6316 15.546 36.147 14.9734C38.3723 14.4668 40.6801 14.4422 42.9157 14.9011C45.4428 15.4199 47.8238 16.7901 52.5859 19.5306L53.1687 19.866C57.8428 22.5558 60.1799 23.9007 61.8797 25.7848C63.3838 27.4519 64.5201 29.4169 65.2148 31.5519C66 33.965 66 36.6614 66 42.0542V42.9458C66 48.3386 66 51.035 65.2148 53.4481C64.5201 55.5831 63.3838 57.5481 61.8797 59.2152C60.1799 61.0993 57.8428 62.4442 53.1687 65.134L52.2687 65.652C47.6163 68.3293 45.29 69.668 42.8178 70.192C40.6302 70.6557 38.3698 70.6557 36.1822 70.192C33.71 69.668 31.3837 68.3293 26.7313 65.652L25.8313 65.134C21.1572 62.4442 18.8201 61.0993 17.1203 59.2152C15.6162 57.5481 14.4799 55.5831 13.7852 53.4481C13 51.035 13 48.3386 13 42.9458V42.4544C13 37.1871 13 34.5535 13.7538 32.1855C14.4209 30.0899 15.5128 28.1543 16.9614 26.4995C18.5984 24.6297 20.8524 23.2677 25.3606 20.5437L26.5778 19.8082Z" fill="white" fill-opacity="0.5"/>
<path d="M26.7071 20.0222C31.4244 17.1718 33.7357 15.7787 36.2025 15.2171C38.393 14.7185 40.6648 14.6943 42.8654 15.146C45.3436 15.6548 47.6842 16.9982 52.4612 19.7473L53.044 20.0826C57.7328 22.7809 60.0271 24.1046 61.6941 25.9523C63.1746 27.5933 64.2932 29.5276 64.9771 31.6293C65.7471 33.9957 65.75 36.6445 65.75 42.0542V42.9458C65.75 48.3555 65.7471 51.0043 64.9771 53.3707C64.2932 55.4724 63.1746 57.4067 61.6941 59.0477C60.0271 60.8954 57.7328 62.2191 53.044 64.9173L52.144 65.4353C47.477 68.121 45.1904 69.4336 42.7659 69.9475C40.6126 70.4039 38.3874 70.4039 36.2341 69.9475C33.8096 69.4336 31.523 68.121 26.856 65.4353L25.956 64.9173C21.2672 62.2191 18.9729 60.8954 17.3059 59.0477C15.8254 57.4067 14.7068 55.4724 14.0229 53.3707C13.2529 51.0043 13.25 48.3555 13.25 42.9458V42.4544C13.25 37.1707 13.2528 34.5836 13.992 32.2613C14.6487 30.1984 15.7236 28.2931 17.1495 26.6642C18.7548 24.8305 20.9676 23.4902 25.4899 20.7576L26.7071 20.0222Z" stroke="url(#paint2_linear_76_881)" stroke-opacity="0.5" stroke-width="0.5"/>
<path d="M26.7071 20.0222C31.4244 17.1718 33.7357 15.7787 36.2025 15.2171C38.393 14.7185 40.6648 14.6943 42.8654 15.146C45.3436 15.6548 47.6842 16.9982 52.4612 19.7473L53.044 20.0826C57.7328 22.7809 60.0271 24.1046 61.6941 25.9523C63.1746 27.5933 64.2932 29.5276 64.9771 31.6293C65.7471 33.9957 65.75 36.6445 65.75 42.0542V42.9458C65.75 48.3555 65.7471 51.0043 64.9771 53.3707C64.2932 55.4724 63.1746 57.4067 61.6941 59.0477C60.0271 60.8954 57.7328 62.2191 53.044 64.9173L52.144 65.4353C47.477 68.121 45.1904 69.4336 42.7659 69.9475C40.6126 70.4039 38.3874 70.4039 36.2341 69.9475C33.8096 69.4336 31.523 68.121 26.856 65.4353L25.956 64.9173C21.2672 62.2191 18.9729 60.8954 17.3059 59.0477C15.8254 57.4067 14.7068 55.4724 14.0229 53.3707C13.2529 51.0043 13.25 48.3555 13.25 42.9458V42.4544C13.25 37.1707 13.2528 34.5836 13.992 32.2613C14.6487 30.1984 15.7236 28.2931 17.1495 26.6642C18.7548 24.8305 20.9676 23.4902 25.4899 20.7576L26.7071 20.0222Z" stroke="url(#paint3_linear_76_881)" stroke-opacity="0.5" stroke-width="0.5"/>
</g>
<g opacity="0.7">
<path d="M30.724 58.87V58.48H31.402C31.526 58.48 31.634 58.46 31.726 58.42C31.818 58.38 31.888 58.322 31.936 58.246C31.988 58.17 32.014 58.08 32.014 57.976C32.014 57.816 31.958 57.694 31.846 57.61C31.738 57.526 31.59 57.484 31.402 57.484H30.94V60.316H31.492C31.636 60.316 31.766 60.296 31.882 60.256C31.998 60.212 32.088 60.144 32.152 60.052C32.22 59.96 32.254 59.842 32.254 59.698C32.254 59.594 32.234 59.506 32.194 59.434C32.158 59.358 32.104 59.296 32.032 59.248C31.964 59.196 31.884 59.16 31.792 59.14C31.7 59.116 31.6 59.104 31.492 59.104H30.724V58.636H31.57C31.774 58.636 31.968 58.658 32.152 58.702C32.34 58.746 32.508 58.816 32.656 58.912C32.804 59.004 32.92 59.124 33.004 59.272C33.092 59.42 33.136 59.598 33.136 59.806C33.136 60.082 33.07 60.308 32.938 60.484C32.81 60.66 32.628 60.79 32.392 60.874C32.156 60.958 31.882 61 31.57 61H30.082V56.8H31.48C31.76 56.8 32.006 56.84 32.218 56.92C32.43 56.996 32.596 57.112 32.716 57.268C32.836 57.424 32.896 57.622 32.896 57.862C32.896 58.074 32.836 58.256 32.716 58.408C32.596 58.56 32.43 58.676 32.218 58.756C32.006 58.832 31.76 58.87 31.48 58.87H30.724ZM34.5331 58.9C34.5331 59.168 34.5891 59.406 34.7011 59.614C34.8131 59.822 34.9671 59.986 35.1631 60.106C35.3591 60.226 35.5871 60.286 35.8471 60.286C36.1071 60.286 36.3351 60.226 36.5311 60.106C36.7271 59.986 36.8791 59.822 36.9871 59.614C37.0991 59.406 37.1551 59.168 37.1551 58.9C37.1551 58.632 37.1011 58.394 36.9931 58.186C36.8851 57.978 36.7331 57.814 36.5371 57.694C36.3411 57.574 36.1111 57.514 35.8471 57.514C35.5871 57.514 35.3591 57.574 35.1631 57.694C34.9671 57.814 34.8131 57.978 34.7011 58.186C34.5891 58.394 34.5331 58.632 34.5331 58.9ZM33.6271 58.9C33.6271 58.58 33.6831 58.288 33.7951 58.024C33.9071 57.756 34.0631 57.524 34.2631 57.328C34.4631 57.132 34.6971 56.982 34.9651 56.878C35.2371 56.77 35.5311 56.716 35.8471 56.716C36.1671 56.716 36.4611 56.77 36.7291 56.878C36.9971 56.982 37.2311 57.132 37.4311 57.328C37.6351 57.524 37.7911 57.756 37.8991 58.024C38.0111 58.288 38.0671 58.58 38.0671 58.9C38.0671 59.216 38.0111 59.51 37.8991 59.782C37.7911 60.05 37.6371 60.284 37.4371 60.484C37.2411 60.684 37.0071 60.84 36.7351 60.952C36.4671 61.06 36.1711 61.114 35.8471 61.114C35.5231 61.114 35.2251 61.06 34.9531 60.952C34.6851 60.84 34.4511 60.684 34.2511 60.484C34.0511 60.284 33.8971 60.05 33.7891 59.782C33.6811 59.51 33.6271 59.216 33.6271 58.9ZM39.1308 60.046L39.2328 59.368H41.2488L41.3508 60.046H39.1308ZM40.2288 58.162L39.5988 59.608L39.6168 59.8L39.0648 61H38.0988L40.2288 56.554L42.3588 61H41.3868L40.8468 59.836L40.8588 59.62L40.2288 58.162ZM43.7684 59.044H44.6744L46.0424 61H45.0284L43.7684 59.044ZM42.8144 56.8H43.6724V61H42.8144V56.8ZM43.3364 57.532V56.8H44.2244C44.5564 56.8 44.8384 56.856 45.0704 56.968C45.3024 57.08 45.4804 57.236 45.6044 57.436C45.7284 57.636 45.7904 57.87 45.7904 58.138C45.7904 58.402 45.7284 58.636 45.6044 58.84C45.4804 59.04 45.3024 59.196 45.0704 59.308C44.8384 59.42 44.5564 59.476 44.2244 59.476H43.3364V58.792H44.1704C44.3224 58.792 44.4524 58.768 44.5604 58.72C44.6724 58.668 44.7584 58.596 44.8184 58.504C44.8784 58.408 44.9084 58.294 44.9084 58.162C44.9084 58.03 44.8784 57.918 44.8184 57.826C44.7584 57.73 44.6724 57.658 44.5604 57.61C44.4524 57.558 44.3224 57.532 44.1704 57.532H43.3364ZM46.5351 56.8H47.4111V61H46.5351V56.8ZM47.9631 61H47.0871V60.22H47.9331C48.1171 60.22 48.2911 60.196 48.4551 60.148C48.6191 60.096 48.7631 60.016 48.8871 59.908C49.0111 59.8 49.1071 59.664 49.1751 59.5C49.2471 59.332 49.2831 59.132 49.2831 58.9C49.2831 58.668 49.2471 58.47 49.1751 58.306C49.1071 58.138 49.0111 58 48.8871 57.892C48.7631 57.784 48.6191 57.706 48.4551 57.658C48.2911 57.606 48.1171 57.58 47.9331 57.58H47.0871V56.8H47.9631C48.4031 56.8 48.7871 56.886 49.1151 57.058C49.4471 57.23 49.7051 57.474 49.8891 57.79C50.0731 58.102 50.1651 58.472 50.1651 58.9C50.1651 59.328 50.0731 59.7 49.8891 60.016C49.7051 60.328 49.4471 60.57 49.1151 60.742C48.7871 60.914 48.4031 61 47.9631 61Z" fill="#222222"/>
<path opacity="0.4" d="M36.115 40.3334H30.6667C29.3833 40.3334 28.3333 41.3834 28.3333 42.6667V49.6667H36.115V40.3334Z" fill="#222222"/>
<path d="M41.5517 35.6666H38.4367C37.1533 35.6666 36.1033 36.7166 36.1033 38V49.6666H43.885V38C43.885 36.7166 42.8467 35.6666 41.5517 35.6666Z" fill="#222222"/>
<path opacity="0.4" d="M49.3333 43.8334H43.885V49.6667H51.6667V46.1667C51.6667 44.8834 50.6167 43.8334 49.3333 43.8334Z" fill="#222222"/>
<path d="M43.5117 29.6584C43.8733 29.2967 44.0133 28.865 43.8967 28.4917C43.78 28.1184 43.4183 27.85 42.905 27.7684L41.785 27.5817C41.7383 27.57 41.6333 27.5 41.61 27.4533L40.9917 26.2167C40.525 25.2717 39.4633 25.2717 38.9967 26.2167L38.3783 27.4533C38.355 27.5 38.25 27.57 38.2033 27.5817L37.0833 27.7684C36.57 27.85 36.22 28.1184 36.0917 28.4917C35.975 28.865 36.115 29.2967 36.4767 29.6584L37.34 30.5334C37.375 30.5684 37.4217 30.7084 37.41 30.755L37.165 31.8283C36.9783 32.6217 37.2817 32.9833 37.48 33.135C37.6783 33.275 38.11 33.4617 38.8217 33.0417L39.8717 32.4234C39.9183 32.3884 40.07 32.3884 40.1167 32.4234L41.1667 33.0417C41.4933 33.24 41.7617 33.2984 41.9717 33.2984C42.2167 33.2984 42.3917 33.205 42.4967 33.135C42.695 32.995 42.9983 32.6333 42.8117 31.8283L42.5667 30.755C42.555 30.6967 42.59 30.5684 42.6367 30.5334L43.5117 29.6584Z" fill="#222222"/>
</g>
<defs>
<filter id="filter0_bd_76_881" x="-44" y="-43.3965" width="167" height="172.793" filterUnits="userSpaceOnUse" color-interpolation-filters="sRGB">
<feFlood flood-opacity="0" result="BackgroundImageFix"/>
<feGaussianBlur in="BackgroundImageFix" stdDeviation="27"/>
<feComposite in2="SourceAlpha" operator="in" result="effect1_backgroundBlur_76_881"/>
<feColorMatrix in="SourceAlpha" type="matrix" values="0 0 0 0 0 0 0 0 0 0 0 0 0 0 0 0 0 0 127 0" result="hardAlpha"/>
<feOffset/>
<feGaussianBlur stdDeviation="5"/>
<feComposite in2="hardAlpha" operator="out"/>
<feColorMatrix type="matrix" values="0 0 0 0 0 0 0 0 0 0 0 0 0 0 0 0 0 0 0.3 0"/>
<feBlend mode="normal" in2="effect1_backgroundBlur_76_881" result="effect2_dropShadow_76_881"/>
<feBlend mode="normal" in="SourceGraphic" in2="effect2_dropShadow_76_881" result="shape"/>
</filter>
<filter id="filter1_b_76_881" x="-41" y="-39.4257" width="161" height="163.965" filterUnits="userSpaceOnUse" color-interpolation-filters="sRGB">
<feFlood flood-opacity="0" result="BackgroundImageFix"/>
<feGaussianBlur in="BackgroundImageFix" stdDeviation="27"/>
<feComposite in2="SourceAlpha" operator="in" result="effect1_backgroundBlur_76_881"/>
<feBlend mode="normal" in="SourceGraphic" in2="effect1_backgroundBlur_76_881" result="shape"/>
</filter>
<linearGradient id="paint0_linear_76_881" x1="72.2065" y1="1.91304" x2="47.2883" y2="-19.435" gradientUnits="userSpaceOnUse">
<stop stop-color="white" stop-opacity="0"/>
<stop offset="1" stop-color="white"/>
</linearGradient>
<linearGradient id="paint1_linear_76_881" x1="55.5326" y1="78" x2="36.801" y2="62.6329" gradientUnits="userSpaceOnUse">
<stop stop-color="white"/>
<stop offset="1" stop-color="white" stop-opacity="0"/>
</linearGradient>
<linearGradient id="paint2_linear_76_881" x1="68.8804" y1="6.69565" x2="47.0744" y2="-12.5623" gradientUnits="userSpaceOnUse">
<stop stop-color="white" stop-opacity="0"/>
<stop offset="1" stop-color="white"/>
</linearGradient>
<linearGradient id="paint3_linear_76_881" x1="53.9022" y1="73" x2="37.489" y2="59.1196" gradientUnits="userSpaceOnUse">
<stop stop-color="white"/>
<stop offset="1" stop-color="white" stop-opacity="0"/>
</linearGradient>
</defs>
</svg>
