<svg viewBox="0 0 79 86" fill="none" xmlns="http://www.w3.org/2000/svg" style="height: 21vw">
<g filter="url(#filter0_bd_1_474)">
<path d="M26.4388 15.7481C31.1905 12.9294 33.5663 11.52 36.0994 10.969C38.3403 10.4816 40.6597 10.4816 42.9005 10.969C45.4337 11.52 47.8095 12.9294 52.5612 15.7482L56.4612 18.0617C61.0322 20.7733 63.3177 22.1292 64.9785 24.0046C66.4481 25.6642 67.5568 27.611 68.2343 29.7217C69 32.1069 69 34.7643 69 40.0791V45.9209C69 51.2357 69 53.8931 68.2343 56.2783C67.5568 58.389 66.4481 60.3358 64.9785 61.9954C63.3177 63.8708 61.0322 65.2267 56.4612 67.9383L52.5612 70.2519C47.8095 73.0706 45.4337 74.48 42.9005 75.031C40.6597 75.5184 38.3403 75.5184 36.0994 75.031C33.5663 74.48 31.1905 73.0706 26.4388 70.2519L22.5388 67.9383C17.9678 65.2267 15.6823 63.8708 14.0215 61.9954C12.5519 60.3358 11.4432 58.389 10.7657 56.2783C10 53.8931 10 51.2357 10 45.9209V40.0791C10 34.7643 10 32.1069 10.7657 29.7217C11.4432 27.611 12.5519 25.6642 14.0215 24.0046C15.6823 22.1292 17.9678 20.7733 22.5388 18.0617L26.4388 15.7481Z" fill="black" fill-opacity="0.1" shape-rendering="crispEdges"/>
<path d="M26.5664 15.9632C31.333 13.1355 33.6685 11.7536 36.1526 11.2133C38.3584 10.7335 40.6416 10.7335 42.8474 11.2133C45.3315 11.7536 47.667 13.1355 52.4336 15.9632L56.3336 18.2767C60.919 20.9968 63.1627 22.3312 64.7913 24.1703C66.238 25.804 67.3294 27.7204 67.9963 29.7981C68.7472 32.1372 68.75 34.7477 68.75 40.0791V45.9209C68.75 51.2523 68.7472 53.8628 67.9963 56.2019C67.3294 58.2796 66.238 60.196 64.7913 61.8297C63.1627 63.6688 60.919 65.0032 56.3336 67.7233L52.4336 70.0368C47.667 72.8645 45.3315 74.2464 42.8474 74.7867C40.6416 75.2665 38.3584 75.2665 36.1526 74.7867C33.6685 74.2464 31.333 72.8645 26.5664 70.0368L22.6664 67.7233C18.081 65.0032 15.8373 63.6688 14.2087 61.8297C12.762 60.196 11.6706 58.2796 11.0037 56.2019C10.2528 53.8628 10.25 51.2523 10.25 45.9209V40.0791C10.25 34.7477 10.2528 32.1372 11.0037 29.7981C11.6706 27.7204 12.762 25.804 14.2087 24.1703C15.8373 22.3312 18.081 20.9968 22.6664 18.2767L26.5664 15.9632Z" stroke="url(#paint0_linear_1_474)" stroke-width="0.5" shape-rendering="crispEdges"/>
<path d="M26.5664 15.9632C31.333 13.1355 33.6685 11.7536 36.1526 11.2133C38.3584 10.7335 40.6416 10.7335 42.8474 11.2133C45.3315 11.7536 47.667 13.1355 52.4336 15.9632L56.3336 18.2767C60.919 20.9968 63.1627 22.3312 64.7913 24.1703C66.238 25.804 67.3294 27.7204 67.9963 29.7981C68.7472 32.1372 68.75 34.7477 68.75 40.0791V45.9209C68.75 51.2523 68.7472 53.8628 67.9963 56.2019C67.3294 58.2796 66.238 60.196 64.7913 61.8297C63.1627 63.6688 60.919 65.0032 56.3336 67.7233L52.4336 70.0368C47.667 72.8645 45.3315 74.2464 42.8474 74.7867C40.6416 75.2665 38.3584 75.2665 36.1526 74.7867C33.6685 74.2464 31.333 72.8645 26.5664 70.0368L22.6664 67.7233C18.081 65.0032 15.8373 63.6688 14.2087 61.8297C12.762 60.196 11.6706 58.2796 11.0037 56.2019C10.2528 53.8628 10.25 51.2523 10.25 45.9209V40.0791C10.25 34.7477 10.2528 32.1372 11.0037 29.7981C11.6706 27.7204 12.762 25.804 14.2087 24.1703C15.8373 22.3312 18.081 20.9968 22.6664 18.2767L26.5664 15.9632Z" stroke="url(#paint1_linear_1_474)" stroke-width="0.5" shape-rendering="crispEdges"/>
</g>
<g filter="url(#filter1_bd_1_474)">
<path d="M29.8083 17.8561C33.3352 15.725 35.0987 14.6595 36.9852 14.23C38.6542 13.8501 40.3851 13.8316 42.0618 14.1758C43.9571 14.5649 45.7429 15.5926 49.3144 17.6479L56.3765 21.712C59.8821 23.7293 61.6349 24.738 62.9098 26.1511C64.0378 27.4014 64.8901 28.8751 65.4111 30.4765C66 32.2863 66 34.3086 66 38.3532V46.6468C66 50.6914 66 52.7137 65.4111 54.5235C64.8901 56.1248 64.0378 57.5986 62.9098 58.8489C61.6349 60.262 59.8821 61.2707 56.3765 63.288L49.0765 67.489C45.5872 69.497 43.8425 70.501 41.9883 70.894C40.3477 71.2418 38.6523 71.2418 37.0117 70.894C35.1575 70.501 33.4128 69.497 29.9235 67.489L22.6235 63.288C19.1179 61.2707 17.3651 60.262 16.0902 58.8489C14.9622 57.5986 14.1099 56.1248 13.5889 54.5235C13 52.7137 13 50.6914 13 46.6468V38.8439C13 34.8935 13 32.9183 13.5653 31.1422C14.0657 29.5705 14.8846 28.1188 15.9711 26.8778C17.1988 25.4754 18.8893 24.4539 22.2704 22.4109L29.8083 17.8561Z" fill="black" fill-opacity="0.7" shape-rendering="crispEdges"/>
<path d="M29.9376 18.0701C33.4793 15.9301 35.2028 14.8922 37.0407 14.4738C38.6749 14.1018 40.3698 14.0837 42.0115 14.4207C43.8579 14.7998 45.6032 15.8007 49.1898 17.8646L56.2519 21.9287C59.7721 23.9544 61.4822 24.9419 62.7242 26.3186C63.8287 27.5428 64.6632 28.9859 65.1734 30.5538C65.7471 32.317 65.75 34.2917 65.75 38.3532V46.6468C65.75 50.7083 65.7471 52.683 65.1734 54.4462C64.6632 56.0141 63.8287 57.4571 62.7242 58.6814C61.4822 60.0581 59.7721 61.0455 56.2519 63.0713L48.9519 67.2723C45.4479 69.2887 43.7429 70.2666 41.9365 70.6495C40.33 70.99 38.67 70.99 37.0635 70.6495C35.2571 70.2666 33.5521 69.2887 30.0481 67.2723L22.7481 63.0713C19.2279 61.0456 17.5178 60.0581 16.2758 58.6814C15.1713 57.4571 14.3368 56.0141 13.8266 54.4462C13.2529 52.683 13.25 50.7083 13.25 46.6468V38.8439C13.25 34.877 13.2528 32.9483 13.8036 31.2181C14.2935 29.6791 15.0953 28.2576 16.1592 27.0425C17.3552 25.6762 19.0045 24.6764 22.3997 22.6249L29.9376 18.0701Z" stroke="url(#paint2_linear_1_474)" stroke-width="0.5" shape-rendering="crispEdges"/>
<path d="M29.9376 18.0701C33.4793 15.9301 35.2028 14.8922 37.0407 14.4738C38.6749 14.1018 40.3698 14.0837 42.0115 14.4207C43.8579 14.7998 45.6032 15.8007 49.1898 17.8646L56.2519 21.9287C59.7721 23.9544 61.4822 24.9419 62.7242 26.3186C63.8287 27.5428 64.6632 28.9859 65.1734 30.5538C65.7471 32.317 65.75 34.2917 65.75 38.3532V46.6468C65.75 50.7083 65.7471 52.683 65.1734 54.4462C64.6632 56.0141 63.8287 57.4571 62.7242 58.6814C61.4822 60.0581 59.7721 61.0455 56.2519 63.0713L48.9519 67.2723C45.4479 69.2887 43.7429 70.2666 41.9365 70.6495C40.33 70.99 38.67 70.99 37.0635 70.6495C35.2571 70.2666 33.5521 69.2887 30.0481 67.2723L22.7481 63.0713C19.2279 61.0456 17.5178 60.0581 16.2758 58.6814C15.1713 57.4571 14.3368 56.0141 13.8266 54.4462C13.2529 52.683 13.25 50.7083 13.25 46.6468V38.8439C13.25 34.877 13.2528 32.9483 13.8036 31.2181C14.2935 29.6791 15.0953 28.2576 16.1592 27.0425C17.3552 25.6762 19.0045 24.6764 22.3997 22.6249L29.9376 18.0701Z" stroke="url(#paint3_linear_1_474)" stroke-width="0.5" shape-rendering="crispEdges"/>
</g>
<g opacity="0.5">
<path d="M30.724 58.87V58.48H31.402C31.526 58.48 31.634 58.46 31.726 58.42C31.818 58.38 31.888 58.322 31.936 58.246C31.988 58.17 32.014 58.08 32.014 57.976C32.014 57.816 31.958 57.694 31.846 57.61C31.738 57.526 31.59 57.484 31.402 57.484H30.94V60.316H31.492C31.636 60.316 31.766 60.296 31.882 60.256C31.998 60.212 32.088 60.144 32.152 60.052C32.22 59.96 32.254 59.842 32.254 59.698C32.254 59.594 32.234 59.506 32.194 59.434C32.158 59.358 32.104 59.296 32.032 59.248C31.964 59.196 31.884 59.16 31.792 59.14C31.7 59.116 31.6 59.104 31.492 59.104H30.724V58.636H31.57C31.774 58.636 31.968 58.658 32.152 58.702C32.34 58.746 32.508 58.816 32.656 58.912C32.804 59.004 32.92 59.124 33.004 59.272C33.092 59.42 33.136 59.598 33.136 59.806C33.136 60.082 33.07 60.308 32.938 60.484C32.81 60.66 32.628 60.79 32.392 60.874C32.156 60.958 31.882 61 31.57 61H30.082V56.8H31.48C31.76 56.8 32.006 56.84 32.218 56.92C32.43 56.996 32.596 57.112 32.716 57.268C32.836 57.424 32.896 57.622 32.896 57.862C32.896 58.074 32.836 58.256 32.716 58.408C32.596 58.56 32.43 58.676 32.218 58.756C32.006 58.832 31.76 58.87 31.48 58.87H30.724ZM34.5331 58.9C34.5331 59.168 34.5891 59.406 34.7011 59.614C34.8131 59.822 34.9671 59.986 35.1631 60.106C35.3591 60.226 35.5871 60.286 35.8471 60.286C36.1071 60.286 36.3351 60.226 36.5311 60.106C36.7271 59.986 36.8791 59.822 36.9871 59.614C37.0991 59.406 37.1551 59.168 37.1551 58.9C37.1551 58.632 37.1011 58.394 36.9931 58.186C36.8851 57.978 36.7331 57.814 36.5371 57.694C36.3411 57.574 36.1111 57.514 35.8471 57.514C35.5871 57.514 35.3591 57.574 35.1631 57.694C34.9671 57.814 34.8131 57.978 34.7011 58.186C34.5891 58.394 34.5331 58.632 34.5331 58.9ZM33.6271 58.9C33.6271 58.58 33.6831 58.288 33.7951 58.024C33.9071 57.756 34.0631 57.524 34.2631 57.328C34.4631 57.132 34.6971 56.982 34.9651 56.878C35.2371 56.77 35.5311 56.716 35.8471 56.716C36.1671 56.716 36.4611 56.77 36.7291 56.878C36.9971 56.982 37.2311 57.132 37.4311 57.328C37.6351 57.524 37.7911 57.756 37.8991 58.024C38.0111 58.288 38.0671 58.58 38.0671 58.9C38.0671 59.216 38.0111 59.51 37.8991 59.782C37.7911 60.05 37.6371 60.284 37.4371 60.484C37.2411 60.684 37.0071 60.84 36.7351 60.952C36.4671 61.06 36.1711 61.114 35.8471 61.114C35.5231 61.114 35.2251 61.06 34.9531 60.952C34.6851 60.84 34.4511 60.684 34.2511 60.484C34.0511 60.284 33.8971 60.05 33.7891 59.782C33.6811 59.51 33.6271 59.216 33.6271 58.9ZM39.1308 60.046L39.2328 59.368H41.2488L41.3508 60.046H39.1308ZM40.2288 58.162L39.5988 59.608L39.6168 59.8L39.0648 61H38.0988L40.2288 56.554L42.3588 61H41.3868L40.8468 59.836L40.8588 59.62L40.2288 58.162ZM43.7684 59.044H44.6744L46.0424 61H45.0284L43.7684 59.044ZM42.8144 56.8H43.6724V61H42.8144V56.8ZM43.3364 57.532V56.8H44.2244C44.5564 56.8 44.8384 56.856 45.0704 56.968C45.3024 57.08 45.4804 57.236 45.6044 57.436C45.7284 57.636 45.7904 57.87 45.7904 58.138C45.7904 58.402 45.7284 58.636 45.6044 58.84C45.4804 59.04 45.3024 59.196 45.0704 59.308C44.8384 59.42 44.5564 59.476 44.2244 59.476H43.3364V58.792H44.1704C44.3224 58.792 44.4524 58.768 44.5604 58.72C44.6724 58.668 44.7584 58.596 44.8184 58.504C44.8784 58.408 44.9084 58.294 44.9084 58.162C44.9084 58.03 44.8784 57.918 44.8184 57.826C44.7584 57.73 44.6724 57.658 44.5604 57.61C44.4524 57.558 44.3224 57.532 44.1704 57.532H43.3364ZM46.5351 56.8H47.4111V61H46.5351V56.8ZM47.9631 61H47.0871V60.22H47.9331C48.1171 60.22 48.2911 60.196 48.4551 60.148C48.6191 60.096 48.7631 60.016 48.8871 59.908C49.0111 59.8 49.1071 59.664 49.1751 59.5C49.2471 59.332 49.2831 59.132 49.2831 58.9C49.2831 58.668 49.2471 58.47 49.1751 58.306C49.1071 58.138 49.0111 58 48.8871 57.892C48.7631 57.784 48.6191 57.706 48.4551 57.658C48.2911 57.606 48.1171 57.58 47.9331 57.58H47.0871V56.8H47.9631C48.4031 56.8 48.7871 56.886 49.1151 57.058C49.4471 57.23 49.7051 57.474 49.8891 57.79C50.0731 58.102 50.1651 58.472 50.1651 58.9C50.1651 59.328 50.0731 59.7 49.8891 60.016C49.7051 60.328 49.4471 60.57 49.1151 60.742C48.7871 60.914 48.4031 61 47.9631 61Z" fill="white"/>
<path opacity="0.4" d="M36.115 40.3333H30.6667C29.3833 40.3333 28.3333 41.3833 28.3333 42.6667V49.6667H36.115V40.3333Z" fill="white"/>
<path d="M41.5517 35.6667H38.4367C37.1533 35.6667 36.1033 36.7167 36.1033 38V49.6667H43.885V38C43.885 36.7167 42.8467 35.6667 41.5517 35.6667Z" fill="white"/>
<path opacity="0.4" d="M49.3333 43.8333H43.885V49.6667H51.6667V46.1667C51.6667 44.8833 50.6167 43.8333 49.3333 43.8333Z" fill="white"/>
<path d="M43.5117 29.6583C43.8733 29.2967 44.0133 28.865 43.8967 28.4917C43.78 28.1183 43.4183 27.85 42.905 27.7683L41.785 27.5817C41.7383 27.57 41.6333 27.5 41.61 27.4533L40.9917 26.2167C40.525 25.2717 39.4633 25.2717 38.9967 26.2167L38.3783 27.4533C38.355 27.5 38.25 27.57 38.2033 27.5817L37.0833 27.7683C36.57 27.85 36.22 28.1183 36.0917 28.4917C35.975 28.865 36.115 29.2967 36.4767 29.6583L37.34 30.5333C37.375 30.5683 37.4217 30.7083 37.41 30.755L37.165 31.8283C36.9783 32.6217 37.2817 32.9833 37.48 33.135C37.6783 33.275 38.11 33.4617 38.8217 33.0417L39.8717 32.4233C39.9183 32.3883 40.07 32.3883 40.1167 32.4233L41.1667 33.0417C41.4933 33.24 41.7617 33.2983 41.9717 33.2983C42.2167 33.2983 42.3917 33.205 42.4967 33.135C42.695 32.995 42.9983 32.6333 42.8117 31.8283L42.5667 30.755C42.555 30.6967 42.59 30.5683 42.6367 30.5333L43.5117 29.6583Z" fill="white"/>
</g>
<defs>
<filter id="filter0_bd_1_474" x="-44" y="-43.3965" width="167" height="172.793" filterUnits="userSpaceOnUse" color-interpolation-filters="sRGB">
<feFlood flood-opacity="0" result="BackgroundImageFix"/>
<feGaussianBlur in="BackgroundImageFix" stdDeviation="27"/>
<feComposite in2="SourceAlpha" operator="in" result="effect1_backgroundBlur_1_474"/>
<feColorMatrix in="SourceAlpha" type="matrix" values="0 0 0 0 0 0 0 0 0 0 0 0 0 0 0 0 0 0 127 0" result="hardAlpha"/>
<feOffset/>
<feGaussianBlur stdDeviation="5"/>
<feComposite in2="hardAlpha" operator="out"/>
<feColorMatrix type="matrix" values="0 0 0 0 0 0 0 0 0 0 0 0 0 0 0 0 0 0 0.8 0"/>
<feBlend mode="normal" in2="effect1_backgroundBlur_1_474" result="effect2_dropShadow_1_474"/>
<feBlend mode="normal" in="SourceGraphic" in2="effect2_dropShadow_1_474" result="shape"/>
</filter>
<filter id="filter1_bd_1_474" x="-41" y="-40.0693" width="161" height="165.224" filterUnits="userSpaceOnUse" color-interpolation-filters="sRGB">
<feFlood flood-opacity="0" result="BackgroundImageFix"/>
<feGaussianBlur in="BackgroundImageFix" stdDeviation="27"/>
<feComposite in2="SourceAlpha" operator="in" result="effect1_backgroundBlur_1_474"/>
<feColorMatrix in="SourceAlpha" type="matrix" values="0 0 0 0 0 0 0 0 0 0 0 0 0 0 0 0 0 0 127 0" result="hardAlpha"/>
<feOffset/>
<feGaussianBlur stdDeviation="5"/>
<feComposite in2="hardAlpha" operator="out"/>
<feColorMatrix type="matrix" values="0 0 0 0 0 0 0 0 0 0 0 0 0 0 0 0 0 0 0.8 0"/>
<feBlend mode="normal" in2="effect1_backgroundBlur_1_474" result="effect2_dropShadow_1_474"/>
<feBlend mode="normal" in="SourceGraphic" in2="effect2_dropShadow_1_474" result="shape"/>
</filter>
<linearGradient id="paint0_linear_1_474" x1="14.1201" y1="2.09638" x2="50.7462" y2="28.1362" gradientUnits="userSpaceOnUse">
<stop stop-color="#696969"/>
<stop offset="1" stop-color="#696969" stop-opacity="0"/>
</linearGradient>
<linearGradient id="paint1_linear_1_474" x1="68.2584" y1="78" x2="37.1106" y2="63.9669" gradientUnits="userSpaceOnUse">
<stop stop-color="#696969"/>
<stop offset="1" stop-color="#696969" stop-opacity="0"/>
</linearGradient>
<linearGradient id="paint2_linear_1_474" x1="14.0578" y1="3.29097" x2="49.6544" y2="29.7575" gradientUnits="userSpaceOnUse">
<stop stop-color="#696969"/>
<stop offset="1" stop-color="#696969" stop-opacity="0"/>
</linearGradient>
<linearGradient id="paint3_linear_1_474" x1="68.329" y1="76.05" x2="37.5905" y2="61.5673" gradientUnits="userSpaceOnUse">
<stop stop-color="#696969"/>
<stop offset="1" stop-color="#696969" stop-opacity="0"/>
</linearGradient>
</defs>
</svg>
