<svg viewBox="0 0 79 86" fill="none" xmlns="http://www.w3.org/2000/svg" style="height: 21vw">
<g filter="url(#filter0_bd_1_451)">
<path d="M26.4388 15.7481C31.1905 12.9294 33.5663 11.52 36.0994 10.969C38.3403 10.4816 40.6597 10.4816 42.9005 10.969C45.4337 11.52 47.8095 12.9294 52.5612 15.7482L56.4612 18.0617C61.0322 20.7733 63.3177 22.1292 64.9785 24.0046C66.4481 25.6642 67.5568 27.611 68.2343 29.7217C69 32.1069 69 34.7643 69 40.0791V45.9209C69 51.2357 69 53.8931 68.2343 56.2783C67.5568 58.389 66.4481 60.3358 64.9785 61.9954C63.3177 63.8708 61.0322 65.2267 56.4612 67.9383L52.5612 70.2519C47.8095 73.0706 45.4337 74.48 42.9005 75.031C40.6597 75.5184 38.3403 75.5184 36.0994 75.031C33.5663 74.48 31.1905 73.0706 26.4388 70.2519L22.5388 67.9383C17.9678 65.2267 15.6823 63.8708 14.0215 61.9954C12.5519 60.3358 11.4432 58.389 10.7657 56.2783C10 53.8931 10 51.2357 10 45.9209V40.0791C10 34.7643 10 32.1069 10.7657 29.7217C11.4432 27.611 12.5519 25.6642 14.0215 24.0046C15.6823 22.1292 17.9678 20.7733 22.5388 18.0617L26.4388 15.7481Z" fill="black" fill-opacity="0.1" shape-rendering="crispEdges"/>
<path d="M26.5664 15.9632C31.333 13.1355 33.6685 11.7536 36.1526 11.2133C38.3584 10.7335 40.6416 10.7335 42.8474 11.2133C45.3315 11.7536 47.667 13.1355 52.4336 15.9632L56.3336 18.2767C60.919 20.9968 63.1627 22.3312 64.7913 24.1703C66.238 25.804 67.3294 27.7204 67.9963 29.7981C68.7472 32.1372 68.75 34.7477 68.75 40.0791V45.9209C68.75 51.2523 68.7472 53.8628 67.9963 56.2019C67.3294 58.2796 66.238 60.196 64.7913 61.8297C63.1627 63.6688 60.919 65.0032 56.3336 67.7233L52.4336 70.0368C47.667 72.8645 45.3315 74.2464 42.8474 74.7867C40.6416 75.2665 38.3584 75.2665 36.1526 74.7867C33.6685 74.2464 31.333 72.8645 26.5664 70.0368L22.6664 67.7233C18.081 65.0032 15.8373 63.6688 14.2087 61.8297C12.762 60.196 11.6706 58.2796 11.0037 56.2019C10.2528 53.8628 10.25 51.2523 10.25 45.9209V40.0791C10.25 34.7477 10.2528 32.1372 11.0037 29.7981C11.6706 27.7204 12.762 25.804 14.2087 24.1703C15.8373 22.3312 18.081 20.9968 22.6664 18.2767L26.5664 15.9632Z" stroke="url(#paint0_linear_1_451)" stroke-width="0.5" shape-rendering="crispEdges"/>
<path d="M26.5664 15.9632C31.333 13.1355 33.6685 11.7536 36.1526 11.2133C38.3584 10.7335 40.6416 10.7335 42.8474 11.2133C45.3315 11.7536 47.667 13.1355 52.4336 15.9632L56.3336 18.2767C60.919 20.9968 63.1627 22.3312 64.7913 24.1703C66.238 25.804 67.3294 27.7204 67.9963 29.7981C68.7472 32.1372 68.75 34.7477 68.75 40.0791V45.9209C68.75 51.2523 68.7472 53.8628 67.9963 56.2019C67.3294 58.2796 66.238 60.196 64.7913 61.8297C63.1627 63.6688 60.919 65.0032 56.3336 67.7233L52.4336 70.0368C47.667 72.8645 45.3315 74.2464 42.8474 74.7867C40.6416 75.2665 38.3584 75.2665 36.1526 74.7867C33.6685 74.2464 31.333 72.8645 26.5664 70.0368L22.6664 67.7233C18.081 65.0032 15.8373 63.6688 14.2087 61.8297C12.762 60.196 11.6706 58.2796 11.0037 56.2019C10.2528 53.8628 10.25 51.2523 10.25 45.9209V40.0791C10.25 34.7477 10.2528 32.1372 11.0037 29.7981C11.6706 27.7204 12.762 25.804 14.2087 24.1703C15.8373 22.3312 18.081 20.9968 22.6664 18.2767L26.5664 15.9632Z" stroke="url(#paint1_linear_1_451)" stroke-width="0.5" shape-rendering="crispEdges"/>
</g>
<g filter="url(#filter1_bd_1_451)">
<path d="M29.8083 17.8561C33.3352 15.725 35.0987 14.6595 36.9852 14.23C38.6542 13.8501 40.3851 13.8316 42.0618 14.1758C43.9571 14.5649 45.7429 15.5926 49.3144 17.6479L56.3765 21.712C59.8821 23.7293 61.6349 24.738 62.9098 26.1511C64.0378 27.4014 64.8901 28.8751 65.4111 30.4765C66 32.2863 66 34.3086 66 38.3532V46.6468C66 50.6914 66 52.7137 65.4111 54.5235C64.8901 56.1248 64.0378 57.5986 62.9098 58.8489C61.6349 60.262 59.8821 61.2707 56.3765 63.288L49.0765 67.489C45.5872 69.497 43.8425 70.501 41.9883 70.894C40.3477 71.2418 38.6523 71.2418 37.0117 70.894C35.1575 70.501 33.4128 69.497 29.9235 67.489L22.6235 63.288C19.1179 61.2707 17.3651 60.262 16.0902 58.8489C14.9622 57.5986 14.1099 56.1248 13.5889 54.5235C13 52.7137 13 50.6914 13 46.6468V38.8439C13 34.8935 13 32.9183 13.5653 31.1422C14.0657 29.5705 14.8846 28.1188 15.9711 26.8778C17.1988 25.4754 18.8893 24.4539 22.2704 22.4109L29.8083 17.8561Z" fill="black" fill-opacity="0.7" shape-rendering="crispEdges"/>
<path d="M29.9376 18.0701C33.4793 15.9301 35.2028 14.8922 37.0407 14.4738C38.6749 14.1018 40.3698 14.0837 42.0115 14.4207C43.8579 14.7998 45.6032 15.8007 49.1898 17.8646L56.2519 21.9287C59.7721 23.9544 61.4822 24.9419 62.7242 26.3186C63.8287 27.5428 64.6632 28.9859 65.1734 30.5538C65.7471 32.317 65.75 34.2917 65.75 38.3532V46.6468C65.75 50.7083 65.7471 52.683 65.1734 54.4462C64.6632 56.0141 63.8287 57.4571 62.7242 58.6814C61.4822 60.0581 59.7721 61.0455 56.2519 63.0713L48.9519 67.2723C45.4479 69.2887 43.7429 70.2666 41.9365 70.6495C40.33 70.99 38.67 70.99 37.0635 70.6495C35.2571 70.2666 33.5521 69.2887 30.0481 67.2723L22.7481 63.0713C19.2279 61.0456 17.5178 60.0581 16.2758 58.6814C15.1713 57.4571 14.3368 56.0141 13.8266 54.4462C13.2529 52.683 13.25 50.7083 13.25 46.6468V38.8439C13.25 34.877 13.2528 32.9483 13.8036 31.2181C14.2935 29.6791 15.0953 28.2576 16.1592 27.0425C17.3552 25.6762 19.0045 24.6764 22.3997 22.6249L29.9376 18.0701Z" stroke="url(#paint2_linear_1_451)" stroke-width="0.5" shape-rendering="crispEdges"/>
<path d="M29.9376 18.0701C33.4793 15.9301 35.2028 14.8922 37.0407 14.4738C38.6749 14.1018 40.3698 14.0837 42.0115 14.4207C43.8579 14.7998 45.6032 15.8007 49.1898 17.8646L56.2519 21.9287C59.7721 23.9544 61.4822 24.9419 62.7242 26.3186C63.8287 27.5428 64.6632 28.9859 65.1734 30.5538C65.7471 32.317 65.75 34.2917 65.75 38.3532V46.6468C65.75 50.7083 65.7471 52.683 65.1734 54.4462C64.6632 56.0141 63.8287 57.4571 62.7242 58.6814C61.4822 60.0581 59.7721 61.0455 56.2519 63.0713L48.9519 67.2723C45.4479 69.2887 43.7429 70.2666 41.9365 70.6495C40.33 70.99 38.67 70.99 37.0635 70.6495C35.2571 70.2666 33.5521 69.2887 30.0481 67.2723L22.7481 63.0713C19.2279 61.0456 17.5178 60.0581 16.2758 58.6814C15.1713 57.4571 14.3368 56.0141 13.8266 54.4462C13.2529 52.683 13.25 50.7083 13.25 46.6468V38.8439C13.25 34.877 13.2528 32.9483 13.8036 31.2181C14.2935 29.6791 15.0953 28.2576 16.1592 27.0425C17.3552 25.6762 19.0045 24.6764 22.3997 22.6249L29.9376 18.0701Z" stroke="url(#paint3_linear_1_451)" stroke-width="0.5" shape-rendering="crispEdges"/>
</g>
<mask id="mask0_1_451" style="mask-type:alpha" maskUnits="userSpaceOnUse" x="13" y="13" width="53" height="59">
<path d="M29.9376 18.0701C33.4793 15.9301 35.2028 14.8922 37.0407 14.4738C38.6749 14.1018 40.3698 14.0837 42.0115 14.4207C43.8579 14.7998 45.6032 15.8007 49.1898 17.8646L56.2519 21.9287C59.7721 23.9544 61.4822 24.9419 62.7242 26.3186C63.8287 27.5428 64.6632 28.9859 65.1734 30.5538C65.7471 32.317 65.75 34.2917 65.75 38.3532V46.6468C65.75 50.7083 65.7471 52.683 65.1734 54.4462C64.6632 56.0141 63.8287 57.4571 62.7242 58.6814C61.4822 60.0581 59.7721 61.0455 56.2519 63.0713L48.9519 67.2723C45.4479 69.2887 43.7429 70.2666 41.9365 70.6495C40.33 70.99 38.67 70.99 37.0635 70.6495C35.2571 70.2666 33.5521 69.2887 30.0481 67.2723L22.7481 63.0713C19.2279 61.0456 17.5178 60.0581 16.2758 58.6814C15.1713 57.4571 14.3368 56.0141 13.8266 54.4462C13.2529 52.683 13.25 50.7083 13.25 46.6468V38.8439C13.25 34.877 13.2528 32.9483 13.8036 31.2181C14.2935 29.6791 15.0953 28.2576 16.1592 27.0425C17.3552 25.6762 19.0045 24.6764 22.3997 22.6249L29.9376 18.0701Z" fill="black" fill-opacity="0.7"/>
<path d="M29.9376 18.0701C33.4793 15.9301 35.2028 14.8922 37.0407 14.4738C38.6749 14.1018 40.3698 14.0837 42.0115 14.4207C43.8579 14.7998 45.6032 15.8007 49.1898 17.8646L56.2519 21.9287C59.7721 23.9544 61.4822 24.9419 62.7242 26.3186C63.8287 27.5428 64.6632 28.9859 65.1734 30.5538C65.7471 32.317 65.75 34.2917 65.75 38.3532V46.6468C65.75 50.7083 65.7471 52.683 65.1734 54.4462C64.6632 56.0141 63.8287 57.4571 62.7242 58.6814C61.4822 60.0581 59.7721 61.0455 56.2519 63.0713L48.9519 67.2723C45.4479 69.2887 43.7429 70.2666 41.9365 70.6495C40.33 70.99 38.67 70.99 37.0635 70.6495C35.2571 70.2666 33.5521 69.2887 30.0481 67.2723L22.7481 63.0713C19.2279 61.0456 17.5178 60.0581 16.2758 58.6814C15.1713 57.4571 14.3368 56.0141 13.8266 54.4462C13.2529 52.683 13.25 50.7083 13.25 46.6468V38.8439C13.25 34.877 13.2528 32.9483 13.8036 31.2181C14.2935 29.6791 15.0953 28.2576 16.1592 27.0425C17.3552 25.6762 19.0045 24.6764 22.3997 22.6249L29.9376 18.0701Z" stroke="url(#paint4_linear_1_451)" stroke-width="0.5"/>
<path d="M29.9376 18.0701C33.4793 15.9301 35.2028 14.8922 37.0407 14.4738C38.6749 14.1018 40.3698 14.0837 42.0115 14.4207C43.8579 14.7998 45.6032 15.8007 49.1898 17.8646L56.2519 21.9287C59.7721 23.9544 61.4822 24.9419 62.7242 26.3186C63.8287 27.5428 64.6632 28.9859 65.1734 30.5538C65.7471 32.317 65.75 34.2917 65.75 38.3532V46.6468C65.75 50.7083 65.7471 52.683 65.1734 54.4462C64.6632 56.0141 63.8287 57.4571 62.7242 58.6814C61.4822 60.0581 59.7721 61.0455 56.2519 63.0713L48.9519 67.2723C45.4479 69.2887 43.7429 70.2666 41.9365 70.6495C40.33 70.99 38.67 70.99 37.0635 70.6495C35.2571 70.2666 33.5521 69.2887 30.0481 67.2723L22.7481 63.0713C19.2279 61.0456 17.5178 60.0581 16.2758 58.6814C15.1713 57.4571 14.3368 56.0141 13.8266 54.4462C13.2529 52.683 13.25 50.7083 13.25 46.6468V38.8439C13.25 34.877 13.2528 32.9483 13.8036 31.2181C14.2935 29.6791 15.0953 28.2576 16.1592 27.0425C17.3552 25.6762 19.0045 24.6764 22.3997 22.6249L29.9376 18.0701Z" stroke="url(#paint5_linear_1_451)" stroke-width="0.5"/>
</mask>
<g mask="url(#mask0_1_451)">
<circle opacity="0.2" cx="40" cy="42" r="20" stroke="url(#paint6_radial_1_451)" stroke-width="36" stroke-dasharray="10 10"/>
<g filter="url(#filter2_f_1_451)">
<path d="M71 59L38.8679 77.3612L7.8833 59L27.3921 84.2467L51.1087 84.2467L71 59Z" fill="#35FFFC"/>
</g>
<g filter="url(#filter3_f_1_451)">
<path d="M71 24.2467L38.8679 5.88545L7.8833 24.2467L27.3921 -1L51.1087 -1.00001L71 24.2467Z" fill="#35FFFC"/>
</g>
</g>
<path d="M31.6589 59.152V58.378H34.7429V59.152H31.6589ZM34.1969 56.8H35.0549V61H34.1969V56.8ZM31.3769 56.8H32.2349V61H31.3769V56.8ZM36.6249 58.9C36.6249 59.168 36.6809 59.406 36.7929 59.614C36.9049 59.822 37.0589 59.986 37.2549 60.106C37.4509 60.226 37.6789 60.286 37.9389 60.286C38.1989 60.286 38.4269 60.226 38.6229 60.106C38.8189 59.986 38.9709 59.822 39.0789 59.614C39.1909 59.406 39.2469 59.168 39.2469 58.9C39.2469 58.632 39.1929 58.394 39.0849 58.186C38.9769 57.978 38.8249 57.814 38.6289 57.694C38.4329 57.574 38.2029 57.514 37.9389 57.514C37.6789 57.514 37.4509 57.574 37.2549 57.694C37.0589 57.814 36.9049 57.978 36.7929 58.186C36.6809 58.394 36.6249 58.632 36.6249 58.9ZM35.7189 58.9C35.7189 58.58 35.7749 58.288 35.8869 58.024C35.9989 57.756 36.1549 57.524 36.3549 57.328C36.5549 57.132 36.7889 56.982 37.0569 56.878C37.3289 56.77 37.6229 56.716 37.9389 56.716C38.2589 56.716 38.5529 56.77 38.8209 56.878C39.0889 56.982 39.3229 57.132 39.5229 57.328C39.7269 57.524 39.8829 57.756 39.9909 58.024C40.1029 58.288 40.1589 58.58 40.1589 58.9C40.1589 59.216 40.1029 59.51 39.9909 59.782C39.8829 60.05 39.7289 60.284 39.5289 60.484C39.3329 60.684 39.0989 60.84 38.8269 60.952C38.5589 61.06 38.2629 61.114 37.9389 61.114C37.6149 61.114 37.3169 61.06 37.0449 60.952C36.7769 60.84 36.5429 60.684 36.3429 60.484C36.1429 60.284 35.9889 60.05 35.8809 59.782C35.7729 59.51 35.7189 59.216 35.7189 58.9ZM41.7462 58.642L41.4762 61H40.5822L41.2062 56.59L42.9642 59.302L44.7222 56.59L45.3462 61H44.4522L44.1822 58.642L42.9642 60.61L41.7462 58.642ZM46.5715 61V60.274H48.6895V61H46.5715ZM46.5715 57.526V56.8H48.6895V57.526H46.5715ZM46.5715 59.128V58.414H48.5695V59.128H46.5715ZM46.0195 56.8H46.8475V61H46.0195V56.8Z" fill="#35FFFC"/>
<path d="M49.38 31.9567L42.66 27.255C40.8283 25.9717 38.0167 26.0417 36.255 27.4067L30.41 31.9683C29.2433 32.8783 28.3217 34.745 28.3217 36.215V44.265C28.3217 47.24 30.7367 49.6667 33.7117 49.6667H46.2883C49.2633 49.6667 51.6783 47.2517 51.6783 44.2767V36.3667C51.6783 34.7917 50.6633 32.855 49.38 31.9567Z" fill="#057270"/>
<path d="M40 45.875C39.5217 45.875 39.125 45.4783 39.125 45V41.5C39.125 41.0217 39.5217 40.625 40 40.625C40.4783 40.625 40.875 41.0217 40.875 41.5V45C40.875 45.4783 40.4783 45.875 40 45.875Z" fill="#35FFFC"/>
<defs>
<filter id="filter0_bd_1_451" x="-44" y="-43.3965" width="167" height="172.793" filterUnits="userSpaceOnUse" color-interpolation-filters="sRGB">
<feFlood flood-opacity="0" result="BackgroundImageFix"/>
<feGaussianBlur in="BackgroundImageFix" stdDeviation="27"/>
<feComposite in2="SourceAlpha" operator="in" result="effect1_backgroundBlur_1_451"/>
<feColorMatrix in="SourceAlpha" type="matrix" values="0 0 0 0 0 0 0 0 0 0 0 0 0 0 0 0 0 0 127 0" result="hardAlpha"/>
<feOffset/>
<feGaussianBlur stdDeviation="5"/>
<feComposite in2="hardAlpha" operator="out"/>
<feColorMatrix type="matrix" values="0 0 0 0 0 0 0 0 0 0 0 0 0 0 0 0 0 0 0.8 0"/>
<feBlend mode="normal" in2="effect1_backgroundBlur_1_451" result="effect2_dropShadow_1_451"/>
<feBlend mode="normal" in="SourceGraphic" in2="effect2_dropShadow_1_451" result="shape"/>
</filter>
<filter id="filter1_bd_1_451" x="-41" y="-40.0693" width="161" height="165.224" filterUnits="userSpaceOnUse" color-interpolation-filters="sRGB">
<feFlood flood-opacity="0" result="BackgroundImageFix"/>
<feGaussianBlur in="BackgroundImageFix" stdDeviation="27"/>
<feComposite in2="SourceAlpha" operator="in" result="effect1_backgroundBlur_1_451"/>
<feColorMatrix in="SourceAlpha" type="matrix" values="0 0 0 0 0 0 0 0 0 0 0 0 0 0 0 0 0 0 127 0" result="hardAlpha"/>
<feOffset/>
<feGaussianBlur stdDeviation="5"/>
<feComposite in2="hardAlpha" operator="out"/>
<feColorMatrix type="matrix" values="0 0 0 0 0 0 0 0 0 0 0 0 0 0 0 0 0 0 0.8 0"/>
<feBlend mode="normal" in2="effect1_backgroundBlur_1_451" result="effect2_dropShadow_1_451"/>
<feBlend mode="normal" in="SourceGraphic" in2="effect2_dropShadow_1_451" result="shape"/>
</filter>
<filter id="filter2_f_1_451" x="-16.1167" y="35" width="111.117" height="73.2467" filterUnits="userSpaceOnUse" color-interpolation-filters="sRGB">
<feFlood flood-opacity="0" result="BackgroundImageFix"/>
<feBlend mode="normal" in="SourceGraphic" in2="BackgroundImageFix" result="shape"/>
<feGaussianBlur stdDeviation="12" result="effect1_foregroundBlur_1_451"/>
</filter>
<filter id="filter3_f_1_451" x="-16.1167" y="-25" width="111.117" height="73.2467" filterUnits="userSpaceOnUse" color-interpolation-filters="sRGB">
<feFlood flood-opacity="0" result="BackgroundImageFix"/>
<feBlend mode="normal" in="SourceGraphic" in2="BackgroundImageFix" result="shape"/>
<feGaussianBlur stdDeviation="12" result="effect1_foregroundBlur_1_451"/>
</filter>
<linearGradient id="paint0_linear_1_451" x1="14.1201" y1="2.09638" x2="50.7462" y2="28.1362" gradientUnits="userSpaceOnUse">
<stop stop-color="#696969"/>
<stop offset="1" stop-color="#696969" stop-opacity="0"/>
</linearGradient>
<linearGradient id="paint1_linear_1_451" x1="68.2584" y1="78" x2="37.1106" y2="63.9669" gradientUnits="userSpaceOnUse">
<stop stop-color="#696969"/>
<stop offset="1" stop-color="#696969" stop-opacity="0"/>
</linearGradient>
<linearGradient id="paint2_linear_1_451" x1="14.0578" y1="3.29097" x2="49.6544" y2="29.7575" gradientUnits="userSpaceOnUse">
<stop stop-color="#696969"/>
<stop offset="1" stop-color="#696969" stop-opacity="0"/>
</linearGradient>
<linearGradient id="paint3_linear_1_451" x1="68.329" y1="76.05" x2="37.5905" y2="61.5673" gradientUnits="userSpaceOnUse">
<stop stop-color="#696969"/>
<stop offset="1" stop-color="#696969" stop-opacity="0"/>
</linearGradient>
<linearGradient id="paint4_linear_1_451" x1="14.0578" y1="3.29097" x2="49.6544" y2="29.7575" gradientUnits="userSpaceOnUse">
<stop stop-color="#696969"/>
<stop offset="1" stop-color="#696969" stop-opacity="0"/>
</linearGradient>
<linearGradient id="paint5_linear_1_451" x1="68.329" y1="76.05" x2="37.5905" y2="61.5673" gradientUnits="userSpaceOnUse">
<stop stop-color="#696969"/>
<stop offset="1" stop-color="#696969" stop-opacity="0"/>
</linearGradient>
<radialGradient id="paint6_radial_1_451" cx="0" cy="0" r="1" gradientUnits="userSpaceOnUse" gradientTransform="translate(40 42) rotate(90) scale(33.652)">
<stop stop-color="#35FFFC"/>
<stop offset="1" stop-color="#35FFFC" stop-opacity="0"/>
</radialGradient>
</defs>
</svg>
