<svg viewBox="0 0 79 86" fill="none" xmlns="http://www.w3.org/2000/svg" style="height: 21vw">
<g filter="url(#filter0_bd_1_462)">
<path d="M26.4388 15.7481C31.1905 12.9294 33.5663 11.52 36.0994 10.969C38.3403 10.4816 40.6597 10.4816 42.9005 10.969C45.4337 11.52 47.8095 12.9294 52.5612 15.7482L56.4612 18.0617C61.0322 20.7733 63.3177 22.1292 64.9785 24.0046C66.4481 25.6642 67.5568 27.611 68.2343 29.7217C69 32.1069 69 34.7643 69 40.0791V45.9209C69 51.2357 69 53.8931 68.2343 56.2783C67.5568 58.389 66.4481 60.3358 64.9785 61.9954C63.3177 63.8708 61.0322 65.2267 56.4612 67.9383L52.5612 70.2519C47.8095 73.0706 45.4337 74.48 42.9005 75.031C40.6597 75.5184 38.3403 75.5184 36.0994 75.031C33.5663 74.48 31.1905 73.0706 26.4388 70.2519L22.5388 67.9383C17.9678 65.2267 15.6823 63.8708 14.0215 61.9954C12.5519 60.3358 11.4432 58.389 10.7657 56.2783C10 53.8931 10 51.2357 10 45.9209V40.0791C10 34.7643 10 32.1069 10.7657 29.7217C11.4432 27.611 12.5519 25.6642 14.0215 24.0046C15.6823 22.1292 17.9678 20.7733 22.5388 18.0617L26.4388 15.7481Z" fill="black" fill-opacity="0.1" shape-rendering="crispEdges"/>
<path d="M26.5664 15.9632C31.333 13.1355 33.6685 11.7536 36.1526 11.2133C38.3584 10.7335 40.6416 10.7335 42.8474 11.2133C45.3315 11.7536 47.667 13.1355 52.4336 15.9632L56.3336 18.2767C60.919 20.9968 63.1627 22.3312 64.7913 24.1703C66.238 25.804 67.3294 27.7204 67.9963 29.7981C68.7472 32.1372 68.75 34.7477 68.75 40.0791V45.9209C68.75 51.2523 68.7472 53.8628 67.9963 56.2019C67.3294 58.2796 66.238 60.196 64.7913 61.8297C63.1627 63.6688 60.919 65.0032 56.3336 67.7233L52.4336 70.0368C47.667 72.8645 45.3315 74.2464 42.8474 74.7867C40.6416 75.2665 38.3584 75.2665 36.1526 74.7867C33.6685 74.2464 31.333 72.8645 26.5664 70.0368L22.6664 67.7233C18.081 65.0032 15.8373 63.6688 14.2087 61.8297C12.762 60.196 11.6706 58.2796 11.0037 56.2019C10.2528 53.8628 10.25 51.2523 10.25 45.9209V40.0791C10.25 34.7477 10.2528 32.1372 11.0037 29.7981C11.6706 27.7204 12.762 25.804 14.2087 24.1703C15.8373 22.3312 18.081 20.9968 22.6664 18.2767L26.5664 15.9632Z" stroke="url(#paint0_linear_1_462)" stroke-width="0.5" shape-rendering="crispEdges"/>
<path d="M26.5664 15.9632C31.333 13.1355 33.6685 11.7536 36.1526 11.2133C38.3584 10.7335 40.6416 10.7335 42.8474 11.2133C45.3315 11.7536 47.667 13.1355 52.4336 15.9632L56.3336 18.2767C60.919 20.9968 63.1627 22.3312 64.7913 24.1703C66.238 25.804 67.3294 27.7204 67.9963 29.7981C68.7472 32.1372 68.75 34.7477 68.75 40.0791V45.9209C68.75 51.2523 68.7472 53.8628 67.9963 56.2019C67.3294 58.2796 66.238 60.196 64.7913 61.8297C63.1627 63.6688 60.919 65.0032 56.3336 67.7233L52.4336 70.0368C47.667 72.8645 45.3315 74.2464 42.8474 74.7867C40.6416 75.2665 38.3584 75.2665 36.1526 74.7867C33.6685 74.2464 31.333 72.8645 26.5664 70.0368L22.6664 67.7233C18.081 65.0032 15.8373 63.6688 14.2087 61.8297C12.762 60.196 11.6706 58.2796 11.0037 56.2019C10.2528 53.8628 10.25 51.2523 10.25 45.9209V40.0791C10.25 34.7477 10.2528 32.1372 11.0037 29.7981C11.6706 27.7204 12.762 25.804 14.2087 24.1703C15.8373 22.3312 18.081 20.9968 22.6664 18.2767L26.5664 15.9632Z" stroke="url(#paint1_linear_1_462)" stroke-width="0.5" shape-rendering="crispEdges"/>
</g>
<g filter="url(#filter1_bd_1_462)">
<path d="M29.8083 17.8561C33.3352 15.725 35.0987 14.6595 36.9852 14.23C38.6542 13.8501 40.3851 13.8316 42.0618 14.1758C43.9571 14.5649 45.7429 15.5926 49.3144 17.6479L56.3765 21.712C59.8821 23.7293 61.6349 24.738 62.9098 26.1511C64.0378 27.4014 64.8901 28.8751 65.4111 30.4765C66 32.2863 66 34.3086 66 38.3532V46.6468C66 50.6914 66 52.7137 65.4111 54.5235C64.8901 56.1248 64.0378 57.5986 62.9098 58.8489C61.6349 60.262 59.8821 61.2707 56.3765 63.288L49.0765 67.489C45.5872 69.497 43.8425 70.501 41.9883 70.894C40.3477 71.2418 38.6523 71.2418 37.0117 70.894C35.1575 70.501 33.4128 69.497 29.9235 67.489L22.6235 63.288C19.1179 61.2707 17.3651 60.262 16.0902 58.8489C14.9622 57.5986 14.1099 56.1248 13.5889 54.5235C13 52.7137 13 50.6914 13 46.6468V38.8439C13 34.8935 13 32.9183 13.5653 31.1422C14.0657 29.5705 14.8846 28.1188 15.9711 26.8778C17.1988 25.4754 18.8893 24.4539 22.2704 22.4109L29.8083 17.8561Z" fill="black" fill-opacity="0.7" shape-rendering="crispEdges"/>
<path d="M29.9376 18.0701C33.4793 15.9301 35.2028 14.8922 37.0407 14.4738C38.6749 14.1018 40.3698 14.0837 42.0115 14.4207C43.8579 14.7998 45.6032 15.8007 49.1898 17.8646L56.2519 21.9287C59.7721 23.9544 61.4822 24.9419 62.7242 26.3186C63.8287 27.5428 64.6632 28.9859 65.1734 30.5538C65.7471 32.317 65.75 34.2917 65.75 38.3532V46.6468C65.75 50.7083 65.7471 52.683 65.1734 54.4462C64.6632 56.0141 63.8287 57.4571 62.7242 58.6814C61.4822 60.0581 59.7721 61.0455 56.2519 63.0713L48.9519 67.2723C45.4479 69.2887 43.7429 70.2666 41.9365 70.6495C40.33 70.99 38.67 70.99 37.0635 70.6495C35.2571 70.2666 33.5521 69.2887 30.0481 67.2723L22.7481 63.0713C19.2279 61.0456 17.5178 60.0581 16.2758 58.6814C15.1713 57.4571 14.3368 56.0141 13.8266 54.4462C13.2529 52.683 13.25 50.7083 13.25 46.6468V38.8439C13.25 34.877 13.2528 32.9483 13.8036 31.2181C14.2935 29.6791 15.0953 28.2576 16.1592 27.0425C17.3552 25.6762 19.0045 24.6764 22.3997 22.6249L29.9376 18.0701Z" stroke="url(#paint2_linear_1_462)" stroke-width="0.5" shape-rendering="crispEdges"/>
<path d="M29.9376 18.0701C33.4793 15.9301 35.2028 14.8922 37.0407 14.4738C38.6749 14.1018 40.3698 14.0837 42.0115 14.4207C43.8579 14.7998 45.6032 15.8007 49.1898 17.8646L56.2519 21.9287C59.7721 23.9544 61.4822 24.9419 62.7242 26.3186C63.8287 27.5428 64.6632 28.9859 65.1734 30.5538C65.7471 32.317 65.75 34.2917 65.75 38.3532V46.6468C65.75 50.7083 65.7471 52.683 65.1734 54.4462C64.6632 56.0141 63.8287 57.4571 62.7242 58.6814C61.4822 60.0581 59.7721 61.0455 56.2519 63.0713L48.9519 67.2723C45.4479 69.2887 43.7429 70.2666 41.9365 70.6495C40.33 70.99 38.67 70.99 37.0635 70.6495C35.2571 70.2666 33.5521 69.2887 30.0481 67.2723L22.7481 63.0713C19.2279 61.0456 17.5178 60.0581 16.2758 58.6814C15.1713 57.4571 14.3368 56.0141 13.8266 54.4462C13.2529 52.683 13.25 50.7083 13.25 46.6468V38.8439C13.25 34.877 13.2528 32.9483 13.8036 31.2181C14.2935 29.6791 15.0953 28.2576 16.1592 27.0425C17.3552 25.6762 19.0045 24.6764 22.3997 22.6249L29.9376 18.0701Z" stroke="url(#paint3_linear_1_462)" stroke-width="0.5" shape-rendering="crispEdges"/>
</g>
<path opacity="0.5" d="M23.0507 55.8H23.9087V60H23.0507V55.8ZM23.5727 56.526V55.8H24.4067C24.7387 55.8 25.0207 55.854 25.2527 55.962C25.4887 56.07 25.6687 56.224 25.7927 56.424C25.9167 56.624 25.9787 56.862 25.9787 57.138C25.9787 57.41 25.9167 57.648 25.7927 57.852C25.6687 58.052 25.4887 58.206 25.2527 58.314C25.0207 58.422 24.7387 58.476 24.4067 58.476H23.5727V57.75H24.4067C24.6347 57.75 24.8147 57.698 24.9467 57.594C25.0787 57.49 25.1447 57.338 25.1447 57.138C25.1447 56.934 25.0787 56.782 24.9467 56.682C24.8147 56.578 24.6347 56.526 24.4067 56.526H23.5727ZM27.3085 57.9C27.3085 58.168 27.3645 58.406 27.4765 58.614C27.5885 58.822 27.7425 58.986 27.9385 59.106C28.1345 59.226 28.3625 59.286 28.6225 59.286C28.8825 59.286 29.1105 59.226 29.3065 59.106C29.5025 58.986 29.6545 58.822 29.7625 58.614C29.8745 58.406 29.9305 58.168 29.9305 57.9C29.9305 57.632 29.8765 57.394 29.7685 57.186C29.6605 56.978 29.5085 56.814 29.3125 56.694C29.1165 56.574 28.8865 56.514 28.6225 56.514C28.3625 56.514 28.1345 56.574 27.9385 56.694C27.7425 56.814 27.5885 56.978 27.4765 57.186C27.3645 57.394 27.3085 57.632 27.3085 57.9ZM26.4025 57.9C26.4025 57.58 26.4585 57.288 26.5705 57.024C26.6825 56.756 26.8385 56.524 27.0385 56.328C27.2385 56.132 27.4725 55.982 27.7405 55.878C28.0125 55.77 28.3065 55.716 28.6225 55.716C28.9425 55.716 29.2365 55.77 29.5045 55.878C29.7725 55.982 30.0065 56.132 30.2065 56.328C30.4105 56.524 30.5665 56.756 30.6745 57.024C30.7865 57.288 30.8425 57.58 30.8425 57.9C30.8425 58.216 30.7865 58.51 30.6745 58.782C30.5665 59.05 30.4125 59.284 30.2125 59.484C30.0165 59.684 29.7825 59.84 29.5105 59.952C29.2425 60.06 28.9465 60.114 28.6225 60.114C28.2985 60.114 28.0005 60.06 27.7285 59.952C27.4605 59.84 27.2265 59.684 27.0265 59.484C26.8265 59.284 26.6725 59.05 26.5645 58.782C26.4565 58.51 26.4025 58.216 26.4025 57.9ZM35.1762 58.41L36.0762 55.8H37.0842L35.3142 60.234L33.9942 57.474L32.6682 60.234L30.9042 55.8H31.9122L32.8242 58.41L33.9942 55.59L35.1762 58.41ZM38.1223 60V59.274H40.2403V60H38.1223ZM38.1223 56.526V55.8H40.2403V56.526H38.1223ZM38.1223 58.128V57.414H40.1203V58.128H38.1223ZM37.5703 55.8H38.3983V60H37.5703V55.8ZM42.0399 58.044H42.9459L44.3139 60H43.2999L42.0399 58.044ZM41.0859 55.8H41.9439V60H41.0859V55.8ZM41.6079 56.532V55.8H42.4959C42.8279 55.8 43.1099 55.856 43.3419 55.968C43.5739 56.08 43.7519 56.236 43.8759 56.436C43.9999 56.636 44.0619 56.87 44.0619 57.138C44.0619 57.402 43.9999 57.636 43.8759 57.84C43.7519 58.04 43.5739 58.196 43.3419 58.308C43.1099 58.42 42.8279 58.476 42.4959 58.476H41.6079V57.792H42.4419C42.5939 57.792 42.7239 57.768 42.8319 57.72C42.9439 57.668 43.0299 57.596 43.0899 57.504C43.1499 57.408 43.1799 57.294 43.1799 57.162C43.1799 57.03 43.1499 56.918 43.0899 56.826C43.0299 56.73 42.9439 56.658 42.8319 56.61C42.7239 56.558 42.5939 56.532 42.4419 56.532H41.6079ZM46.5754 55.8H47.4334V58.566C47.4334 58.806 47.4954 59 47.6194 59.148C47.7474 59.292 47.9354 59.364 48.1834 59.364C48.4314 59.364 48.6174 59.292 48.7414 59.148C48.8694 59 48.9334 58.806 48.9334 58.566V55.8H49.7914V58.62C49.7914 58.868 49.7514 59.086 49.6714 59.274C49.5914 59.462 49.4774 59.62 49.3294 59.748C49.1854 59.876 49.0154 59.972 48.8194 60.036C48.6234 60.104 48.4114 60.138 48.1834 60.138C47.9514 60.138 47.7374 60.104 47.5414 60.036C47.3454 59.972 47.1754 59.876 47.0314 59.748C46.8874 59.62 46.7754 59.462 46.6954 59.274C46.6154 59.086 46.5754 58.868 46.5754 58.62V55.8ZM50.666 55.8H51.524V60H50.666V55.8ZM51.188 56.526V55.8H52.022C52.354 55.8 52.636 55.854 52.868 55.962C53.104 56.07 53.284 56.224 53.408 56.424C53.532 56.624 53.594 56.862 53.594 57.138C53.594 57.41 53.532 57.648 53.408 57.852C53.284 58.052 53.104 58.206 52.868 58.314C52.636 58.422 52.354 58.476 52.022 58.476H51.188V57.75H52.022C52.25 57.75 52.43 57.698 52.562 57.594C52.694 57.49 52.76 57.338 52.76 57.138C52.76 56.934 52.694 56.782 52.562 56.682C52.43 56.578 52.25 56.526 52.022 56.526H51.188ZM54.6238 58.59C54.7118 58.746 54.8078 58.882 54.9118 58.998C55.0198 59.114 55.1378 59.204 55.2658 59.268C55.3938 59.332 55.5318 59.364 55.6798 59.364C55.8518 59.364 55.9918 59.32 56.0998 59.232C56.2078 59.144 56.2618 59.024 56.2618 58.872C56.2618 58.74 56.2278 58.634 56.1598 58.554C56.0958 58.474 55.9978 58.404 55.8658 58.344C55.7378 58.28 55.5798 58.212 55.3918 58.14C55.2918 58.104 55.1758 58.056 55.0438 57.996C54.9158 57.932 54.7938 57.852 54.6778 57.756C54.5618 57.656 54.4658 57.536 54.3898 57.396C54.3138 57.252 54.2758 57.08 54.2758 56.88C54.2758 56.64 54.3358 56.434 54.4558 56.262C54.5798 56.086 54.7458 55.952 54.9538 55.86C55.1658 55.764 55.4018 55.716 55.6618 55.716C55.9298 55.716 56.1598 55.762 56.3518 55.854C56.5478 55.942 56.7098 56.056 56.8378 56.196C56.9698 56.332 57.0718 56.474 57.1438 56.622L56.4718 56.994C56.4158 56.894 56.3478 56.804 56.2678 56.724C56.1918 56.64 56.1038 56.574 56.0038 56.526C55.9038 56.474 55.7898 56.448 55.6618 56.448C55.4938 56.448 55.3678 56.488 55.2838 56.568C55.1998 56.644 55.1578 56.734 55.1578 56.838C55.1578 56.942 55.1918 57.034 55.2598 57.114C55.3278 57.19 55.4318 57.264 55.5718 57.336C55.7118 57.404 55.8878 57.474 56.0998 57.546C56.2358 57.594 56.3658 57.654 56.4898 57.726C56.6178 57.798 56.7318 57.886 56.8318 57.99C56.9358 58.09 57.0158 58.21 57.0718 58.35C57.1318 58.486 57.1618 58.644 57.1618 58.824C57.1618 59.028 57.1218 59.21 57.0418 59.37C56.9618 59.53 56.8518 59.666 56.7118 59.778C56.5718 59.886 56.4138 59.968 56.2378 60.024C56.0658 60.084 55.8838 60.114 55.6918 60.114C55.4358 60.114 55.1958 60.066 54.9718 59.97C54.7518 59.87 54.5598 59.736 54.3958 59.568C54.2318 59.4 54.1038 59.218 54.0118 59.022L54.6238 58.59Z" fill="white"/>
<path d="M48.1667 32.3333C50.0997 32.3333 51.6667 30.7663 51.6667 28.8333C51.6667 26.9003 50.0997 25.3333 48.1667 25.3333C46.2337 25.3333 44.6667 26.9003 44.6667 28.8333C44.6667 30.7663 46.2337 32.3333 48.1667 32.3333Z" fill="#FF1AA7"/>
<path opacity="0.2" d="M48.1667 34.0833C45.2733 34.0833 42.9167 31.7267 42.9167 28.8333C42.9167 27.9933 43.1383 27.2117 43.4883 26.5H34.7733C30.7483 26.5 28.3333 28.9033 28.3333 32.94V42.215C28.3333 46.2633 30.7483 48.6667 34.7733 48.6667H44.0483C48.085 48.6667 50.4883 46.2633 50.4883 42.2267V33.5117C49.7883 33.8617 49.0067 34.0833 48.1667 34.0833Z" fill="white"/>
<path opacity="0.5" d="M38.7167 37.42C38.0517 37.21 37.34 37.3267 36.8383 37.7233C36.325 37.3267 35.625 37.21 34.9717 37.42C33.5367 37.8867 33.0817 39.52 33.49 40.78C34.1083 42.6933 36.1267 43.685 36.85 43.685C37.5617 43.685 39.615 42.67 40.21 40.78C40.6183 39.52 40.1517 37.8867 38.7167 37.42Z" fill="white"/>
<defs>
<filter id="filter0_bd_1_462" x="-44" y="-43.3965" width="167" height="172.793" filterUnits="userSpaceOnUse" color-interpolation-filters="sRGB">
<feFlood flood-opacity="0" result="BackgroundImageFix"/>
<feGaussianBlur in="BackgroundImageFix" stdDeviation="27"/>
<feComposite in2="SourceAlpha" operator="in" result="effect1_backgroundBlur_1_462"/>
<feColorMatrix in="SourceAlpha" type="matrix" values="0 0 0 0 0 0 0 0 0 0 0 0 0 0 0 0 0 0 127 0" result="hardAlpha"/>
<feOffset/>
<feGaussianBlur stdDeviation="5"/>
<feComposite in2="hardAlpha" operator="out"/>
<feColorMatrix type="matrix" values="0 0 0 0 0 0 0 0 0 0 0 0 0 0 0 0 0 0 0.8 0"/>
<feBlend mode="normal" in2="effect1_backgroundBlur_1_462" result="effect2_dropShadow_1_462"/>
<feBlend mode="normal" in="SourceGraphic" in2="effect2_dropShadow_1_462" result="shape"/>
</filter>
<filter id="filter1_bd_1_462" x="-41" y="-40.0693" width="161" height="165.224" filterUnits="userSpaceOnUse" color-interpolation-filters="sRGB">
<feFlood flood-opacity="0" result="BackgroundImageFix"/>
<feGaussianBlur in="BackgroundImageFix" stdDeviation="27"/>
<feComposite in2="SourceAlpha" operator="in" result="effect1_backgroundBlur_1_462"/>
<feColorMatrix in="SourceAlpha" type="matrix" values="0 0 0 0 0 0 0 0 0 0 0 0 0 0 0 0 0 0 127 0" result="hardAlpha"/>
<feOffset/>
<feGaussianBlur stdDeviation="5"/>
<feComposite in2="hardAlpha" operator="out"/>
<feColorMatrix type="matrix" values="0 0 0 0 0 0 0 0 0 0 0 0 0 0 0 0 0 0 0.8 0"/>
<feBlend mode="normal" in2="effect1_backgroundBlur_1_462" result="effect2_dropShadow_1_462"/>
<feBlend mode="normal" in="SourceGraphic" in2="effect2_dropShadow_1_462" result="shape"/>
</filter>
<linearGradient id="paint0_linear_1_462" x1="14.1201" y1="2.09638" x2="50.7462" y2="28.1362" gradientUnits="userSpaceOnUse">
<stop stop-color="#696969"/>
<stop offset="1" stop-color="#696969" stop-opacity="0"/>
</linearGradient>
<linearGradient id="paint1_linear_1_462" x1="68.2584" y1="78" x2="37.1106" y2="63.9669" gradientUnits="userSpaceOnUse">
<stop stop-color="#696969"/>
<stop offset="1" stop-color="#696969" stop-opacity="0"/>
</linearGradient>
<linearGradient id="paint2_linear_1_462" x1="14.0578" y1="3.29097" x2="49.6544" y2="29.7575" gradientUnits="userSpaceOnUse">
<stop stop-color="#696969"/>
<stop offset="1" stop-color="#696969" stop-opacity="0"/>
</linearGradient>
<linearGradient id="paint3_linear_1_462" x1="68.329" y1="76.05" x2="37.5905" y2="61.5673" gradientUnits="userSpaceOnUse">
<stop stop-color="#696969"/>
<stop offset="1" stop-color="#696969" stop-opacity="0"/>
</linearGradient>
</defs>
</svg>
