<svg viewBox="0 0 79 86" fill="none" xmlns="http://www.w3.org/2000/svg" style="height: 21vw">
<g filter="url(#filter0_bd_1_468)">
<path d="M26.4388 15.7481C31.1905 12.9294 33.5663 11.52 36.0994 10.969C38.3403 10.4816 40.6597 10.4816 42.9005 10.969C45.4337 11.52 47.8095 12.9294 52.5612 15.7482L56.4612 18.0617C61.0322 20.7733 63.3177 22.1292 64.9785 24.0046C66.4481 25.6642 67.5568 27.611 68.2343 29.7217C69 32.1069 69 34.7643 69 40.0791V45.9209C69 51.2357 69 53.8931 68.2343 56.2783C67.5568 58.389 66.4481 60.3358 64.9785 61.9954C63.3177 63.8708 61.0322 65.2267 56.4612 67.9383L52.5612 70.2519C47.8095 73.0706 45.4337 74.48 42.9005 75.031C40.6597 75.5184 38.3403 75.5184 36.0994 75.031C33.5663 74.48 31.1905 73.0706 26.4388 70.2519L22.5388 67.9383C17.9678 65.2267 15.6823 63.8708 14.0215 61.9954C12.5519 60.3358 11.4432 58.389 10.7657 56.2783C10 53.8931 10 51.2357 10 45.9209V40.0791C10 34.7643 10 32.1069 10.7657 29.7217C11.4432 27.611 12.5519 25.6642 14.0215 24.0046C15.6823 22.1292 17.9678 20.7733 22.5388 18.0617L26.4388 15.7481Z" fill="black" fill-opacity="0.1" shape-rendering="crispEdges"/>
<path d="M26.5664 15.9632C31.333 13.1355 33.6685 11.7536 36.1526 11.2133C38.3584 10.7335 40.6416 10.7335 42.8474 11.2133C45.3315 11.7536 47.667 13.1355 52.4336 15.9632L56.3336 18.2767C60.919 20.9968 63.1627 22.3312 64.7913 24.1703C66.238 25.804 67.3294 27.7204 67.9963 29.7981C68.7472 32.1372 68.75 34.7477 68.75 40.0791V45.9209C68.75 51.2523 68.7472 53.8628 67.9963 56.2019C67.3294 58.2796 66.238 60.196 64.7913 61.8297C63.1627 63.6688 60.919 65.0032 56.3336 67.7233L52.4336 70.0368C47.667 72.8645 45.3315 74.2464 42.8474 74.7867C40.6416 75.2665 38.3584 75.2665 36.1526 74.7867C33.6685 74.2464 31.333 72.8645 26.5664 70.0368L22.6664 67.7233C18.081 65.0032 15.8373 63.6688 14.2087 61.8297C12.762 60.196 11.6706 58.2796 11.0037 56.2019C10.2528 53.8628 10.25 51.2523 10.25 45.9209V40.0791C10.25 34.7477 10.2528 32.1372 11.0037 29.7981C11.6706 27.7204 12.762 25.804 14.2087 24.1703C15.8373 22.3312 18.081 20.9968 22.6664 18.2767L26.5664 15.9632Z" stroke="url(#paint0_linear_1_468)" stroke-width="0.5" shape-rendering="crispEdges"/>
<path d="M26.5664 15.9632C31.333 13.1355 33.6685 11.7536 36.1526 11.2133C38.3584 10.7335 40.6416 10.7335 42.8474 11.2133C45.3315 11.7536 47.667 13.1355 52.4336 15.9632L56.3336 18.2767C60.919 20.9968 63.1627 22.3312 64.7913 24.1703C66.238 25.804 67.3294 27.7204 67.9963 29.7981C68.7472 32.1372 68.75 34.7477 68.75 40.0791V45.9209C68.75 51.2523 68.7472 53.8628 67.9963 56.2019C67.3294 58.2796 66.238 60.196 64.7913 61.8297C63.1627 63.6688 60.919 65.0032 56.3336 67.7233L52.4336 70.0368C47.667 72.8645 45.3315 74.2464 42.8474 74.7867C40.6416 75.2665 38.3584 75.2665 36.1526 74.7867C33.6685 74.2464 31.333 72.8645 26.5664 70.0368L22.6664 67.7233C18.081 65.0032 15.8373 63.6688 14.2087 61.8297C12.762 60.196 11.6706 58.2796 11.0037 56.2019C10.2528 53.8628 10.25 51.2523 10.25 45.9209V40.0791C10.25 34.7477 10.2528 32.1372 11.0037 29.7981C11.6706 27.7204 12.762 25.804 14.2087 24.1703C15.8373 22.3312 18.081 20.9968 22.6664 18.2767L26.5664 15.9632Z" stroke="url(#paint1_linear_1_468)" stroke-width="0.5" shape-rendering="crispEdges"/>
</g>
<g filter="url(#filter1_bd_1_468)">
<path d="M29.8083 17.8561C33.3352 15.725 35.0987 14.6595 36.9852 14.23C38.6542 13.8501 40.3851 13.8316 42.0618 14.1758C43.9571 14.5649 45.7429 15.5926 49.3144 17.6479L56.3765 21.712C59.8821 23.7293 61.6349 24.738 62.9098 26.1511C64.0378 27.4014 64.8901 28.8751 65.4111 30.4765C66 32.2863 66 34.3086 66 38.3532V46.6468C66 50.6914 66 52.7137 65.4111 54.5235C64.8901 56.1248 64.0378 57.5986 62.9098 58.8489C61.6349 60.262 59.8821 61.2707 56.3765 63.288L49.0765 67.489C45.5872 69.497 43.8425 70.501 41.9883 70.894C40.3477 71.2418 38.6523 71.2418 37.0117 70.894C35.1575 70.501 33.4128 69.497 29.9235 67.489L22.6235 63.288C19.1179 61.2707 17.3651 60.262 16.0902 58.8489C14.9622 57.5986 14.1099 56.1248 13.5889 54.5235C13 52.7137 13 50.6914 13 46.6468V38.8439C13 34.8935 13 32.9183 13.5653 31.1422C14.0657 29.5705 14.8846 28.1188 15.9711 26.8778C17.1988 25.4754 18.8893 24.4539 22.2704 22.4109L29.8083 17.8561Z" fill="black" fill-opacity="0.7" shape-rendering="crispEdges"/>
<path d="M29.9376 18.0701C33.4793 15.9301 35.2028 14.8922 37.0407 14.4738C38.6749 14.1018 40.3698 14.0837 42.0115 14.4207C43.8579 14.7998 45.6032 15.8007 49.1898 17.8646L56.2519 21.9287C59.7721 23.9544 61.4822 24.9419 62.7242 26.3186C63.8287 27.5428 64.6632 28.9859 65.1734 30.5538C65.7471 32.317 65.75 34.2917 65.75 38.3532V46.6468C65.75 50.7083 65.7471 52.683 65.1734 54.4462C64.6632 56.0141 63.8287 57.4571 62.7242 58.6814C61.4822 60.0581 59.7721 61.0455 56.2519 63.0713L48.9519 67.2723C45.4479 69.2887 43.7429 70.2666 41.9365 70.6495C40.33 70.99 38.67 70.99 37.0635 70.6495C35.2571 70.2666 33.5521 69.2887 30.0481 67.2723L22.7481 63.0713C19.2279 61.0456 17.5178 60.0581 16.2758 58.6814C15.1713 57.4571 14.3368 56.0141 13.8266 54.4462C13.2529 52.683 13.25 50.7083 13.25 46.6468V38.8439C13.25 34.877 13.2528 32.9483 13.8036 31.2181C14.2935 29.6791 15.0953 28.2576 16.1592 27.0425C17.3552 25.6762 19.0045 24.6764 22.3997 22.6249L29.9376 18.0701Z" stroke="url(#paint2_linear_1_468)" stroke-width="0.5" shape-rendering="crispEdges"/>
<path d="M29.9376 18.0701C33.4793 15.9301 35.2028 14.8922 37.0407 14.4738C38.6749 14.1018 40.3698 14.0837 42.0115 14.4207C43.8579 14.7998 45.6032 15.8007 49.1898 17.8646L56.2519 21.9287C59.7721 23.9544 61.4822 24.9419 62.7242 26.3186C63.8287 27.5428 64.6632 28.9859 65.1734 30.5538C65.7471 32.317 65.75 34.2917 65.75 38.3532V46.6468C65.75 50.7083 65.7471 52.683 65.1734 54.4462C64.6632 56.0141 63.8287 57.4571 62.7242 58.6814C61.4822 60.0581 59.7721 61.0455 56.2519 63.0713L48.9519 67.2723C45.4479 69.2887 43.7429 70.2666 41.9365 70.6495C40.33 70.99 38.67 70.99 37.0635 70.6495C35.2571 70.2666 33.5521 69.2887 30.0481 67.2723L22.7481 63.0713C19.2279 61.0456 17.5178 60.0581 16.2758 58.6814C15.1713 57.4571 14.3368 56.0141 13.8266 54.4462C13.2529 52.683 13.25 50.7083 13.25 46.6468V38.8439C13.25 34.877 13.2528 32.9483 13.8036 31.2181C14.2935 29.6791 15.0953 28.2576 16.1592 27.0425C17.3552 25.6762 19.0045 24.6764 22.3997 22.6249L29.9376 18.0701Z" stroke="url(#paint3_linear_1_468)" stroke-width="0.5" shape-rendering="crispEdges"/>
</g>
<g opacity="0.5">
<path d="M31.0301 57.574V56.8H34.1501V57.574H33.0161V61H32.1581V57.574H31.0301ZM34.622 60.046L34.724 59.368H36.74L36.842 60.046H34.622ZM35.72 58.162L35.09 59.608L35.108 59.8L34.556 61H33.59L35.72 56.554L37.85 61H36.878L36.338 59.836L36.35 59.62L35.72 58.162ZM38.6716 59.59C38.7596 59.746 38.8556 59.882 38.9596 59.998C39.0676 60.114 39.1856 60.204 39.3136 60.268C39.4416 60.332 39.5796 60.364 39.7276 60.364C39.8996 60.364 40.0396 60.32 40.1476 60.232C40.2556 60.144 40.3096 60.024 40.3096 59.872C40.3096 59.74 40.2756 59.634 40.2076 59.554C40.1436 59.474 40.0456 59.404 39.9136 59.344C39.7856 59.28 39.6276 59.212 39.4396 59.14C39.3396 59.104 39.2236 59.056 39.0916 58.996C38.9636 58.932 38.8416 58.852 38.7256 58.756C38.6096 58.656 38.5136 58.536 38.4376 58.396C38.3616 58.252 38.3236 58.08 38.3236 57.88C38.3236 57.64 38.3836 57.434 38.5036 57.262C38.6276 57.086 38.7936 56.952 39.0016 56.86C39.2136 56.764 39.4496 56.716 39.7096 56.716C39.9776 56.716 40.2076 56.762 40.3996 56.854C40.5956 56.942 40.7576 57.056 40.8856 57.196C41.0176 57.332 41.1196 57.474 41.1916 57.622L40.5196 57.994C40.4636 57.894 40.3956 57.804 40.3156 57.724C40.2396 57.64 40.1516 57.574 40.0516 57.526C39.9516 57.474 39.8376 57.448 39.7096 57.448C39.5416 57.448 39.4156 57.488 39.3316 57.568C39.2476 57.644 39.2056 57.734 39.2056 57.838C39.2056 57.942 39.2396 58.034 39.3076 58.114C39.3756 58.19 39.4796 58.264 39.6196 58.336C39.7596 58.404 39.9356 58.474 40.1476 58.546C40.2836 58.594 40.4136 58.654 40.5376 58.726C40.6656 58.798 40.7796 58.886 40.8796 58.99C40.9836 59.09 41.0636 59.21 41.1196 59.35C41.1796 59.486 41.2096 59.644 41.2096 59.824C41.2096 60.028 41.1696 60.21 41.0896 60.37C41.0096 60.53 40.8996 60.666 40.7596 60.778C40.6196 60.886 40.4616 60.968 40.2856 61.024C40.1136 61.084 39.9316 61.114 39.7396 61.114C39.4836 61.114 39.2436 61.066 39.0196 60.97C38.7996 60.87 38.6076 60.736 38.4436 60.568C38.2796 60.4 38.1516 60.218 38.0596 60.022L38.6716 59.59ZM41.9091 56.8H42.7911V61H41.9091V56.8ZM44.2851 56.8H45.3051L43.5651 58.768L45.3951 61H44.3511L42.5391 58.792L44.2851 56.8ZM46.2243 59.59C46.3123 59.746 46.4083 59.882 46.5123 59.998C46.6203 60.114 46.7383 60.204 46.8663 60.268C46.9943 60.332 47.1323 60.364 47.2803 60.364C47.4523 60.364 47.5923 60.32 47.7003 60.232C47.8083 60.144 47.8623 60.024 47.8623 59.872C47.8623 59.74 47.8283 59.634 47.7603 59.554C47.6963 59.474 47.5983 59.404 47.4663 59.344C47.3383 59.28 47.1803 59.212 46.9923 59.14C46.8923 59.104 46.7763 59.056 46.6443 58.996C46.5163 58.932 46.3943 58.852 46.2783 58.756C46.1623 58.656 46.0663 58.536 45.9903 58.396C45.9143 58.252 45.8763 58.08 45.8763 57.88C45.8763 57.64 45.9363 57.434 46.0563 57.262C46.1803 57.086 46.3463 56.952 46.5543 56.86C46.7663 56.764 47.0023 56.716 47.2623 56.716C47.5303 56.716 47.7603 56.762 47.9523 56.854C48.1483 56.942 48.3103 57.056 48.4383 57.196C48.5703 57.332 48.6723 57.474 48.7443 57.622L48.0723 57.994C48.0163 57.894 47.9483 57.804 47.8683 57.724C47.7923 57.64 47.7043 57.574 47.6043 57.526C47.5043 57.474 47.3903 57.448 47.2623 57.448C47.0943 57.448 46.9683 57.488 46.8843 57.568C46.8003 57.644 46.7583 57.734 46.7583 57.838C46.7583 57.942 46.7923 58.034 46.8603 58.114C46.9283 58.19 47.0323 58.264 47.1723 58.336C47.3123 58.404 47.4883 58.474 47.7003 58.546C47.8363 58.594 47.9663 58.654 48.0903 58.726C48.2183 58.798 48.3323 58.886 48.4323 58.99C48.5363 59.09 48.6163 59.21 48.6723 59.35C48.7323 59.486 48.7623 59.644 48.7623 59.824C48.7623 60.028 48.7223 60.21 48.6423 60.37C48.5623 60.53 48.4523 60.666 48.3123 60.778C48.1723 60.886 48.0143 60.968 47.8383 61.024C47.6663 61.084 47.4843 61.114 47.2923 61.114C47.0363 61.114 46.7963 61.066 46.5723 60.97C46.3523 60.87 46.1603 60.736 45.9963 60.568C45.8323 60.4 45.7043 60.218 45.6123 60.022L46.2243 59.59Z" fill="white"/>
<path opacity="0.4" d="M46.9417 32.995L46.7783 32.9017L45.1567 31.9683L41.8083 30.0317C40.7817 29.4367 39.2183 29.4367 38.1917 30.0317L34.8433 31.9683L33.2217 32.9133L33.0117 33.03C30.9233 34.43 30.7833 34.6867 30.7833 36.9383V42.3167C30.7833 44.5683 30.9233 44.825 33.0583 46.26L38.1917 49.2233C38.705 49.5267 39.3467 49.6667 40 49.6667C40.6417 49.6667 41.295 49.5267 41.8083 49.2233L46.9883 46.225C49.0767 44.825 49.2167 44.5683 49.2167 42.3167V36.9383C49.2167 34.6867 49.0767 34.43 46.9417 32.995Z" fill="white"/>
<path d="M33.2217 32.9133L34.8433 31.9683L38.04 30.125L38.1917 30.0317C39.2183 29.4367 40.7817 29.4367 41.8083 30.0317L41.96 30.125L45.1567 31.9683L46.7783 32.9017V30.405C46.7783 27.78 45.3317 26.3333 42.7067 26.3333H37.2817C34.6567 26.3333 33.2217 27.78 33.2217 30.405V32.9133Z" fill="white"/>
<path d="M43.3133 39.5633L42.59 40.45C42.4733 40.5783 42.3917 40.835 42.4033 41.01L42.4733 42.1533C42.52 42.8533 42.0183 43.215 41.365 42.9583L40.3033 42.5383C40.14 42.48 39.86 42.48 39.6967 42.5383L38.635 42.9583C37.9817 43.215 37.48 42.8533 37.5267 42.1533L37.5967 41.01C37.6083 40.835 37.5267 40.5783 37.41 40.45L36.6867 39.5633C36.2317 39.0267 36.43 38.4317 37.1067 38.2567L38.215 37.9767C38.39 37.93 38.6 37.7667 38.6933 37.615L39.3117 36.6583C39.6967 36.0633 40.3033 36.0633 40.6883 36.6583L41.3067 37.615C41.4 37.7667 41.61 37.93 41.785 37.9767L42.8933 38.2567C43.57 38.4317 43.7683 39.0267 43.3133 39.5633Z" fill="white"/>
</g>
<defs>
<filter id="filter0_bd_1_468" x="-44" y="-43.3965" width="167" height="172.793" filterUnits="userSpaceOnUse" color-interpolation-filters="sRGB">
<feFlood flood-opacity="0" result="BackgroundImageFix"/>
<feGaussianBlur in="BackgroundImageFix" stdDeviation="27"/>
<feComposite in2="SourceAlpha" operator="in" result="effect1_backgroundBlur_1_468"/>
<feColorMatrix in="SourceAlpha" type="matrix" values="0 0 0 0 0 0 0 0 0 0 0 0 0 0 0 0 0 0 127 0" result="hardAlpha"/>
<feOffset/>
<feGaussianBlur stdDeviation="5"/>
<feComposite in2="hardAlpha" operator="out"/>
<feColorMatrix type="matrix" values="0 0 0 0 0 0 0 0 0 0 0 0 0 0 0 0 0 0 0.8 0"/>
<feBlend mode="normal" in2="effect1_backgroundBlur_1_468" result="effect2_dropShadow_1_468"/>
<feBlend mode="normal" in="SourceGraphic" in2="effect2_dropShadow_1_468" result="shape"/>
</filter>
<filter id="filter1_bd_1_468" x="-41" y="-40.0693" width="161" height="165.224" filterUnits="userSpaceOnUse" color-interpolation-filters="sRGB">
<feFlood flood-opacity="0" result="BackgroundImageFix"/>
<feGaussianBlur in="BackgroundImageFix" stdDeviation="27"/>
<feComposite in2="SourceAlpha" operator="in" result="effect1_backgroundBlur_1_468"/>
<feColorMatrix in="SourceAlpha" type="matrix" values="0 0 0 0 0 0 0 0 0 0 0 0 0 0 0 0 0 0 127 0" result="hardAlpha"/>
<feOffset/>
<feGaussianBlur stdDeviation="5"/>
<feComposite in2="hardAlpha" operator="out"/>
<feColorMatrix type="matrix" values="0 0 0 0 0 0 0 0 0 0 0 0 0 0 0 0 0 0 0.8 0"/>
<feBlend mode="normal" in2="effect1_backgroundBlur_1_468" result="effect2_dropShadow_1_468"/>
<feBlend mode="normal" in="SourceGraphic" in2="effect2_dropShadow_1_468" result="shape"/>
</filter>
<linearGradient id="paint0_linear_1_468" x1="14.1201" y1="2.09638" x2="50.7462" y2="28.1362" gradientUnits="userSpaceOnUse">
<stop stop-color="#696969"/>
<stop offset="1" stop-color="#696969" stop-opacity="0"/>
</linearGradient>
<linearGradient id="paint1_linear_1_468" x1="68.2584" y1="78" x2="37.1106" y2="63.9669" gradientUnits="userSpaceOnUse">
<stop stop-color="#696969"/>
<stop offset="1" stop-color="#696969" stop-opacity="0"/>
</linearGradient>
<linearGradient id="paint2_linear_1_468" x1="14.0578" y1="3.29097" x2="49.6544" y2="29.7575" gradientUnits="userSpaceOnUse">
<stop stop-color="#696969"/>
<stop offset="1" stop-color="#696969" stop-opacity="0"/>
</linearGradient>
<linearGradient id="paint3_linear_1_468" x1="68.329" y1="76.05" x2="37.5905" y2="61.5673" gradientUnits="userSpaceOnUse">
<stop stop-color="#696969"/>
<stop offset="1" stop-color="#696969" stop-opacity="0"/>
</linearGradient>
</defs>
</svg>
