<svg width="91" height="100" viewBox="0 0 91 100" fill="none" xmlns="http://www.w3.org/2000/svg">
<g filter="url(#filter0_bd_76_925)">
<path d="M32.4448 15.7399C37.1944 12.924 39.5692 11.5161 42.1011 10.9657C44.3409 10.4788 46.6591 10.4788 48.8989 10.9657C51.4308 11.5161 53.8056 12.924 58.5553 15.7399L68.4553 21.6092C73.0284 24.3204 75.3149 25.676 76.9765 27.5516C78.4468 29.2114 79.5561 31.1586 80.2339 33.2697C81 35.6555 81 38.3137 81 43.6301V56.5556C81 61.872 81 64.5302 80.2339 66.916C79.5561 69.0271 78.4468 70.9744 76.9765 72.6341C75.3149 74.5097 73.0284 75.8653 68.4553 78.5765L58.5552 84.4458C53.8056 87.2617 51.4308 88.6696 48.8989 89.22C46.6591 89.7069 44.3409 89.7069 42.1011 89.22C39.5692 88.6696 37.1944 87.2617 32.4447 84.4458L22.5447 78.5765C17.9716 75.8653 15.6851 74.5097 14.0235 72.6341C12.5532 70.9744 11.4439 69.0271 10.7661 66.916C10 64.5302 10 61.872 10 56.5556V43.6301C10 38.3137 10 35.6555 10.7661 33.2697C11.4439 31.1586 12.5532 29.2114 14.0235 27.5516C15.6851 25.676 17.9716 24.3204 22.5447 21.6092L32.4448 15.7399Z" fill="white" fill-opacity="0.1" shape-rendering="crispEdges"/>
<path d="M32.5722 15.9549C37.3368 13.1302 39.6713 11.7497 42.1542 11.21C44.359 10.7307 46.641 10.7307 48.8458 11.21C51.3287 11.7497 53.6632 13.1302 58.4278 15.9549L68.3278 21.8242C72.9152 24.5439 75.1599 25.878 76.7894 27.7174C78.2367 29.3512 79.3286 31.268 79.9959 33.3461C80.7472 35.6858 80.75 38.2971 80.75 43.6301V56.5556C80.75 61.8887 80.7472 64.4999 79.9959 66.8396C79.3286 68.9177 78.2367 70.8345 76.7894 72.4683C75.1599 74.3077 72.9152 75.6418 68.3278 78.3615L58.4277 84.2308C53.6632 87.0555 51.3287 88.436 48.8458 88.9757C46.641 89.455 44.359 89.455 42.1542 88.9757C39.6713 88.436 37.3368 87.0555 32.5722 84.2308L22.6722 78.3615C18.0848 75.6418 15.8401 74.3077 14.2106 72.4683C12.7633 70.8345 11.6714 68.9177 11.0041 66.8396C10.2528 64.4999 10.25 61.8887 10.25 56.5556V43.6301C10.25 38.2971 10.2528 35.6858 11.0041 33.3461C11.6714 31.268 12.7633 29.3512 14.2106 27.7174C15.8401 25.878 18.0848 24.5439 22.6722 21.8242L32.5722 15.9549Z" stroke="url(#paint0_linear_76_925)" stroke-opacity="0.5" stroke-width="0.5" shape-rendering="crispEdges"/>
<path d="M32.5722 15.9549C37.3368 13.1302 39.6713 11.7497 42.1542 11.21C44.359 10.7307 46.641 10.7307 48.8458 11.21C51.3287 11.7497 53.6632 13.1302 58.4278 15.9549L68.3278 21.8242C72.9152 24.5439 75.1599 25.878 76.7894 27.7174C78.2367 29.3512 79.3286 31.268 79.9959 33.3461C80.7472 35.6858 80.75 38.2971 80.75 43.6301V56.5556C80.75 61.8887 80.7472 64.4999 79.9959 66.8396C79.3286 68.9177 78.2367 70.8345 76.7894 72.4683C75.1599 74.3077 72.9152 75.6418 68.3278 78.3615L58.4277 84.2308C53.6632 87.0555 51.3287 88.436 48.8458 88.9757C46.641 89.455 44.359 89.455 42.1542 88.9757C39.6713 88.436 37.3368 87.0555 32.5722 84.2308L22.6722 78.3615C18.0848 75.6418 15.8401 74.3077 14.2106 72.4683C12.7633 70.8345 11.6714 68.9177 11.0041 66.8396C10.2528 64.4999 10.25 61.8887 10.25 56.5556V43.6301C10.25 38.2971 10.2528 35.6858 11.0041 33.3461C11.6714 31.268 12.7633 29.3512 14.2106 27.7174C15.8401 25.878 18.0848 24.5439 22.6722 21.8242L32.5722 15.9549Z" stroke="url(#paint1_linear_76_925)" stroke-opacity="0.5" stroke-width="0.5" shape-rendering="crispEdges"/>
</g>
<g filter="url(#filter1_bd_76_925)">
<path d="M32.2541 21.0091C37.0681 18.0983 39.4751 16.6429 42.0469 16.0745C44.3215 15.5717 46.6785 15.5717 48.9531 16.0745C51.5249 16.6429 53.9319 18.0983 58.7459 21.0091L64.6459 24.5765C69.1517 27.301 71.4047 28.6632 73.0407 30.5328C74.4886 32.1874 75.5799 34.1226 76.2466 36.2177C77 38.5851 77 41.2178 77 46.4833V53.7024C77 58.9679 77 61.6006 76.2466 63.9681C75.5799 66.0631 74.4886 67.9983 73.0407 69.6529C71.4047 71.5225 69.1517 72.8847 64.6459 75.6092L58.7459 79.1766C53.9319 82.0874 51.5249 83.5428 48.9531 84.1112C46.6785 84.614 44.3215 84.614 42.0469 84.1112C39.4751 83.5428 37.0681 82.0874 32.2541 79.1766L26.3541 75.6092C21.8483 72.8847 19.5953 71.5225 17.9593 69.6529C16.5114 67.9983 15.4201 66.0631 14.7534 63.9681C14 61.6006 14 58.9679 14 53.7024V46.4833C14 41.2178 14 38.5851 14.7534 36.2177C15.4201 34.1226 16.5114 32.1874 17.9593 30.5328C19.5953 28.6632 21.8483 27.301 26.3541 24.5765L32.2541 21.0091Z" fill="white" fill-opacity="0.5" shape-rendering="crispEdges"/>
<path d="M32.3835 21.223C37.2126 18.3031 39.5789 16.876 42.1008 16.3186C44.3399 15.8237 46.6601 15.8237 48.8992 16.3186C51.4211 16.876 53.7874 18.3031 58.6165 21.223L64.5165 24.7905C69.0365 27.5234 71.2482 28.864 72.8526 30.6975C74.2778 32.3262 75.3521 34.2311 76.0084 36.2935C76.7472 38.6151 76.75 41.2014 76.75 46.4833V53.7024C76.75 58.9843 76.7472 61.5706 76.0084 63.8923C75.3521 65.9546 74.2778 67.8595 72.8526 69.4882C71.2482 71.3217 69.0365 72.6623 64.5165 75.3952L58.6165 78.9627C53.7874 81.8826 51.4211 83.3097 48.8992 83.8671C46.6601 84.362 44.3399 84.362 42.1008 83.8671C39.5789 83.3097 37.2126 81.8826 32.3835 78.9627L26.4835 75.3952C21.9635 72.6623 19.7518 71.3217 18.1474 69.4882C16.7222 67.8595 15.6479 65.9546 14.9916 63.8923C14.2528 61.5706 14.25 58.9843 14.25 53.7024V46.4833C14.25 41.2014 14.2528 38.6151 14.9916 36.2935C15.6479 34.2311 16.7222 32.3262 18.1474 30.6975C19.7518 28.864 21.9635 27.5234 26.4835 24.7905L32.3835 21.223Z" stroke="url(#paint2_linear_76_925)" stroke-opacity="0.5" stroke-width="0.5" shape-rendering="crispEdges"/>
<path d="M32.3835 21.223C37.2126 18.3031 39.5789 16.876 42.1008 16.3186C44.3399 15.8237 46.6601 15.8237 48.8992 16.3186C51.4211 16.876 53.7874 18.3031 58.6165 21.223L64.5165 24.7905C69.0365 27.5234 71.2482 28.864 72.8526 30.6975C74.2778 32.3262 75.3521 34.2311 76.0084 36.2935C76.7472 38.6151 76.75 41.2014 76.75 46.4833V53.7024C76.75 58.9843 76.7472 61.5706 76.0084 63.8923C75.3521 65.9546 74.2778 67.8595 72.8526 69.4882C71.2482 71.3217 69.0365 72.6623 64.5165 75.3952L58.6165 78.9627C53.7874 81.8826 51.4211 83.3097 48.8992 83.8671C46.6601 84.362 44.3399 84.362 42.1008 83.8671C39.5789 83.3097 37.2126 81.8826 32.3835 78.9627L26.4835 75.3952C21.9635 72.6623 19.7518 71.3217 18.1474 69.4882C16.7222 67.8595 15.6479 65.9546 14.9916 63.8923C14.2528 61.5706 14.25 58.9843 14.25 53.7024V46.4833C14.25 41.2014 14.2528 38.6151 14.9916 36.2935C15.6479 34.2311 16.7222 32.3262 18.1474 30.6975C19.7518 28.864 21.9635 27.5234 26.4835 24.7905L32.3835 21.223Z" stroke="url(#paint3_linear_76_925)" stroke-opacity="0.5" stroke-width="0.5" shape-rendering="crispEdges"/>
</g>
<path d="M29.9778 65H31.4078V70.75H34.1978V72H29.9778V65ZM35.8241 68.5C35.8241 68.9467 35.9174 69.3433 36.1041 69.69C36.2908 70.0367 36.5474 70.31 36.8741 70.51C37.2008 70.71 37.5808 70.81 38.0141 70.81C38.4474 70.81 38.8274 70.71 39.1541 70.51C39.4808 70.31 39.7341 70.0367 39.9141 69.69C40.1008 69.3433 40.1941 68.9467 40.1941 68.5C40.1941 68.0533 40.1041 67.6567 39.9241 67.31C39.7441 66.9633 39.4908 66.69 39.1641 66.49C38.8374 66.29 38.4541 66.19 38.0141 66.19C37.5808 66.19 37.2008 66.29 36.8741 66.49C36.5474 66.69 36.2908 66.9633 36.1041 67.31C35.9174 67.6567 35.8241 68.0533 35.8241 68.5ZM34.3141 68.5C34.3141 67.9667 34.4074 67.48 34.5941 67.04C34.7808 66.5933 35.0408 66.2067 35.3741 65.88C35.7074 65.5533 36.0974 65.3033 36.5441 65.13C36.9974 64.95 37.4874 64.86 38.0141 64.86C38.5474 64.86 39.0374 64.95 39.4841 65.13C39.9308 65.3033 40.3208 65.5533 40.6541 65.88C40.9941 66.2067 41.2541 66.5933 41.4341 67.04C41.6208 67.48 41.7141 67.9667 41.7141 68.5C41.7141 69.0267 41.6208 69.5167 41.4341 69.97C41.2541 70.4167 40.9974 70.8067 40.6641 71.14C40.3374 71.4733 39.9474 71.7333 39.4941 71.92C39.0474 72.1 38.5541 72.19 38.0141 72.19C37.4741 72.19 36.9774 72.1 36.5241 71.92C36.0774 71.7333 35.6874 71.4733 35.3541 71.14C35.0208 70.8067 34.7641 70.4167 34.5841 69.97C34.4041 69.5167 34.3141 69.0267 34.3141 68.5ZM44.4096 68.74H45.9196L48.1996 72H46.5096L44.4096 68.74ZM42.8196 65H44.2496V72H42.8196V65ZM43.6896 66.22V65H45.1696C45.7229 65 46.1929 65.0933 46.5796 65.28C46.9662 65.4667 47.2629 65.7267 47.4696 66.06C47.6762 66.3933 47.7796 66.7833 47.7796 67.23C47.7796 67.67 47.6762 68.06 47.4696 68.4C47.2629 68.7333 46.9662 68.9933 46.5796 69.18C46.1929 69.3667 45.7229 69.46 45.1696 69.46H43.6896V68.32H45.0796C45.3329 68.32 45.5496 68.28 45.7296 68.2C45.9162 68.1133 46.0596 67.9933 46.1596 67.84C46.2596 67.68 46.3096 67.49 46.3096 67.27C46.3096 67.05 46.2596 66.8633 46.1596 66.71C46.0596 66.55 45.9162 66.43 45.7296 66.35C45.5496 66.2633 45.3329 66.22 45.0796 66.22H43.6896ZM49.9407 72V70.79H53.4707V72H49.9407ZM49.9407 66.21V65H53.4707V66.21H49.9407ZM49.9407 68.88V67.69H53.2707V68.88H49.9407ZM49.0207 65H50.4007V72H49.0207V65ZM56.4201 68.07L55.9701 72H54.4801L55.5201 64.65L58.4501 69.17L61.3801 64.65L62.4201 72H60.9301L60.4801 68.07L58.4501 71.35L56.4201 68.07Z" fill="#222222"/>
<path opacity="0.4" d="M46 59.6667C52.4433 59.6667 57.6667 54.4434 57.6667 48C57.6667 41.5567 52.4433 36.3334 46 36.3334C39.5567 36.3334 34.3333 41.5567 34.3333 48C34.3333 54.4434 39.5567 59.6667 46 59.6667Z" fill="#B2007A"/>
<path d="M50.1183 46.7983L46.6183 43.2983C46.28 42.96 45.72 42.96 45.3817 43.2983L41.8817 46.7983C41.5433 47.1366 41.5433 47.6966 41.8817 48.035C42.22 48.3733 42.78 48.3733 43.1183 48.035L45.125 46.0283V52.0833C45.125 52.5616 45.5217 52.9583 46 52.9583C46.4783 52.9583 46.875 52.5616 46.875 52.0833V46.0283L48.8817 48.035C49.0567 48.21 49.2783 48.2916 49.5 48.2916C49.7217 48.2916 49.9433 48.21 50.1183 48.035C50.4567 47.6966 50.4567 47.1366 50.1183 46.7983Z" fill="#B2007A"/>
<path opacity="0.5" d="M36.9466 28.87V28.48H37.6246C37.7486 28.48 37.8566 28.46 37.9486 28.42C38.0406 28.38 38.1106 28.322 38.1586 28.246C38.2106 28.17 38.2366 28.08 38.2366 27.976C38.2366 27.816 38.1806 27.694 38.0686 27.61C37.9606 27.526 37.8126 27.484 37.6246 27.484H37.1626V30.316H37.7146C37.8586 30.316 37.9886 30.296 38.1046 30.256C38.2206 30.212 38.3106 30.144 38.3746 30.052C38.4426 29.96 38.4766 29.842 38.4766 29.698C38.4766 29.594 38.4566 29.506 38.4166 29.434C38.3806 29.358 38.3266 29.296 38.2546 29.248C38.1866 29.196 38.1066 29.16 38.0146 29.14C37.9226 29.116 37.8226 29.104 37.7146 29.104H36.9466V28.636H37.7926C37.9966 28.636 38.1906 28.658 38.3746 28.702C38.5626 28.746 38.7306 28.816 38.8786 28.912C39.0266 29.004 39.1426 29.124 39.2266 29.272C39.3146 29.42 39.3586 29.598 39.3586 29.806C39.3586 30.082 39.2926 30.308 39.1606 30.484C39.0326 30.66 38.8506 30.79 38.6146 30.874C38.3786 30.958 38.1046 31 37.7926 31H36.3046V26.8H37.7026C37.9826 26.8 38.2286 26.84 38.4406 26.92C38.6526 26.996 38.8186 27.112 38.9386 27.268C39.0586 27.424 39.1186 27.622 39.1186 27.862C39.1186 28.074 39.0586 28.256 38.9386 28.408C38.8186 28.56 38.6526 28.676 38.4406 28.756C38.2286 28.832 37.9826 28.87 37.7026 28.87H36.9466ZM40.7558 28.9C40.7558 29.168 40.8118 29.406 40.9238 29.614C41.0358 29.822 41.1898 29.986 41.3858 30.106C41.5818 30.226 41.8098 30.286 42.0698 30.286C42.3298 30.286 42.5578 30.226 42.7538 30.106C42.9498 29.986 43.1018 29.822 43.2098 29.614C43.3218 29.406 43.3778 29.168 43.3778 28.9C43.3778 28.632 43.3238 28.394 43.2158 28.186C43.1078 27.978 42.9558 27.814 42.7598 27.694C42.5638 27.574 42.3338 27.514 42.0698 27.514C41.8098 27.514 41.5818 27.574 41.3858 27.694C41.1898 27.814 41.0358 27.978 40.9238 28.186C40.8118 28.394 40.7558 28.632 40.7558 28.9ZM39.8498 28.9C39.8498 28.58 39.9058 28.288 40.0178 28.024C40.1298 27.756 40.2858 27.524 40.4858 27.328C40.6858 27.132 40.9198 26.982 41.1878 26.878C41.4598 26.77 41.7538 26.716 42.0698 26.716C42.3898 26.716 42.6838 26.77 42.9518 26.878C43.2198 26.982 43.4538 27.132 43.6538 27.328C43.8578 27.524 44.0138 27.756 44.1218 28.024C44.2338 28.288 44.2898 28.58 44.2898 28.9C44.2898 29.216 44.2338 29.51 44.1218 29.782C44.0138 30.05 43.8598 30.284 43.6598 30.484C43.4638 30.684 43.2298 30.84 42.9578 30.952C42.6898 31.06 42.3938 31.114 42.0698 31.114C41.7458 31.114 41.4478 31.06 41.1758 30.952C40.9078 30.84 40.6738 30.684 40.4738 30.484C40.2738 30.284 40.1198 30.05 40.0118 29.782C39.9038 29.51 39.8498 29.216 39.8498 28.9ZM45.6191 28.9C45.6191 29.168 45.6751 29.406 45.7871 29.614C45.8991 29.822 46.0531 29.986 46.2491 30.106C46.4451 30.226 46.6731 30.286 46.9331 30.286C47.1931 30.286 47.4211 30.226 47.6171 30.106C47.8131 29.986 47.9651 29.822 48.0731 29.614C48.1851 29.406 48.2411 29.168 48.2411 28.9C48.2411 28.632 48.1871 28.394 48.0791 28.186C47.9711 27.978 47.8191 27.814 47.6231 27.694C47.4271 27.574 47.1971 27.514 46.9331 27.514C46.6731 27.514 46.4451 27.574 46.2491 27.694C46.0531 27.814 45.8991 27.978 45.7871 28.186C45.6751 28.394 45.6191 28.632 45.6191 28.9ZM44.7131 28.9C44.7131 28.58 44.7691 28.288 44.8811 28.024C44.9931 27.756 45.1491 27.524 45.3491 27.328C45.5491 27.132 45.7831 26.982 46.0511 26.878C46.3231 26.77 46.6171 26.716 46.9331 26.716C47.2531 26.716 47.5471 26.77 47.8151 26.878C48.0831 26.982 48.3171 27.132 48.5171 27.328C48.7211 27.524 48.8771 27.756 48.9851 28.024C49.0971 28.288 49.1531 28.58 49.1531 28.9C49.1531 29.216 49.0971 29.51 48.9851 29.782C48.8771 30.05 48.7231 30.284 48.5231 30.484C48.3271 30.684 48.0931 30.84 47.8211 30.952C47.5531 31.06 47.2571 31.114 46.9331 31.114C46.6091 31.114 46.3111 31.06 46.0391 30.952C45.7711 30.84 45.5371 30.684 45.3371 30.484C45.1371 30.284 44.9831 30.05 44.8751 29.782C44.7671 29.51 44.7131 29.216 44.7131 28.9ZM50.1824 29.59C50.2704 29.746 50.3664 29.882 50.4704 29.998C50.5784 30.114 50.6964 30.204 50.8244 30.268C50.9524 30.332 51.0904 30.364 51.2384 30.364C51.4104 30.364 51.5504 30.32 51.6584 30.232C51.7664 30.144 51.8204 30.024 51.8204 29.872C51.8204 29.74 51.7864 29.634 51.7184 29.554C51.6544 29.474 51.5564 29.404 51.4244 29.344C51.2964 29.28 51.1384 29.212 50.9504 29.14C50.8504 29.104 50.7344 29.056 50.6024 28.996C50.4744 28.932 50.3524 28.852 50.2364 28.756C50.1204 28.656 50.0244 28.536 49.9484 28.396C49.8724 28.252 49.8344 28.08 49.8344 27.88C49.8344 27.64 49.8944 27.434 50.0144 27.262C50.1384 27.086 50.3044 26.952 50.5124 26.86C50.7244 26.764 50.9604 26.716 51.2204 26.716C51.4884 26.716 51.7184 26.762 51.9104 26.854C52.1064 26.942 52.2684 27.056 52.3964 27.196C52.5284 27.332 52.6304 27.474 52.7024 27.622L52.0304 27.994C51.9744 27.894 51.9064 27.804 51.8264 27.724C51.7504 27.64 51.6624 27.574 51.5624 27.526C51.4624 27.474 51.3484 27.448 51.2204 27.448C51.0524 27.448 50.9264 27.488 50.8424 27.568C50.7584 27.644 50.7164 27.734 50.7164 27.838C50.7164 27.942 50.7504 28.034 50.8184 28.114C50.8864 28.19 50.9904 28.264 51.1304 28.336C51.2704 28.404 51.4464 28.474 51.6584 28.546C51.7944 28.594 51.9244 28.654 52.0484 28.726C52.1764 28.798 52.2904 28.886 52.3904 28.99C52.4944 29.09 52.5744 29.21 52.6304 29.35C52.6904 29.486 52.7204 29.644 52.7204 29.824C52.7204 30.028 52.6804 30.21 52.6004 30.37C52.5204 30.53 52.4104 30.666 52.2704 30.778C52.1304 30.886 51.9724 30.968 51.7964 31.024C51.6244 31.084 51.4424 31.114 51.2504 31.114C50.9944 31.114 50.7544 31.066 50.5304 30.97C50.3104 30.87 50.1184 30.736 49.9544 30.568C49.7904 30.4 49.6624 30.218 49.5704 30.022L50.1824 29.59ZM52.9999 27.574V26.8H56.1199V27.574H54.9859V31H54.1279V27.574H52.9999Z" fill="#222222"/>
<defs>
<filter id="filter0_bd_76_925" x="-44" y="-43.3995" width="179" height="186.985" filterUnits="userSpaceOnUse" color-interpolation-filters="sRGB">
<feFlood flood-opacity="0" result="BackgroundImageFix"/>
<feGaussianBlur in="BackgroundImageFix" stdDeviation="27"/>
<feComposite in2="SourceAlpha" operator="in" result="effect1_backgroundBlur_76_925"/>
<feColorMatrix in="SourceAlpha" type="matrix" values="0 0 0 0 0 0 0 0 0 0 0 0 0 0 0 0 0 0 127 0" result="hardAlpha"/>
<feOffset/>
<feGaussianBlur stdDeviation="5"/>
<feComposite in2="hardAlpha" operator="out"/>
<feColorMatrix type="matrix" values="0 0 0 0 0 0 0 0 0 0 0 0 0 0 0 0 0 0 0.3 0"/>
<feBlend mode="normal" in2="effect1_backgroundBlur_76_925" result="effect2_dropShadow_76_925"/>
<feBlend mode="normal" in="SourceGraphic" in2="effect2_dropShadow_76_925" result="shape"/>
</filter>
<filter id="filter1_bd_76_925" x="-40" y="-38.3026" width="171" height="176.791" filterUnits="userSpaceOnUse" color-interpolation-filters="sRGB">
<feFlood flood-opacity="0" result="BackgroundImageFix"/>
<feGaussianBlur in="BackgroundImageFix" stdDeviation="27"/>
<feComposite in2="SourceAlpha" operator="in" result="effect1_backgroundBlur_76_925"/>
<feColorMatrix in="SourceAlpha" type="matrix" values="0 0 0 0 0 0 0 0 0 0 0 0 0 0 0 0 0 0 127 0" result="hardAlpha"/>
<feOffset/>
<feGaussianBlur stdDeviation="5"/>
<feComposite in2="hardAlpha" operator="out"/>
<feColorMatrix type="matrix" values="0 0 0 0 0 0 0 0 0 0 0 0 0 0 0 0 0 0 0.3 0"/>
<feBlend mode="normal" in2="effect1_backgroundBlur_76_925" result="effect2_dropShadow_76_925"/>
<feBlend mode="normal" in="SourceGraphic" in2="effect2_dropShadow_76_925" result="shape"/>
</filter>
<linearGradient id="paint0_linear_76_925" x1="84.8587" y1="0.679499" x2="54.888" y2="-25.013" gradientUnits="userSpaceOnUse">
<stop stop-color="white" stop-opacity="0"/>
<stop offset="1" stop-color="white"/>
</linearGradient>
<linearGradient id="paint1_linear_76_925" x1="64.7935" y1="92.1857" x2="42.2632" y2="73.6909" gradientUnits="userSpaceOnUse">
<stop stop-color="white"/>
<stop offset="1" stop-color="white" stop-opacity="0"/>
</linearGradient>
<linearGradient id="paint2_linear_76_925" x1="80.4239" y1="6.54906" x2="53.986" y2="-16.272" gradientUnits="userSpaceOnUse">
<stop stop-color="white" stop-opacity="0"/>
<stop offset="1" stop-color="white"/>
</linearGradient>
<linearGradient id="paint3_linear_76_925" x1="62.6196" y1="87.1857" x2="42.7392" y2="70.7531" gradientUnits="userSpaceOnUse">
<stop stop-color="white"/>
<stop offset="1" stop-color="white" stop-opacity="0"/>
</linearGradient>
</defs>
</svg>
