<svg width="91" height="100" viewBox="0 0 91 100" fill="none" xmlns="http://www.w3.org/2000/svg">
<g filter="url(#filter0_bd_1_502)">
<path d="M32.4448 15.7399C37.1944 12.924 39.5692 11.5161 42.1011 10.9657C44.3409 10.4788 46.6591 10.4788 48.8989 10.9657C51.4308 11.5161 53.8056 12.924 58.5553 15.7399L68.4553 21.6092C73.0284 24.3204 75.3149 25.676 76.9765 27.5516C78.4468 29.2114 79.5561 31.1586 80.2339 33.2697C81 35.6555 81 38.3137 81 43.6301V56.5556C81 61.872 81 64.5302 80.2339 66.916C79.5561 69.0271 78.4468 70.9744 76.9765 72.6341C75.3149 74.5097 73.0284 75.8653 68.4553 78.5765L58.5552 84.4458C53.8056 87.2617 51.4308 88.6696 48.8989 89.22C46.6591 89.7069 44.3409 89.7069 42.1011 89.22C39.5692 88.6696 37.1944 87.2617 32.4447 84.4458L22.5447 78.5765C17.9716 75.8653 15.6851 74.5097 14.0235 72.6341C12.5532 70.9744 11.4439 69.0271 10.7661 66.916C10 64.5302 10 61.872 10 56.5556V43.6301C10 38.3137 10 35.6555 10.7661 33.2697C11.4439 31.1586 12.5532 29.2114 14.0235 27.5516C15.6851 25.676 17.9716 24.3204 22.5447 21.6092L32.4448 15.7399Z" fill="black" fill-opacity="0.1" shape-rendering="crispEdges"/>
<path d="M32.5722 15.9549C37.3368 13.1302 39.6713 11.7497 42.1542 11.21C44.359 10.7307 46.641 10.7307 48.8458 11.21C51.3287 11.7497 53.6632 13.1302 58.4278 15.9549L68.3278 21.8242C72.9152 24.5439 75.1599 25.878 76.7894 27.7174C78.2367 29.3512 79.3286 31.268 79.9959 33.3461C80.7472 35.6858 80.75 38.2971 80.75 43.6301V56.5556C80.75 61.8887 80.7472 64.4999 79.9959 66.8396C79.3286 68.9177 78.2367 70.8345 76.7894 72.4683C75.1599 74.3077 72.9152 75.6418 68.3278 78.3615L58.4277 84.2308C53.6632 87.0555 51.3287 88.436 48.8458 88.9757C46.641 89.455 44.359 89.455 42.1542 88.9757C39.6713 88.436 37.3368 87.0555 32.5722 84.2308L22.6722 78.3615C18.0848 75.6418 15.8401 74.3077 14.2106 72.4683C12.7633 70.8345 11.6714 68.9177 11.0041 66.8396C10.2528 64.4999 10.25 61.8887 10.25 56.5556V43.6301C10.25 38.2971 10.2528 35.6858 11.0041 33.3461C11.6714 31.268 12.7633 29.3512 14.2106 27.7174C15.8401 25.878 18.0848 24.5439 22.6722 21.8242L32.5722 15.9549Z" stroke="url(#paint0_linear_1_502)" stroke-width="0.5" shape-rendering="crispEdges"/>
<path d="M32.5722 15.9549C37.3368 13.1302 39.6713 11.7497 42.1542 11.21C44.359 10.7307 46.641 10.7307 48.8458 11.21C51.3287 11.7497 53.6632 13.1302 58.4278 15.9549L68.3278 21.8242C72.9152 24.5439 75.1599 25.878 76.7894 27.7174C78.2367 29.3512 79.3286 31.268 79.9959 33.3461C80.7472 35.6858 80.75 38.2971 80.75 43.6301V56.5556C80.75 61.8887 80.7472 64.4999 79.9959 66.8396C79.3286 68.9177 78.2367 70.8345 76.7894 72.4683C75.1599 74.3077 72.9152 75.6418 68.3278 78.3615L58.4277 84.2308C53.6632 87.0555 51.3287 88.436 48.8458 88.9757C46.641 89.455 44.359 89.455 42.1542 88.9757C39.6713 88.436 37.3368 87.0555 32.5722 84.2308L22.6722 78.3615C18.0848 75.6418 15.8401 74.3077 14.2106 72.4683C12.7633 70.8345 11.6714 68.9177 11.0041 66.8396C10.2528 64.4999 10.25 61.8887 10.25 56.5556V43.6301C10.25 38.2971 10.2528 35.6858 11.0041 33.3461C11.6714 31.268 12.7633 29.3512 14.2106 27.7174C15.8401 25.878 18.0848 24.5439 22.6722 21.8242L32.5722 15.9549Z" stroke="url(#paint1_linear_1_502)" stroke-width="0.5" shape-rendering="crispEdges"/>
</g>
<g filter="url(#filter1_bd_1_502)">
<path d="M35.5656 19.0068C39.1761 16.8237 40.9814 15.7322 42.9101 15.3059C44.6161 14.9288 46.3839 14.9288 48.0898 15.3059C50.0186 15.7322 51.8239 16.8237 55.4344 19.0068L67.7344 26.444C71.1138 28.4874 72.8035 29.509 74.0306 30.9112C75.1165 32.1521 75.935 33.6035 76.435 35.1748C77 36.9504 77 38.925 77 42.8741V57.3116C77 61.2607 77 63.2353 76.435 65.0109C75.935 66.5822 75.1165 68.0336 74.0306 69.2745C72.8035 70.6767 71.1138 71.6984 67.7344 73.7417L55.4344 81.1789C51.8239 83.362 50.0186 84.4535 48.0898 84.8798C46.3839 85.2569 44.6161 85.2569 42.9101 84.8798C40.9814 84.4535 39.1761 83.362 35.5656 81.1789L23.2656 73.7417C19.8862 71.6984 18.1965 70.6767 16.9694 69.2745C15.8835 68.0336 15.065 66.5822 14.565 65.0109C14 63.2353 14 61.2607 14 57.3116V42.8741C14 38.925 14 36.9504 14.565 35.1748C15.065 33.6035 15.8835 32.1521 16.9694 30.9112C18.1965 29.509 19.8862 28.4874 23.2656 26.444L35.5656 19.0068Z" fill="black" fill-opacity="0.4" shape-rendering="crispEdges"/>
<path d="M35.6949 19.2208C39.3206 17.0285 41.0851 15.9653 42.9641 15.55C44.6345 15.1808 46.3655 15.1808 48.0359 15.55C49.9149 15.9653 51.6794 17.0285 55.3051 19.2208L67.6051 26.6579C70.9985 28.7098 72.647 29.7098 73.8424 31.0759C74.9057 32.2909 75.7071 33.7121 76.1967 35.2507C76.7472 36.9805 76.75 38.9085 76.75 42.8741V57.3116C76.75 61.2772 76.7472 63.2052 76.1967 64.9351C75.7071 66.4736 74.9057 67.8948 73.8424 69.1098C72.647 70.4759 70.9985 71.4759 67.6051 73.5278L55.3051 80.965C51.6794 83.1572 49.9149 84.2204 48.0359 84.6357C46.3655 85.005 44.6345 85.005 42.9641 84.6357C41.0851 84.2204 39.3206 83.1572 35.6949 80.9649L23.3949 73.5278C20.0015 71.4759 18.353 70.4759 17.1576 69.1098C16.0943 67.8948 15.2929 66.4736 14.8033 64.9351C14.2528 63.2052 14.25 61.2772 14.25 57.3116V42.8741C14.25 38.9085 14.2528 36.9805 14.8033 35.2507C15.2929 33.7121 16.0943 32.2909 17.1576 31.0759C18.353 29.7098 20.0015 28.7098 23.3949 26.6579L35.6949 19.2208Z" stroke="url(#paint2_linear_1_502)" stroke-width="0.5" shape-rendering="crispEdges"/>
<path d="M35.6949 19.2208C39.3206 17.0285 41.0851 15.9653 42.9641 15.55C44.6345 15.1808 46.3655 15.1808 48.0359 15.55C49.9149 15.9653 51.6794 17.0285 55.3051 19.2208L67.6051 26.6579C70.9985 28.7098 72.647 29.7098 73.8424 31.0759C74.9057 32.2909 75.7071 33.7121 76.1967 35.2507C76.7472 36.9805 76.75 38.9085 76.75 42.8741V57.3116C76.75 61.2772 76.7472 63.2052 76.1967 64.9351C75.7071 66.4736 74.9057 67.8948 73.8424 69.1098C72.647 70.4759 70.9985 71.4759 67.6051 73.5278L55.3051 80.965C51.6794 83.1572 49.9149 84.2204 48.0359 84.6357C46.3655 85.005 44.6345 85.005 42.9641 84.6357C41.0851 84.2204 39.3206 83.1572 35.6949 80.9649L23.3949 73.5278C20.0015 71.4759 18.353 70.4759 17.1576 69.1098C16.0943 67.8948 15.2929 66.4736 14.8033 64.9351C14.2528 63.2052 14.25 61.2772 14.25 57.3116V42.8741C14.25 38.9085 14.2528 36.9805 14.8033 35.2507C15.2929 33.7121 16.0943 32.2909 17.1576 31.0759C18.353 29.7098 20.0015 28.7098 23.3949 26.6579L35.6949 19.2208Z" stroke="url(#paint3_linear_1_502)" stroke-width="0.5" shape-rendering="crispEdges"/>
</g>
<path d="M39.8909 68.59V67.9C40.0976 67.9 40.2809 67.8733 40.4409 67.82C40.6076 67.7667 40.7476 67.6933 40.8609 67.6C40.9743 67.5 41.0609 67.39 41.1209 67.27C41.1876 67.1433 41.2209 67.0133 41.2209 66.88C41.2209 66.7133 41.1876 66.5667 41.1209 66.44C41.0543 66.3133 40.9576 66.2167 40.8309 66.15C40.7043 66.0833 40.5409 66.05 40.3409 66.05C40.0609 66.05 39.8243 66.1367 39.6309 66.31C39.4443 66.4767 39.3509 66.69 39.3509 66.95H38.0209C38.0209 66.55 38.1176 66.1967 38.3109 65.89C38.5109 65.5767 38.7843 65.33 39.1309 65.15C39.4776 64.97 39.8809 64.88 40.3409 64.88C40.8276 64.88 41.2409 64.9667 41.5809 65.14C41.9276 65.3133 42.1909 65.5433 42.3709 65.83C42.5509 66.1167 42.6409 66.4367 42.6409 66.79C42.6409 67.17 42.5209 67.4967 42.2809 67.77C42.0409 68.0367 41.7143 68.24 41.3009 68.38C40.8876 68.52 40.4176 68.59 39.8909 68.59ZM40.2809 72.14C39.8809 72.14 39.5243 72.08 39.2109 71.96C38.8976 71.84 38.6309 71.6767 38.4109 71.47C38.1909 71.2567 38.0209 71.0167 37.9009 70.75C37.7809 70.4767 37.7209 70.19 37.7209 69.89H39.1409C39.1409 70.1167 39.1943 70.31 39.3009 70.47C39.4076 70.63 39.5509 70.7533 39.7309 70.84C39.9109 70.92 40.1076 70.96 40.3209 70.96C40.5409 70.96 40.7309 70.9233 40.8909 70.85C41.0576 70.77 41.1876 70.6567 41.2809 70.51C41.3743 70.3633 41.4209 70.18 41.4209 69.96C41.4209 69.8 41.3876 69.6533 41.3209 69.52C41.2543 69.38 41.1543 69.2633 41.0209 69.17C40.8943 69.0767 40.7343 69.0067 40.5409 68.96C40.3543 68.9067 40.1376 68.88 39.8909 68.88V68.12C40.3176 68.12 40.7076 68.1567 41.0609 68.23C41.4209 68.3033 41.7343 68.4233 42.0009 68.59C42.2676 68.75 42.4743 68.9567 42.6209 69.21C42.7676 69.4567 42.8409 69.7567 42.8409 70.11C42.8409 70.51 42.7343 70.8633 42.5209 71.17C42.3143 71.4767 42.0176 71.7167 41.6309 71.89C41.2509 72.0567 40.8009 72.14 40.2809 72.14ZM47.4213 65H48.6713L44.4713 73.5H43.1813L47.4213 65ZM51.5023 68.59V67.9C51.7089 67.9 51.8923 67.8733 52.0523 67.82C52.2189 67.7667 52.3589 67.6933 52.4723 67.6C52.5856 67.5 52.6723 67.39 52.7323 67.27C52.7989 67.1433 52.8323 67.0133 52.8323 66.88C52.8323 66.7133 52.7989 66.5667 52.7323 66.44C52.6656 66.3133 52.5689 66.2167 52.4423 66.15C52.3156 66.0833 52.1523 66.05 51.9523 66.05C51.6723 66.05 51.4356 66.1367 51.2423 66.31C51.0556 66.4767 50.9623 66.69 50.9623 66.95H49.6323C49.6323 66.55 49.7289 66.1967 49.9223 65.89C50.1223 65.5767 50.3956 65.33 50.7423 65.15C51.0889 64.97 51.4923 64.88 51.9523 64.88C52.4389 64.88 52.8523 64.9667 53.1923 65.14C53.5389 65.3133 53.8023 65.5433 53.9823 65.83C54.1623 66.1167 54.2523 66.4367 54.2523 66.79C54.2523 67.17 54.1323 67.4967 53.8923 67.77C53.6523 68.0367 53.3256 68.24 52.9123 68.38C52.4989 68.52 52.0289 68.59 51.5023 68.59ZM51.8923 72.14C51.4923 72.14 51.1356 72.08 50.8223 71.96C50.5089 71.84 50.2423 71.6767 50.0223 71.47C49.8023 71.2567 49.6323 71.0167 49.5123 70.75C49.3923 70.4767 49.3323 70.19 49.3323 69.89H50.7523C50.7523 70.1167 50.8056 70.31 50.9123 70.47C51.0189 70.63 51.1623 70.7533 51.3423 70.84C51.5223 70.92 51.7189 70.96 51.9323 70.96C52.1523 70.96 52.3423 70.9233 52.5023 70.85C52.6689 70.77 52.7989 70.6567 52.8923 70.51C52.9856 70.3633 53.0323 70.18 53.0323 69.96C53.0323 69.8 52.9989 69.6533 52.9323 69.52C52.8656 69.38 52.7656 69.2633 52.6323 69.17C52.5056 69.0767 52.3456 69.0067 52.1523 68.96C51.9656 68.9067 51.7489 68.88 51.5023 68.88V68.12C51.9289 68.12 52.3189 68.1567 52.6723 68.23C53.0323 68.3033 53.3456 68.4233 53.6123 68.59C53.8789 68.75 54.0856 68.9567 54.2323 69.21C54.3789 69.4567 54.4523 69.7567 54.4523 70.11C54.4523 70.51 54.3456 70.8633 54.1323 71.17C53.9256 71.4767 53.6289 71.7167 53.2423 71.89C52.8623 72.0567 52.4123 72.14 51.8923 72.14Z" fill="white"/>
<g filter="url(#filter2_d_1_502)">
<path d="M51.18 37.6167C49.0683 37.6167 47.1783 38.6433 46 40.2183C44.8217 38.6433 42.9317 37.6167 40.82 37.6167C37.2383 37.6167 34.3333 40.5333 34.3333 44.1383C34.3333 45.5267 34.555 46.81 34.94 48C36.7833 53.8333 42.465 57.3217 45.2767 58.2783C45.6733 58.4183 46.3267 58.4183 46.7233 58.2783C49.535 57.3217 55.2167 53.8333 57.06 48C57.445 46.81 57.6667 45.5267 57.6667 44.1383C57.6667 40.5333 54.7617 37.6167 51.18 37.6167Z" fill="url(#paint4_linear_1_502)"/>
</g>
<path opacity="0.5" d="M40.6904 26.8H41.5484V30.25H43.2224V31H40.6904V26.8ZM43.7138 26.8H44.5838V31H43.7138V26.8ZM46.0412 27.55V26.8H47.9192V27.55H46.0412ZM46.0412 29.206V28.492H47.8592V29.206H46.0412ZM45.4892 26.8H46.3172V31H45.4892V26.8ZM49.258 31V30.274H51.376V31H49.258ZM49.258 27.526V26.8H51.376V27.526H49.258ZM49.258 29.128V28.414H51.256V29.128H49.258ZM48.706 26.8H49.534V31H48.706V26.8Z" fill="white"/>
<g filter="url(#filter3_d_1_502)">
<path d="M33.176 41.5067C31.6754 42.0494 30.5962 43.2648 30.1636 44.6868C28.9215 43.8704 27.3145 43.6266 25.8139 44.1693C23.2687 45.0898 21.9539 47.9091 22.8804 50.4709C23.2372 51.4574 23.7246 52.3124 24.304 53.0591C27.1131 56.7307 32.0472 57.7494 34.2911 57.7066C34.6089 57.7042 35.0732 57.5363 35.3191 57.3348C37.0713 55.9324 40.2123 51.9933 40.0231 47.3742C39.9908 46.4296 39.8185 45.4607 39.4617 44.4741C38.5352 41.9123 35.7212 40.5862 33.176 41.5067Z" fill="url(#paint5_linear_1_502)"/>
</g>
<g filter="url(#filter4_d_1_502)">
<path d="M60.1511 41.5067C61.6517 42.0494 62.731 43.2648 63.1635 44.6868C64.4057 43.8704 66.0126 43.6266 67.5132 44.1693C70.0585 45.0898 71.3732 47.9091 70.4467 50.4709C70.0899 51.4574 69.6026 52.3124 69.0232 53.0591C66.214 56.7307 61.28 57.7494 59.0361 57.7066C58.7182 57.7042 58.2539 57.5363 58.008 57.3348C56.2559 55.9324 53.1148 51.9933 53.3041 47.3742C53.3363 46.4296 53.5086 45.4607 53.8655 44.4741C54.792 41.9123 57.6059 40.5862 60.1511 41.5067Z" fill="url(#paint6_linear_1_502)"/>
</g>
<defs>
<filter id="filter0_bd_1_502" x="-44" y="-43.3995" width="179" height="186.985" filterUnits="userSpaceOnUse" color-interpolation-filters="sRGB">
<feFlood flood-opacity="0" result="BackgroundImageFix"/>
<feGaussianBlur in="BackgroundImageFix" stdDeviation="27"/>
<feComposite in2="SourceAlpha" operator="in" result="effect1_backgroundBlur_1_502"/>
<feColorMatrix in="SourceAlpha" type="matrix" values="0 0 0 0 0 0 0 0 0 0 0 0 0 0 0 0 0 0 127 0" result="hardAlpha"/>
<feOffset/>
<feGaussianBlur stdDeviation="5"/>
<feComposite in2="hardAlpha" operator="out"/>
<feColorMatrix type="matrix" values="0 0 0 0 0 0 0 0 0 0 0 0 0 0 0 0 0 0 0.8 0"/>
<feBlend mode="normal" in2="effect1_backgroundBlur_1_502" result="effect2_dropShadow_1_502"/>
<feBlend mode="normal" in="SourceGraphic" in2="effect2_dropShadow_1_502" result="shape"/>
</filter>
<filter id="filter1_bd_1_502" x="-40" y="-38.9769" width="171" height="178.14" filterUnits="userSpaceOnUse" color-interpolation-filters="sRGB">
<feFlood flood-opacity="0" result="BackgroundImageFix"/>
<feGaussianBlur in="BackgroundImageFix" stdDeviation="27"/>
<feComposite in2="SourceAlpha" operator="in" result="effect1_backgroundBlur_1_502"/>
<feColorMatrix in="SourceAlpha" type="matrix" values="0 0 0 0 0 0 0 0 0 0 0 0 0 0 0 0 0 0 127 0" result="hardAlpha"/>
<feOffset/>
<feGaussianBlur stdDeviation="5"/>
<feComposite in2="hardAlpha" operator="out"/>
<feColorMatrix type="matrix" values="0 0 0 0 0 0 0 0 0 0 0 0 0 0 0 0 0 0 0.8 0"/>
<feBlend mode="normal" in2="effect1_backgroundBlur_1_502" result="effect2_dropShadow_1_502"/>
<feBlend mode="normal" in="SourceGraphic" in2="effect2_dropShadow_1_502" result="shape"/>
</filter>
<filter id="filter2_d_1_502" x="28" y="30" width="36" height="36" filterUnits="userSpaceOnUse" color-interpolation-filters="sRGB">
<feFlood flood-opacity="0" result="BackgroundImageFix"/>
<feColorMatrix in="SourceAlpha" type="matrix" values="0 0 0 0 0 0 0 0 0 0 0 0 0 0 0 0 0 0 127 0" result="hardAlpha"/>
<feOffset/>
<feGaussianBlur stdDeviation="2"/>
<feComposite in2="hardAlpha" operator="out"/>
<feColorMatrix type="matrix" values="0 0 0 0 0 0 0 0 0 0 0 0 0 0 0 0 0 0 0.4 0"/>
<feBlend mode="normal" in2="BackgroundImageFix" result="effect1_dropShadow_1_502"/>
<feBlend mode="normal" in="SourceGraphic" in2="effect1_dropShadow_1_502" result="shape"/>
</filter>
<filter id="filter3_d_1_502" x="14.6167" y="32.6699" width="35.0936" height="35.0936" filterUnits="userSpaceOnUse" color-interpolation-filters="sRGB">
<feFlood flood-opacity="0" result="BackgroundImageFix"/>
<feColorMatrix in="SourceAlpha" type="matrix" values="0 0 0 0 0 0 0 0 0 0 0 0 0 0 0 0 0 0 127 0" result="hardAlpha"/>
<feOffset/>
<feGaussianBlur stdDeviation="2"/>
<feComposite in2="hardAlpha" operator="out"/>
<feColorMatrix type="matrix" values="0 0 0 0 0 0 0 0 0 0 0 0 0 0 0 0 0 0 0.4 0"/>
<feBlend mode="normal" in2="BackgroundImageFix" result="effect1_dropShadow_1_502"/>
<feBlend mode="normal" in="SourceGraphic" in2="effect1_dropShadow_1_502" result="shape"/>
</filter>
<filter id="filter4_d_1_502" x="43.6168" y="32.6699" width="35.0936" height="35.0936" filterUnits="userSpaceOnUse" color-interpolation-filters="sRGB">
<feFlood flood-opacity="0" result="BackgroundImageFix"/>
<feColorMatrix in="SourceAlpha" type="matrix" values="0 0 0 0 0 0 0 0 0 0 0 0 0 0 0 0 0 0 127 0" result="hardAlpha"/>
<feOffset/>
<feGaussianBlur stdDeviation="2"/>
<feComposite in2="hardAlpha" operator="out"/>
<feColorMatrix type="matrix" values="0 0 0 0 0 0 0 0 0 0 0 0 0 0 0 0 0 0 0.4 0"/>
<feBlend mode="normal" in2="BackgroundImageFix" result="effect1_dropShadow_1_502"/>
<feBlend mode="normal" in="SourceGraphic" in2="effect1_dropShadow_1_502" result="shape"/>
</filter>
<linearGradient id="paint0_linear_1_502" x1="14.9581" y1="0.899999" x2="59.0154" y2="32.2423" gradientUnits="userSpaceOnUse">
<stop stop-color="#696969"/>
<stop offset="1" stop-color="#696969" stop-opacity="0"/>
</linearGradient>
<linearGradient id="paint1_linear_1_502" x1="80.1075" y1="92.1857" x2="42.6323" y2="75.2916" gradientUnits="userSpaceOnUse">
<stop stop-color="#696969"/>
<stop offset="1" stop-color="#696969" stop-opacity="0"/>
</linearGradient>
<linearGradient id="paint2_linear_1_502" x1="15.2573" y1="2.40843" x2="58.2542" y2="33.6548" gradientUnits="userSpaceOnUse">
<stop stop-color="#696969"/>
<stop offset="1" stop-color="#696969" stop-opacity="0"/>
</linearGradient>
<linearGradient id="paint3_linear_1_502" x1="79.7685" y1="90.895" x2="42.9312" y2="73.931" gradientUnits="userSpaceOnUse">
<stop stop-color="#696969"/>
<stop offset="1" stop-color="#696969" stop-opacity="0"/>
</linearGradient>
<linearGradient id="paint4_linear_1_502" x1="46" y1="37.6167" x2="46" y2="58.3833" gradientUnits="userSpaceOnUse">
<stop stop-color="#FF090D"/>
<stop offset="1" stop-color="#990608"/>
</linearGradient>
<linearGradient id="paint5_linear_1_502" x1="29.495" y1="42.838" x2="34.8321" y2="57.5953" gradientUnits="userSpaceOnUse">
<stop stop-color="#FF090D"/>
<stop offset="1" stop-color="#990608"/>
</linearGradient>
<linearGradient id="paint6_linear_1_502" x1="63.8322" y1="42.838" x2="58.4951" y2="57.5953" gradientUnits="userSpaceOnUse">
<stop stop-color="#FF090D"/>
<stop offset="1" stop-color="#990608"/>
</linearGradient>
</defs>
</svg>
