<svg width="91" height="100" viewBox="0 0 91 100" fill="none" xmlns="http://www.w3.org/2000/svg">
<g filter="url(#filter0_bd_76_932)">
<path d="M32.4448 15.7399C37.1944 12.924 39.5692 11.5161 42.1011 10.9657C44.3409 10.4788 46.6591 10.4788 48.8989 10.9657C51.4308 11.5161 53.8056 12.924 58.5553 15.7399L68.4553 21.6092C73.0284 24.3204 75.3149 25.676 76.9765 27.5516C78.4468 29.2114 79.5561 31.1586 80.2339 33.2697C81 35.6555 81 38.3137 81 43.6301V56.5556C81 61.872 81 64.5302 80.2339 66.916C79.5561 69.0271 78.4468 70.9744 76.9765 72.6341C75.3149 74.5097 73.0284 75.8653 68.4553 78.5765L58.5552 84.4458C53.8056 87.2617 51.4308 88.6696 48.8989 89.22C46.6591 89.7069 44.3409 89.7069 42.1011 89.22C39.5692 88.6696 37.1944 87.2617 32.4447 84.4458L22.5447 78.5765C17.9716 75.8653 15.6851 74.5097 14.0235 72.6341C12.5532 70.9744 11.4439 69.0271 10.7661 66.916C10 64.5302 10 61.872 10 56.5556V43.6301C10 38.3137 10 35.6555 10.7661 33.2697C11.4439 31.1586 12.5532 29.2114 14.0235 27.5516C15.6851 25.676 17.9716 24.3204 22.5447 21.6092L32.4448 15.7399Z" fill="white" fill-opacity="0.1" shape-rendering="crispEdges"/>
<path d="M32.5722 15.9549C37.3368 13.1302 39.6713 11.7497 42.1542 11.21C44.359 10.7307 46.641 10.7307 48.8458 11.21C51.3287 11.7497 53.6632 13.1302 58.4278 15.9549L68.3278 21.8242C72.9152 24.5439 75.1599 25.878 76.7894 27.7174C78.2367 29.3512 79.3286 31.268 79.9959 33.3461C80.7472 35.6858 80.75 38.2971 80.75 43.6301V56.5556C80.75 61.8887 80.7472 64.4999 79.9959 66.8396C79.3286 68.9177 78.2367 70.8345 76.7894 72.4683C75.1599 74.3077 72.9152 75.6418 68.3278 78.3615L58.4277 84.2308C53.6632 87.0555 51.3287 88.436 48.8458 88.9757C46.641 89.455 44.359 89.455 42.1542 88.9757C39.6713 88.436 37.3368 87.0555 32.5722 84.2308L22.6722 78.3615C18.0848 75.6418 15.8401 74.3077 14.2106 72.4683C12.7633 70.8345 11.6714 68.9177 11.0041 66.8396C10.2528 64.4999 10.25 61.8887 10.25 56.5556V43.6301C10.25 38.2971 10.2528 35.6858 11.0041 33.3461C11.6714 31.268 12.7633 29.3512 14.2106 27.7174C15.8401 25.878 18.0848 24.5439 22.6722 21.8242L32.5722 15.9549Z" stroke="url(#paint0_linear_76_932)" stroke-opacity="0.5" stroke-width="0.5" shape-rendering="crispEdges"/>
<path d="M32.5722 15.9549C37.3368 13.1302 39.6713 11.7497 42.1542 11.21C44.359 10.7307 46.641 10.7307 48.8458 11.21C51.3287 11.7497 53.6632 13.1302 58.4278 15.9549L68.3278 21.8242C72.9152 24.5439 75.1599 25.878 76.7894 27.7174C78.2367 29.3512 79.3286 31.268 79.9959 33.3461C80.7472 35.6858 80.75 38.2971 80.75 43.6301V56.5556C80.75 61.8887 80.7472 64.4999 79.9959 66.8396C79.3286 68.9177 78.2367 70.8345 76.7894 72.4683C75.1599 74.3077 72.9152 75.6418 68.3278 78.3615L58.4277 84.2308C53.6632 87.0555 51.3287 88.436 48.8458 88.9757C46.641 89.455 44.359 89.455 42.1542 88.9757C39.6713 88.436 37.3368 87.0555 32.5722 84.2308L22.6722 78.3615C18.0848 75.6418 15.8401 74.3077 14.2106 72.4683C12.7633 70.8345 11.6714 68.9177 11.0041 66.8396C10.2528 64.4999 10.25 61.8887 10.25 56.5556V43.6301C10.25 38.2971 10.2528 35.6858 11.0041 33.3461C11.6714 31.268 12.7633 29.3512 14.2106 27.7174C15.8401 25.878 18.0848 24.5439 22.6722 21.8242L32.5722 15.9549Z" stroke="url(#paint1_linear_76_932)" stroke-opacity="0.5" stroke-width="0.5" shape-rendering="crispEdges"/>
</g>
<g filter="url(#filter1_bd_76_932)">
<path d="M32.2541 21.0091C37.0681 18.0983 39.4751 16.6429 42.0469 16.0745C44.3215 15.5717 46.6785 15.5717 48.9531 16.0745C51.5249 16.6429 53.9319 18.0983 58.7459 21.0091L64.6459 24.5765C69.1517 27.301 71.4047 28.6632 73.0407 30.5328C74.4886 32.1874 75.5799 34.1226 76.2466 36.2177C77 38.5851 77 41.2178 77 46.4833V53.7024C77 58.9679 77 61.6006 76.2466 63.9681C75.5799 66.0631 74.4886 67.9983 73.0407 69.6529C71.4047 71.5225 69.1517 72.8847 64.6459 75.6092L58.7459 79.1766C53.9319 82.0874 51.5249 83.5428 48.9531 84.1112C46.6785 84.614 44.3215 84.614 42.0469 84.1112C39.4751 83.5428 37.0681 82.0874 32.2541 79.1766L26.3541 75.6092C21.8483 72.8847 19.5953 71.5225 17.9593 69.6529C16.5114 67.9983 15.4201 66.0631 14.7534 63.9681C14 61.6006 14 58.9679 14 53.7024V46.4833C14 41.2178 14 38.5851 14.7534 36.2177C15.4201 34.1226 16.5114 32.1874 17.9593 30.5328C19.5953 28.6632 21.8483 27.301 26.3541 24.5765L32.2541 21.0091Z" fill="white" fill-opacity="0.5" shape-rendering="crispEdges"/>
<path d="M32.3835 21.223C37.2126 18.3031 39.5789 16.876 42.1008 16.3186C44.3399 15.8237 46.6601 15.8237 48.8992 16.3186C51.4211 16.876 53.7874 18.3031 58.6165 21.223L64.5165 24.7905C69.0365 27.5234 71.2482 28.864 72.8526 30.6975C74.2778 32.3262 75.3521 34.2311 76.0084 36.2935C76.7472 38.6151 76.75 41.2014 76.75 46.4833V53.7024C76.75 58.9843 76.7472 61.5706 76.0084 63.8923C75.3521 65.9546 74.2778 67.8595 72.8526 69.4882C71.2482 71.3217 69.0365 72.6623 64.5165 75.3952L58.6165 78.9627C53.7874 81.8826 51.4211 83.3097 48.8992 83.8671C46.6601 84.362 44.3399 84.362 42.1008 83.8671C39.5789 83.3097 37.2126 81.8826 32.3835 78.9627L26.4835 75.3952C21.9635 72.6623 19.7518 71.3217 18.1474 69.4882C16.7222 67.8595 15.6479 65.9546 14.9916 63.8923C14.2528 61.5706 14.25 58.9843 14.25 53.7024V46.4833C14.25 41.2014 14.2528 38.6151 14.9916 36.2935C15.6479 34.2311 16.7222 32.3262 18.1474 30.6975C19.7518 28.864 21.9635 27.5234 26.4835 24.7905L32.3835 21.223Z" stroke="url(#paint2_linear_76_932)" stroke-opacity="0.5" stroke-width="0.5" shape-rendering="crispEdges"/>
<path d="M32.3835 21.223C37.2126 18.3031 39.5789 16.876 42.1008 16.3186C44.3399 15.8237 46.6601 15.8237 48.8992 16.3186C51.4211 16.876 53.7874 18.3031 58.6165 21.223L64.5165 24.7905C69.0365 27.5234 71.2482 28.864 72.8526 30.6975C74.2778 32.3262 75.3521 34.2311 76.0084 36.2935C76.7472 38.6151 76.75 41.2014 76.75 46.4833V53.7024C76.75 58.9843 76.7472 61.5706 76.0084 63.8923C75.3521 65.9546 74.2778 67.8595 72.8526 69.4882C71.2482 71.3217 69.0365 72.6623 64.5165 75.3952L58.6165 78.9627C53.7874 81.8826 51.4211 83.3097 48.8992 83.8671C46.6601 84.362 44.3399 84.362 42.1008 83.8671C39.5789 83.3097 37.2126 81.8826 32.3835 78.9627L26.4835 75.3952C21.9635 72.6623 19.7518 71.3217 18.1474 69.4882C16.7222 67.8595 15.6479 65.9546 14.9916 63.8923C14.2528 61.5706 14.25 58.9843 14.25 53.7024V46.4833C14.25 41.2014 14.2528 38.6151 14.9916 36.2935C15.6479 34.2311 16.7222 32.3262 18.1474 30.6975C19.7518 28.864 21.9635 27.5234 26.4835 24.7905L32.3835 21.223Z" stroke="url(#paint3_linear_76_932)" stroke-opacity="0.5" stroke-width="0.5" shape-rendering="crispEdges"/>
</g>
<path d="M33.0648 68.59V67.9C33.2714 67.9 33.4548 67.8733 33.6148 67.82C33.7814 67.7667 33.9214 67.6933 34.0348 67.6C34.1481 67.5 34.2348 67.39 34.2948 67.27C34.3614 67.1433 34.3948 67.0133 34.3948 66.88C34.3948 66.7133 34.3614 66.5667 34.2948 66.44C34.2281 66.3133 34.1314 66.2167 34.0048 66.15C33.8781 66.0833 33.7148 66.05 33.5148 66.05C33.2348 66.05 32.9981 66.1367 32.8048 66.31C32.6181 66.4767 32.5248 66.69 32.5248 66.95H31.1948C31.1948 66.55 31.2914 66.1967 31.4848 65.89C31.6848 65.5767 31.9581 65.33 32.3048 65.15C32.6514 64.97 33.0548 64.88 33.5148 64.88C34.0014 64.88 34.4148 64.9667 34.7548 65.14C35.1014 65.3133 35.3648 65.5433 35.5448 65.83C35.7248 66.1167 35.8148 66.4367 35.8148 66.79C35.8148 67.17 35.6948 67.4967 35.4548 67.77C35.2148 68.0367 34.8881 68.24 34.4748 68.38C34.0614 68.52 33.5914 68.59 33.0648 68.59ZM33.4548 72.14C33.0548 72.14 32.6981 72.08 32.3848 71.96C32.0714 71.84 31.8048 71.6767 31.5848 71.47C31.3648 71.2567 31.1948 71.0167 31.0748 70.75C30.9548 70.4767 30.8948 70.19 30.8948 69.89H32.3148C32.3148 70.1167 32.3681 70.31 32.4748 70.47C32.5814 70.63 32.7248 70.7533 32.9048 70.84C33.0848 70.92 33.2814 70.96 33.4948 70.96C33.7148 70.96 33.9048 70.9233 34.0648 70.85C34.2314 70.77 34.3614 70.6567 34.4548 70.51C34.5481 70.3633 34.5948 70.18 34.5948 69.96C34.5948 69.8 34.5614 69.6533 34.4948 69.52C34.4281 69.38 34.3281 69.2633 34.1948 69.17C34.0681 69.0767 33.9081 69.0067 33.7148 68.96C33.5281 68.9067 33.3114 68.88 33.0648 68.88V68.12C33.4914 68.12 33.8814 68.1567 34.2348 68.23C34.5948 68.3033 34.9081 68.4233 35.1748 68.59C35.4414 68.75 35.6481 68.9567 35.7948 69.21C35.9414 69.4567 36.0148 69.7567 36.0148 70.11C36.0148 70.51 35.9081 70.8633 35.6948 71.17C35.4881 71.4767 35.1914 71.7167 34.8048 71.89C34.4248 72.0567 33.9748 72.14 33.4548 72.14ZM38.1416 68.5C38.1416 68.8533 38.1749 69.1767 38.2416 69.47C38.3082 69.7567 38.4049 70.0067 38.5316 70.22C38.6582 70.4267 38.8082 70.5867 38.9816 70.7C39.1549 70.8133 39.3482 70.87 39.5616 70.87C39.7816 70.87 39.9782 70.8133 40.1516 70.7C40.3249 70.5867 40.4749 70.4267 40.6016 70.22C40.7282 70.0067 40.8249 69.7567 40.8916 69.47C40.9582 69.1767 40.9916 68.8533 40.9916 68.5C40.9916 68.1467 40.9582 67.8267 40.8916 67.54C40.8249 67.2467 40.7282 66.9967 40.6016 66.79C40.4749 66.5767 40.3249 66.4133 40.1516 66.3C39.9782 66.1867 39.7816 66.13 39.5616 66.13C39.3482 66.13 39.1549 66.1867 38.9816 66.3C38.8082 66.4133 38.6582 66.5767 38.5316 66.79C38.4049 66.9967 38.3082 67.2467 38.2416 67.54C38.1749 67.8267 38.1416 68.1467 38.1416 68.5ZM36.7516 68.5C36.7516 67.76 36.8682 67.12 37.1016 66.58C37.3416 66.04 37.6716 65.6233 38.0916 65.33C38.5182 65.03 39.0082 64.88 39.5616 64.88C40.1349 64.88 40.6316 65.03 41.0516 65.33C41.4716 65.6233 41.7982 66.04 42.0316 66.58C42.2649 67.12 42.3816 67.76 42.3816 68.5C42.3816 69.24 42.2649 69.88 42.0316 70.42C41.7982 70.96 41.4716 71.38 41.0516 71.68C40.6316 71.9733 40.1349 72.12 39.5616 72.12C39.0082 72.12 38.5182 71.9733 38.0916 71.68C37.6716 71.38 37.3416 70.96 37.1016 70.42C36.8682 69.88 36.7516 69.24 36.7516 68.5ZM47.1673 65H48.4173L44.2173 73.5H42.9273L47.1673 65ZM48.7284 70.71L52.7384 65H53.7084V72H52.2384V70.24L52.3584 70.13V67.28L50.7084 69.64H53.2084L53.3784 69.49H54.8084V70.71H48.7284ZM56.9795 68.5C56.9795 68.8533 57.0128 69.1767 57.0795 69.47C57.1461 69.7567 57.2428 70.0067 57.3695 70.22C57.4961 70.4267 57.6461 70.5867 57.8195 70.7C57.9928 70.8133 58.1861 70.87 58.3995 70.87C58.6195 70.87 58.8161 70.8133 58.9895 70.7C59.1628 70.5867 59.3128 70.4267 59.4395 70.22C59.5661 70.0067 59.6628 69.7567 59.7295 69.47C59.7961 69.1767 59.8295 68.8533 59.8295 68.5C59.8295 68.1467 59.7961 67.8267 59.7295 67.54C59.6628 67.2467 59.5661 66.9967 59.4395 66.79C59.3128 66.5767 59.1628 66.4133 58.9895 66.3C58.8161 66.1867 58.6195 66.13 58.3995 66.13C58.1861 66.13 57.9928 66.1867 57.8195 66.3C57.6461 66.4133 57.4961 66.5767 57.3695 66.79C57.2428 66.9967 57.1461 67.2467 57.0795 67.54C57.0128 67.8267 56.9795 68.1467 56.9795 68.5ZM55.5895 68.5C55.5895 67.76 55.7061 67.12 55.9395 66.58C56.1795 66.04 56.5095 65.6233 56.9295 65.33C57.3561 65.03 57.8461 64.88 58.3995 64.88C58.9728 64.88 59.4695 65.03 59.8895 65.33C60.3095 65.6233 60.6361 66.04 60.8695 66.58C61.1028 67.12 61.2195 67.76 61.2195 68.5C61.2195 69.24 61.1028 69.88 60.8695 70.42C60.6361 70.96 60.3095 71.38 59.8895 71.68C59.4695 71.9733 58.9728 72.12 58.3995 72.12C57.8461 72.12 57.3561 71.9733 56.9295 71.68C56.5095 71.38 56.1795 70.96 55.9395 70.42C55.7061 69.88 55.5895 69.24 55.5895 68.5Z" fill="#222222"/>
<path d="M53 51.5001V56.1667C53 58.0917 51.425 59.6667 49.5 59.6667H42.5C40.575 59.6667 39 58.0917 39 56.1667V50.3101L43.5384 50.3334C44.39 50.3334 45.23 50.5317 46 50.9167C46.77 51.3017 47.61 51.5001 48.4733 51.5001H53Z" fill="#3F35FF"/>
<path opacity="0.4" d="M53 46.6351V51.5001H48.4733C47.61 51.5001 46.77 51.3017 46 50.9167C45.23 50.5317 44.39 50.3334 43.5384 50.3334L39 50.3101V46.6351C39 46.0984 39.3034 45.3634 39.6884 44.9784L42.1617 42.5051C42.3717 42.2951 42.5 41.9917 42.5 41.6884V39.7284C42.6867 39.7984 42.8733 39.8334 43.0833 39.8334H48.9167C49.1267 39.8334 49.3133 39.7984 49.5 39.7284V41.6884C49.5 41.9917 49.6283 42.2951 49.8383 42.5051L52.3116 44.9784C52.6966 45.3634 53 46.0984 53 46.6351Z" fill="#3F35FF"/>
<path d="M48.9167 36.3334H43.0833C42.115 36.3334 41.3333 37.115 41.3333 38.0834C41.3333 38.8417 41.8233 39.495 42.5 39.7284C42.6867 39.7984 42.8733 39.8334 43.0833 39.8334H48.9167C49.1267 39.8334 49.3133 39.7984 49.5 39.7284C50.1767 39.495 50.6667 38.8417 50.6667 38.0834C50.6667 37.115 49.885 36.3334 48.9167 36.3334Z" fill="#3F35FF"/>
<path opacity="0.5" d="M33.6091 29.59C33.6971 29.746 33.7931 29.882 33.8971 29.998C34.0051 30.114 34.1231 30.204 34.2511 30.268C34.3791 30.332 34.5171 30.364 34.6651 30.364C34.8371 30.364 34.9771 30.32 35.0851 30.232C35.1931 30.144 35.2471 30.024 35.2471 29.872C35.2471 29.74 35.2131 29.634 35.1451 29.554C35.0811 29.474 34.9831 29.404 34.8511 29.344C34.7231 29.28 34.5651 29.212 34.3771 29.14C34.2771 29.104 34.1611 29.056 34.0291 28.996C33.9011 28.932 33.7791 28.852 33.6631 28.756C33.5471 28.656 33.4511 28.536 33.3751 28.396C33.2991 28.252 33.2611 28.08 33.2611 27.88C33.2611 27.64 33.3211 27.434 33.4411 27.262C33.5651 27.086 33.7311 26.952 33.9391 26.86C34.1511 26.764 34.3871 26.716 34.6471 26.716C34.9151 26.716 35.1451 26.762 35.3371 26.854C35.5331 26.942 35.6951 27.056 35.8231 27.196C35.9551 27.332 36.0571 27.474 36.1291 27.622L35.4571 27.994C35.4011 27.894 35.3331 27.804 35.2531 27.724C35.1771 27.64 35.0891 27.574 34.9891 27.526C34.8891 27.474 34.7751 27.448 34.6471 27.448C34.4791 27.448 34.3531 27.488 34.2691 27.568C34.1851 27.644 34.1431 27.734 34.1431 27.838C34.1431 27.942 34.1771 28.034 34.2451 28.114C34.3131 28.19 34.4171 28.264 34.5571 28.336C34.6971 28.404 34.8731 28.474 35.0851 28.546C35.2211 28.594 35.3511 28.654 35.4751 28.726C35.6031 28.798 35.7171 28.886 35.8171 28.99C35.9211 29.09 36.0011 29.21 36.0571 29.35C36.1171 29.486 36.1471 29.644 36.1471 29.824C36.1471 30.028 36.1071 30.21 36.0271 30.37C35.9471 30.53 35.8371 30.666 35.6971 30.778C35.5571 30.886 35.3991 30.968 35.2231 31.024C35.0511 31.084 34.8691 31.114 34.6771 31.114C34.4211 31.114 34.1811 31.066 33.9571 30.97C33.7371 30.87 33.5451 30.736 33.3811 30.568C33.2171 30.4 33.0891 30.218 32.9971 30.022L33.6091 29.59ZM36.4266 27.574V26.8H39.5466V27.574H38.4126V31H37.5546V27.574H36.4266ZM40.0185 30.046L40.1205 29.368H42.1365L42.2385 30.046H40.0185ZM41.1165 28.162L40.4865 29.608L40.5045 29.8L39.9525 31H38.9865L41.1165 26.554L43.2465 31H42.2745L41.7345 29.836L41.7465 29.62L41.1165 28.162ZM44.6261 28.642L44.3561 31H43.4621L44.0861 26.59L45.8441 29.302L47.6021 26.59L48.2261 31H47.3321L47.0621 28.642L45.8441 30.61L44.6261 28.642ZM48.8994 26.8H49.7694V31H48.8994V26.8ZM53.6628 26.8H54.4908V31.21L51.5028 28.396V31H50.6748V26.59L53.6628 29.404V26.8ZM55.9853 30.046L56.0873 29.368H58.1033L58.2053 30.046H55.9853ZM57.0833 28.162L56.4533 29.608L56.4713 29.8L55.9193 31H54.9533L57.0833 26.554L59.2133 31H58.2413L57.7013 29.836L57.7133 29.62L57.0833 28.162Z" fill="#222222"/>
<defs>
<filter id="filter0_bd_76_932" x="-44" y="-43.3995" width="179" height="186.985" filterUnits="userSpaceOnUse" color-interpolation-filters="sRGB">
<feFlood flood-opacity="0" result="BackgroundImageFix"/>
<feGaussianBlur in="BackgroundImageFix" stdDeviation="27"/>
<feComposite in2="SourceAlpha" operator="in" result="effect1_backgroundBlur_76_932"/>
<feColorMatrix in="SourceAlpha" type="matrix" values="0 0 0 0 0 0 0 0 0 0 0 0 0 0 0 0 0 0 127 0" result="hardAlpha"/>
<feOffset/>
<feGaussianBlur stdDeviation="5"/>
<feComposite in2="hardAlpha" operator="out"/>
<feColorMatrix type="matrix" values="0 0 0 0 0 0 0 0 0 0 0 0 0 0 0 0 0 0 0.3 0"/>
<feBlend mode="normal" in2="effect1_backgroundBlur_76_932" result="effect2_dropShadow_76_932"/>
<feBlend mode="normal" in="SourceGraphic" in2="effect2_dropShadow_76_932" result="shape"/>
</filter>
<filter id="filter1_bd_76_932" x="-40" y="-38.3026" width="171" height="176.791" filterUnits="userSpaceOnUse" color-interpolation-filters="sRGB">
<feFlood flood-opacity="0" result="BackgroundImageFix"/>
<feGaussianBlur in="BackgroundImageFix" stdDeviation="27"/>
<feComposite in2="SourceAlpha" operator="in" result="effect1_backgroundBlur_76_932"/>
<feColorMatrix in="SourceAlpha" type="matrix" values="0 0 0 0 0 0 0 0 0 0 0 0 0 0 0 0 0 0 127 0" result="hardAlpha"/>
<feOffset/>
<feGaussianBlur stdDeviation="5"/>
<feComposite in2="hardAlpha" operator="out"/>
<feColorMatrix type="matrix" values="0 0 0 0 0 0 0 0 0 0 0 0 0 0 0 0 0 0 0.3 0"/>
<feBlend mode="normal" in2="effect1_backgroundBlur_76_932" result="effect2_dropShadow_76_932"/>
<feBlend mode="normal" in="SourceGraphic" in2="effect2_dropShadow_76_932" result="shape"/>
</filter>
<linearGradient id="paint0_linear_76_932" x1="84.8587" y1="0.679499" x2="54.888" y2="-25.013" gradientUnits="userSpaceOnUse">
<stop stop-color="white" stop-opacity="0"/>
<stop offset="1" stop-color="white"/>
</linearGradient>
<linearGradient id="paint1_linear_76_932" x1="64.7935" y1="92.1857" x2="42.2632" y2="73.6909" gradientUnits="userSpaceOnUse">
<stop stop-color="white"/>
<stop offset="1" stop-color="white" stop-opacity="0"/>
</linearGradient>
<linearGradient id="paint2_linear_76_932" x1="80.4239" y1="6.54906" x2="53.986" y2="-16.272" gradientUnits="userSpaceOnUse">
<stop stop-color="white" stop-opacity="0"/>
<stop offset="1" stop-color="white"/>
</linearGradient>
<linearGradient id="paint3_linear_76_932" x1="62.6196" y1="87.1857" x2="42.7392" y2="70.7531" gradientUnits="userSpaceOnUse">
<stop stop-color="white"/>
<stop offset="1" stop-color="white" stop-opacity="0"/>
</linearGradient>
</defs>
</svg>
