<svg width="91" height="100" viewBox="0 0 91 100" fill="none" xmlns="http://www.w3.org/2000/svg">
<g filter="url(#filter0_bd_1_511)">
<path d="M32.4448 15.7399C37.1944 12.924 39.5692 11.5161 42.1011 10.9657C44.3409 10.4788 46.6591 10.4788 48.8989 10.9657C51.4308 11.5161 53.8056 12.924 58.5553 15.7399L68.4553 21.6092C73.0284 24.3204 75.3149 25.676 76.9765 27.5516C78.4468 29.2114 79.5561 31.1586 80.2339 33.2697C81 35.6555 81 38.3137 81 43.6301V56.5556C81 61.872 81 64.5302 80.2339 66.916C79.5561 69.0271 78.4468 70.9744 76.9765 72.6341C75.3149 74.5097 73.0284 75.8653 68.4553 78.5765L58.5552 84.4458C53.8056 87.2617 51.4308 88.6696 48.8989 89.22C46.6591 89.7069 44.3409 89.7069 42.1011 89.22C39.5692 88.6696 37.1944 87.2617 32.4447 84.4458L22.5447 78.5765C17.9716 75.8653 15.6851 74.5097 14.0235 72.6341C12.5532 70.9744 11.4439 69.0271 10.7661 66.916C10 64.5302 10 61.872 10 56.5556V43.6301C10 38.3137 10 35.6555 10.7661 33.2697C11.4439 31.1586 12.5532 29.2114 14.0235 27.5516C15.6851 25.676 17.9716 24.3204 22.5447 21.6092L32.4448 15.7399Z" fill="black" fill-opacity="0.1" shape-rendering="crispEdges"/>
<path d="M32.5722 15.9549C37.3368 13.1302 39.6713 11.7497 42.1542 11.21C44.359 10.7307 46.641 10.7307 48.8458 11.21C51.3287 11.7497 53.6632 13.1302 58.4278 15.9549L68.3278 21.8242C72.9152 24.5439 75.1599 25.878 76.7894 27.7174C78.2367 29.3512 79.3286 31.268 79.9959 33.3461C80.7472 35.6858 80.75 38.2971 80.75 43.6301V56.5556C80.75 61.8887 80.7472 64.4999 79.9959 66.8396C79.3286 68.9177 78.2367 70.8345 76.7894 72.4683C75.1599 74.3077 72.9152 75.6418 68.3278 78.3615L58.4277 84.2308C53.6632 87.0555 51.3287 88.436 48.8458 88.9757C46.641 89.455 44.359 89.455 42.1542 88.9757C39.6713 88.436 37.3368 87.0555 32.5722 84.2308L22.6722 78.3615C18.0848 75.6418 15.8401 74.3077 14.2106 72.4683C12.7633 70.8345 11.6714 68.9177 11.0041 66.8396C10.2528 64.4999 10.25 61.8887 10.25 56.5556V43.6301C10.25 38.2971 10.2528 35.6858 11.0041 33.3461C11.6714 31.268 12.7633 29.3512 14.2106 27.7174C15.8401 25.878 18.0848 24.5439 22.6722 21.8242L32.5722 15.9549Z" stroke="url(#paint0_linear_1_511)" stroke-width="0.5" shape-rendering="crispEdges"/>
<path d="M32.5722 15.9549C37.3368 13.1302 39.6713 11.7497 42.1542 11.21C44.359 10.7307 46.641 10.7307 48.8458 11.21C51.3287 11.7497 53.6632 13.1302 58.4278 15.9549L68.3278 21.8242C72.9152 24.5439 75.1599 25.878 76.7894 27.7174C78.2367 29.3512 79.3286 31.268 79.9959 33.3461C80.7472 35.6858 80.75 38.2971 80.75 43.6301V56.5556C80.75 61.8887 80.7472 64.4999 79.9959 66.8396C79.3286 68.9177 78.2367 70.8345 76.7894 72.4683C75.1599 74.3077 72.9152 75.6418 68.3278 78.3615L58.4277 84.2308C53.6632 87.0555 51.3287 88.436 48.8458 88.9757C46.641 89.455 44.359 89.455 42.1542 88.9757C39.6713 88.436 37.3368 87.0555 32.5722 84.2308L22.6722 78.3615C18.0848 75.6418 15.8401 74.3077 14.2106 72.4683C12.7633 70.8345 11.6714 68.9177 11.0041 66.8396C10.2528 64.4999 10.25 61.8887 10.25 56.5556V43.6301C10.25 38.2971 10.2528 35.6858 11.0041 33.3461C11.6714 31.268 12.7633 29.3512 14.2106 27.7174C15.8401 25.878 18.0848 24.5439 22.6722 21.8242L32.5722 15.9549Z" stroke="url(#paint1_linear_1_511)" stroke-width="0.5" shape-rendering="crispEdges"/>
</g>
<g filter="url(#filter1_bd_1_511)">
<path d="M35.5656 19.0068C39.1761 16.8237 40.9814 15.7322 42.9101 15.3059C44.6161 14.9288 46.3839 14.9288 48.0898 15.3059C50.0186 15.7322 51.8239 16.8237 55.4344 19.0068L67.7344 26.444C71.1138 28.4874 72.8035 29.509 74.0306 30.9112C75.1165 32.1521 75.935 33.6035 76.435 35.1748C77 36.9504 77 38.925 77 42.8741V57.3116C77 61.2607 77 63.2353 76.435 65.0109C75.935 66.5822 75.1165 68.0336 74.0306 69.2745C72.8035 70.6767 71.1138 71.6984 67.7344 73.7417L55.4344 81.1789C51.8239 83.362 50.0186 84.4535 48.0898 84.8798C46.3839 85.2569 44.6161 85.2569 42.9101 84.8798C40.9814 84.4535 39.1761 83.362 35.5656 81.1789L23.2656 73.7417C19.8862 71.6984 18.1965 70.6767 16.9694 69.2745C15.8835 68.0336 15.065 66.5822 14.565 65.0109C14 63.2353 14 61.2607 14 57.3116V42.8741C14 38.925 14 36.9504 14.565 35.1748C15.065 33.6035 15.8835 32.1521 16.9694 30.9112C18.1965 29.509 19.8862 28.4874 23.2656 26.444L35.5656 19.0068Z" fill="black" fill-opacity="0.4" shape-rendering="crispEdges"/>
<path d="M35.6949 19.2208C39.3206 17.0285 41.0851 15.9653 42.9641 15.55C44.6345 15.1808 46.3655 15.1808 48.0359 15.55C49.9149 15.9653 51.6794 17.0285 55.3051 19.2208L67.6051 26.6579C70.9985 28.7098 72.647 29.7098 73.8424 31.0759C74.9057 32.2909 75.7071 33.7121 76.1967 35.2507C76.7472 36.9805 76.75 38.9085 76.75 42.8741V57.3116C76.75 61.2772 76.7472 63.2052 76.1967 64.9351C75.7071 66.4736 74.9057 67.8948 73.8424 69.1098C72.647 70.4759 70.9985 71.4759 67.6051 73.5278L55.3051 80.965C51.6794 83.1572 49.9149 84.2204 48.0359 84.6357C46.3655 85.005 44.6345 85.005 42.9641 84.6357C41.0851 84.2204 39.3206 83.1572 35.6949 80.9649L23.3949 73.5278C20.0015 71.4759 18.353 70.4759 17.1576 69.1098C16.0943 67.8948 15.2929 66.4736 14.8033 64.9351C14.2528 63.2052 14.25 61.2772 14.25 57.3116V42.8741C14.25 38.9085 14.2528 36.9805 14.8033 35.2507C15.2929 33.7121 16.0943 32.2909 17.1576 31.0759C18.353 29.7098 20.0015 28.7098 23.3949 26.6579L35.6949 19.2208Z" stroke="url(#paint2_linear_1_511)" stroke-width="0.5" shape-rendering="crispEdges"/>
<path d="M35.6949 19.2208C39.3206 17.0285 41.0851 15.9653 42.9641 15.55C44.6345 15.1808 46.3655 15.1808 48.0359 15.55C49.9149 15.9653 51.6794 17.0285 55.3051 19.2208L67.6051 26.6579C70.9985 28.7098 72.647 29.7098 73.8424 31.0759C74.9057 32.2909 75.7071 33.7121 76.1967 35.2507C76.7472 36.9805 76.75 38.9085 76.75 42.8741V57.3116C76.75 61.2772 76.7472 63.2052 76.1967 64.9351C75.7071 66.4736 74.9057 67.8948 73.8424 69.1098C72.647 70.4759 70.9985 71.4759 67.6051 73.5278L55.3051 80.965C51.6794 83.1572 49.9149 84.2204 48.0359 84.6357C46.3655 85.005 44.6345 85.005 42.9641 84.6357C41.0851 84.2204 39.3206 83.1572 35.6949 80.9649L23.3949 73.5278C20.0015 71.4759 18.353 70.4759 17.1576 69.1098C16.0943 67.8948 15.2929 66.4736 14.8033 64.9351C14.2528 63.2052 14.25 61.2772 14.25 57.3116V42.8741C14.25 38.9085 14.2528 36.9805 14.8033 35.2507C15.2929 33.7121 16.0943 32.2909 17.1576 31.0759C18.353 29.7098 20.0015 28.7098 23.3949 26.6579L35.6949 19.2208Z" stroke="url(#paint3_linear_1_511)" stroke-width="0.5" shape-rendering="crispEdges"/>
</g>
<path d="M29.9778 65H31.4078V70.75H34.1978V72H29.9778V65ZM35.8241 68.5C35.8241 68.9467 35.9174 69.3433 36.1041 69.69C36.2908 70.0367 36.5474 70.31 36.8741 70.51C37.2008 70.71 37.5808 70.81 38.0141 70.81C38.4474 70.81 38.8274 70.71 39.1541 70.51C39.4808 70.31 39.7341 70.0367 39.9141 69.69C40.1008 69.3433 40.1941 68.9467 40.1941 68.5C40.1941 68.0533 40.1041 67.6567 39.9241 67.31C39.7441 66.9633 39.4908 66.69 39.1641 66.49C38.8374 66.29 38.4541 66.19 38.0141 66.19C37.5808 66.19 37.2008 66.29 36.8741 66.49C36.5474 66.69 36.2908 66.9633 36.1041 67.31C35.9174 67.6567 35.8241 68.0533 35.8241 68.5ZM34.3141 68.5C34.3141 67.9667 34.4074 67.48 34.5941 67.04C34.7808 66.5933 35.0408 66.2067 35.3741 65.88C35.7074 65.5533 36.0974 65.3033 36.5441 65.13C36.9974 64.95 37.4874 64.86 38.0141 64.86C38.5474 64.86 39.0374 64.95 39.4841 65.13C39.9308 65.3033 40.3208 65.5533 40.6541 65.88C40.9941 66.2067 41.2541 66.5933 41.4341 67.04C41.6208 67.48 41.7141 67.9667 41.7141 68.5C41.7141 69.0267 41.6208 69.5167 41.4341 69.97C41.2541 70.4167 40.9974 70.8067 40.6641 71.14C40.3374 71.4733 39.9474 71.7333 39.4941 71.92C39.0474 72.1 38.5541 72.19 38.0141 72.19C37.4741 72.19 36.9774 72.1 36.5241 71.92C36.0774 71.7333 35.6874 71.4733 35.3541 71.14C35.0208 70.8067 34.7641 70.4167 34.5841 69.97C34.4041 69.5167 34.3141 69.0267 34.3141 68.5ZM44.4096 68.74H45.9196L48.1996 72H46.5096L44.4096 68.74ZM42.8196 65H44.2496V72H42.8196V65ZM43.6896 66.22V65H45.1696C45.7229 65 46.1929 65.0933 46.5796 65.28C46.9662 65.4667 47.2629 65.7267 47.4696 66.06C47.6762 66.3933 47.7796 66.7833 47.7796 67.23C47.7796 67.67 47.6762 68.06 47.4696 68.4C47.2629 68.7333 46.9662 68.9933 46.5796 69.18C46.1929 69.3667 45.7229 69.46 45.1696 69.46H43.6896V68.32H45.0796C45.3329 68.32 45.5496 68.28 45.7296 68.2C45.9162 68.1133 46.0596 67.9933 46.1596 67.84C46.2596 67.68 46.3096 67.49 46.3096 67.27C46.3096 67.05 46.2596 66.8633 46.1596 66.71C46.0596 66.55 45.9162 66.43 45.7296 66.35C45.5496 66.2633 45.3329 66.22 45.0796 66.22H43.6896ZM49.9407 72V70.79H53.4707V72H49.9407ZM49.9407 66.21V65H53.4707V66.21H49.9407ZM49.9407 68.88V67.69H53.2707V68.88H49.9407ZM49.0207 65H50.4007V72H49.0207V65ZM56.4201 68.07L55.9701 72H54.4801L55.5201 64.65L58.4501 69.17L61.3801 64.65L62.4201 72H60.9301L60.4801 68.07L58.4501 71.35L56.4201 68.07Z" fill="white"/>
<path d="M49.955 40.0783L51.6 43.3683C51.8217 43.8233 52.4167 44.255 52.9183 44.3483L55.8934 44.8383C57.795 45.1533 58.2384 46.53 56.8734 47.9067L54.5517 50.2283C54.1667 50.6133 53.945 51.3717 54.0734 51.92L54.7383 54.79C55.2633 57.0533 54.05 57.94 52.055 56.75L49.2667 55.0933C48.765 54.79 47.925 54.79 47.4234 55.0933L44.635 56.75C42.64 57.9283 41.4267 57.0533 41.9517 54.79L42.6167 51.92C42.745 51.3833 42.5234 50.625 42.1384 50.2283L39.8167 47.9067C38.4517 46.5417 38.895 45.165 40.7967 44.8383L43.7717 44.3483C44.2733 44.2667 44.8684 43.8233 45.09 43.3683L46.735 40.0783C47.61 38.2933 49.0567 38.2933 49.955 40.0783Z" fill="#FFDD00"/>
<path opacity="0.4" d="M41.3333 40.7083H34.3333C33.855 40.7083 33.4583 40.3117 33.4583 39.8333C33.4583 39.355 33.855 38.9583 34.3333 38.9583H41.3333C41.8117 38.9583 42.2083 39.355 42.2083 39.8333C42.2083 40.3117 41.8117 40.7083 41.3333 40.7083Z" fill="#FFDD00"/>
<path opacity="0.4" d="M37.8333 57.0417H34.3333C33.855 57.0417 33.4583 56.645 33.4583 56.1667C33.4583 55.6883 33.855 55.2917 34.3333 55.2917H37.8333C38.3117 55.2917 38.7083 55.6883 38.7083 56.1667C38.7083 56.645 38.3117 57.0417 37.8333 57.0417Z" fill="#FFDD00"/>
<path opacity="0.4" d="M35.5 48.875H34.3333C33.855 48.875 33.4583 48.4783 33.4583 48C33.4583 47.5217 33.855 47.125 34.3333 47.125H35.5C35.9783 47.125 36.375 47.5217 36.375 48C36.375 48.4783 35.9783 48.875 35.5 48.875Z" fill="#FFDD00"/>
<path opacity="0.5" d="M36.5775 28.87V28.48H37.2555C37.3795 28.48 37.4875 28.46 37.5795 28.42C37.6715 28.38 37.7415 28.322 37.7895 28.246C37.8415 28.17 37.8675 28.08 37.8675 27.976C37.8675 27.816 37.8115 27.694 37.6995 27.61C37.5915 27.526 37.4435 27.484 37.2555 27.484H36.7935V30.316H37.3455C37.4895 30.316 37.6195 30.296 37.7355 30.256C37.8515 30.212 37.9415 30.144 38.0055 30.052C38.0735 29.96 38.1075 29.842 38.1075 29.698C38.1075 29.594 38.0875 29.506 38.0475 29.434C38.0115 29.358 37.9575 29.296 37.8855 29.248C37.8175 29.196 37.7375 29.16 37.6455 29.14C37.5535 29.116 37.4535 29.104 37.3455 29.104H36.5775V28.636H37.4235C37.6275 28.636 37.8215 28.658 38.0055 28.702C38.1935 28.746 38.3615 28.816 38.5095 28.912C38.6575 29.004 38.7735 29.124 38.8575 29.272C38.9455 29.42 38.9895 29.598 38.9895 29.806C38.9895 30.082 38.9235 30.308 38.7915 30.484C38.6635 30.66 38.4815 30.79 38.2455 30.874C38.0095 30.958 37.7355 31 37.4235 31H35.9355V26.8H37.3335C37.6135 26.8 37.8595 26.84 38.0715 26.92C38.2835 26.996 38.4495 27.112 38.5695 27.268C38.6895 27.424 38.7495 27.622 38.7495 27.862C38.7495 28.074 38.6895 28.256 38.5695 28.408C38.4495 28.56 38.2835 28.676 38.0715 28.756C37.8595 28.832 37.6135 28.87 37.3335 28.87H36.5775ZM40.3866 28.9C40.3866 29.168 40.4426 29.406 40.5546 29.614C40.6666 29.822 40.8206 29.986 41.0166 30.106C41.2126 30.226 41.4406 30.286 41.7006 30.286C41.9606 30.286 42.1886 30.226 42.3846 30.106C42.5806 29.986 42.7326 29.822 42.8406 29.614C42.9526 29.406 43.0086 29.168 43.0086 28.9C43.0086 28.632 42.9546 28.394 42.8466 28.186C42.7386 27.978 42.5866 27.814 42.3906 27.694C42.1946 27.574 41.9646 27.514 41.7006 27.514C41.4406 27.514 41.2126 27.574 41.0166 27.694C40.8206 27.814 40.6666 27.978 40.5546 28.186C40.4426 28.394 40.3866 28.632 40.3866 28.9ZM39.4806 28.9C39.4806 28.58 39.5366 28.288 39.6486 28.024C39.7606 27.756 39.9166 27.524 40.1166 27.328C40.3166 27.132 40.5506 26.982 40.8186 26.878C41.0906 26.77 41.3846 26.716 41.7006 26.716C42.0206 26.716 42.3146 26.77 42.5826 26.878C42.8506 26.982 43.0846 27.132 43.2846 27.328C43.4886 27.524 43.6446 27.756 43.7526 28.024C43.8646 28.288 43.9206 28.58 43.9206 28.9C43.9206 29.216 43.8646 29.51 43.7526 29.782C43.6446 30.05 43.4906 30.284 43.2906 30.484C43.0946 30.684 42.8606 30.84 42.5886 30.952C42.3206 31.06 42.0246 31.114 41.7006 31.114C41.3766 31.114 41.0786 31.06 40.8066 30.952C40.5386 30.84 40.3046 30.684 40.1046 30.484C39.9046 30.284 39.7506 30.05 39.6426 29.782C39.5346 29.51 39.4806 29.216 39.4806 28.9ZM47.5719 26.8H48.3999V31.21L45.4119 28.396V31H44.5839V26.59L47.5719 29.404V26.8ZM49.2824 26.8H50.1404V29.566C50.1404 29.806 50.2024 30 50.3264 30.148C50.4544 30.292 50.6424 30.364 50.8904 30.364C51.1384 30.364 51.3244 30.292 51.4484 30.148C51.5764 30 51.6404 29.806 51.6404 29.566V26.8H52.4984V29.62C52.4984 29.868 52.4584 30.086 52.3784 30.274C52.2984 30.462 52.1844 30.62 52.0364 30.748C51.8924 30.876 51.7224 30.972 51.5264 31.036C51.3304 31.104 51.1184 31.138 50.8904 31.138C50.6584 31.138 50.4444 31.104 50.2484 31.036C50.0524 30.972 49.8824 30.876 49.7384 30.748C49.5944 30.62 49.4824 30.462 49.4024 30.274C49.3224 30.086 49.2824 29.868 49.2824 29.62V26.8ZM53.739 29.59C53.827 29.746 53.923 29.882 54.027 29.998C54.135 30.114 54.253 30.204 54.381 30.268C54.509 30.332 54.647 30.364 54.795 30.364C54.967 30.364 55.107 30.32 55.215 30.232C55.323 30.144 55.377 30.024 55.377 29.872C55.377 29.74 55.343 29.634 55.275 29.554C55.211 29.474 55.113 29.404 54.981 29.344C54.853 29.28 54.695 29.212 54.507 29.14C54.407 29.104 54.291 29.056 54.159 28.996C54.031 28.932 53.909 28.852 53.793 28.756C53.677 28.656 53.581 28.536 53.505 28.396C53.429 28.252 53.391 28.08 53.391 27.88C53.391 27.64 53.451 27.434 53.571 27.262C53.695 27.086 53.861 26.952 54.069 26.86C54.281 26.764 54.517 26.716 54.777 26.716C55.045 26.716 55.275 26.762 55.467 26.854C55.663 26.942 55.825 27.056 55.953 27.196C56.085 27.332 56.187 27.474 56.259 27.622L55.587 27.994C55.531 27.894 55.463 27.804 55.383 27.724C55.307 27.64 55.219 27.574 55.119 27.526C55.019 27.474 54.905 27.448 54.777 27.448C54.609 27.448 54.483 27.488 54.399 27.568C54.315 27.644 54.273 27.734 54.273 27.838C54.273 27.942 54.307 28.034 54.375 28.114C54.443 28.19 54.547 28.264 54.687 28.336C54.827 28.404 55.003 28.474 55.215 28.546C55.351 28.594 55.481 28.654 55.605 28.726C55.733 28.798 55.847 28.886 55.947 28.99C56.051 29.09 56.131 29.21 56.187 29.35C56.247 29.486 56.277 29.644 56.277 29.824C56.277 30.028 56.237 30.21 56.157 30.37C56.077 30.53 55.967 30.666 55.827 30.778C55.687 30.886 55.529 30.968 55.353 31.024C55.181 31.084 54.999 31.114 54.807 31.114C54.551 31.114 54.311 31.066 54.087 30.97C53.867 30.87 53.675 30.736 53.511 30.568C53.347 30.4 53.219 30.218 53.127 30.022L53.739 29.59Z" fill="white"/>
<defs>
<filter id="filter0_bd_1_511" x="-44" y="-43.3995" width="179" height="186.985" filterUnits="userSpaceOnUse" color-interpolation-filters="sRGB">
<feFlood flood-opacity="0" result="BackgroundImageFix"/>
<feGaussianBlur in="BackgroundImageFix" stdDeviation="27"/>
<feComposite in2="SourceAlpha" operator="in" result="effect1_backgroundBlur_1_511"/>
<feColorMatrix in="SourceAlpha" type="matrix" values="0 0 0 0 0 0 0 0 0 0 0 0 0 0 0 0 0 0 127 0" result="hardAlpha"/>
<feOffset/>
<feGaussianBlur stdDeviation="5"/>
<feComposite in2="hardAlpha" operator="out"/>
<feColorMatrix type="matrix" values="0 0 0 0 0 0 0 0 0 0 0 0 0 0 0 0 0 0 0.8 0"/>
<feBlend mode="normal" in2="effect1_backgroundBlur_1_511" result="effect2_dropShadow_1_511"/>
<feBlend mode="normal" in="SourceGraphic" in2="effect2_dropShadow_1_511" result="shape"/>
</filter>
<filter id="filter1_bd_1_511" x="-40" y="-38.9769" width="171" height="178.14" filterUnits="userSpaceOnUse" color-interpolation-filters="sRGB">
<feFlood flood-opacity="0" result="BackgroundImageFix"/>
<feGaussianBlur in="BackgroundImageFix" stdDeviation="27"/>
<feComposite in2="SourceAlpha" operator="in" result="effect1_backgroundBlur_1_511"/>
<feColorMatrix in="SourceAlpha" type="matrix" values="0 0 0 0 0 0 0 0 0 0 0 0 0 0 0 0 0 0 127 0" result="hardAlpha"/>
<feOffset/>
<feGaussianBlur stdDeviation="5"/>
<feComposite in2="hardAlpha" operator="out"/>
<feColorMatrix type="matrix" values="0 0 0 0 0 0 0 0 0 0 0 0 0 0 0 0 0 0 0.8 0"/>
<feBlend mode="normal" in2="effect1_backgroundBlur_1_511" result="effect2_dropShadow_1_511"/>
<feBlend mode="normal" in="SourceGraphic" in2="effect2_dropShadow_1_511" result="shape"/>
</filter>
<linearGradient id="paint0_linear_1_511" x1="14.9581" y1="0.899999" x2="59.0154" y2="32.2423" gradientUnits="userSpaceOnUse">
<stop stop-color="#696969"/>
<stop offset="1" stop-color="#696969" stop-opacity="0"/>
</linearGradient>
<linearGradient id="paint1_linear_1_511" x1="80.1075" y1="92.1857" x2="42.6323" y2="75.2916" gradientUnits="userSpaceOnUse">
<stop stop-color="#696969"/>
<stop offset="1" stop-color="#696969" stop-opacity="0"/>
</linearGradient>
<linearGradient id="paint2_linear_1_511" x1="15.2573" y1="2.40843" x2="58.2542" y2="33.6548" gradientUnits="userSpaceOnUse">
<stop stop-color="#696969"/>
<stop offset="1" stop-color="#696969" stop-opacity="0"/>
</linearGradient>
<linearGradient id="paint3_linear_1_511" x1="79.7685" y1="90.895" x2="42.9312" y2="73.931" gradientUnits="userSpaceOnUse">
<stop stop-color="#696969"/>
<stop offset="1" stop-color="#696969" stop-opacity="0"/>
</linearGradient>
</defs>
</svg>
