<svg width="390" height="102" viewBox="0 0 390 102" fill="none" xmlns="http://www.w3.org/2000/svg">
<g filter="url(#filter0_bd_1_567)">
<path d="M-1 10H391V92L297.459 89.151C295.604 89.0945 294.676 89.0663 293.76 88.9532C292.945 88.8528 292.138 88.7023 291.342 88.5026C290.446 88.2779 289.571 87.9701 287.82 87.3546L238.988 70.1872C232.705 67.9782 228.5 62.0432 228.5 55.3827C228.5 49.6046 225.325 44.2939 220.235 41.559L210.564 36.3628C204.882 33.3096 202.041 31.783 199.046 31.2059C196.395 30.6951 193.668 30.7263 191.029 31.2976C188.048 31.9431 185.242 33.5343 179.631 36.7166L169.153 42.6593C164.423 45.3421 161.5 50.3605 161.5 55.7987C161.5 62.21 157.453 67.9228 151.404 70.0492L102.18 87.3546C100.429 87.9701 99.5539 88.2779 98.6582 88.5026C97.8623 88.7023 97.0548 88.8528 96.2404 88.9532C95.3238 89.0663 94.3963 89.0945 92.5412 89.151L-1 92V10Z" fill="black" fill-opacity="0.1" shape-rendering="crispEdges"/>
<path d="M-0.75 10.25H390.75V91.7423L297.466 88.9011C295.607 88.8445 294.693 88.8164 293.79 88.7051C292.986 88.6059 292.189 88.4573 291.403 88.2601C290.521 88.0389 289.658 87.7357 287.903 87.1187L239.071 69.9514C232.888 67.7775 228.75 61.9371 228.75 55.3827C228.75 49.5125 225.524 44.1172 220.353 41.3388L210.682 36.1426L210.633 36.1162C204.998 33.0881 202.125 31.5448 199.093 30.9604C196.409 30.4432 193.648 30.4748 190.976 31.0533C187.958 31.7068 185.121 33.3154 179.556 36.4716L179.508 36.4992L169.03 42.4418C164.221 45.1691 161.25 50.2705 161.25 55.7987C161.25 62.1039 157.27 67.7222 151.321 69.8134L102.097 87.1187C100.342 87.7357 99.4794 88.0389 98.5973 88.2601C97.8114 88.4573 97.014 88.6059 96.2098 88.7051C95.3073 88.8164 94.3931 88.8445 92.5336 88.9011L-0.75 91.7423V10.25Z" stroke="url(#paint0_linear_1_567)" stroke-width="0.5" shape-rendering="crispEdges"/>
<path d="M-0.75 10.25H390.75V91.7423L297.466 88.9011C295.607 88.8445 294.693 88.8164 293.79 88.7051C292.986 88.6059 292.189 88.4573 291.403 88.2601C290.521 88.0389 289.658 87.7357 287.903 87.1187L239.071 69.9514C232.888 67.7775 228.75 61.9371 228.75 55.3827C228.75 49.5125 225.524 44.1172 220.353 41.3388L210.682 36.1426L210.633 36.1162C204.998 33.0881 202.125 31.5448 199.093 30.9604C196.409 30.4432 193.648 30.4748 190.976 31.0533C187.958 31.7068 185.121 33.3154 179.556 36.4716L179.508 36.4992L169.03 42.4418C164.221 45.1691 161.25 50.2705 161.25 55.7987C161.25 62.1039 157.27 67.7222 151.321 69.8134L102.097 87.1187C100.342 87.7357 99.4794 88.0389 98.5973 88.2601C97.8114 88.4573 97.014 88.6059 96.2098 88.7051C95.3073 88.8164 94.3931 88.8445 92.5336 88.9011L-0.75 91.7423V10.25Z" stroke="url(#paint1_linear_1_567)" stroke-width="0.5" shape-rendering="crispEdges"/>
</g>
<defs>
<filter id="filter0_bd_1_567" x="-55" y="-44" width="500" height="190" filterUnits="userSpaceOnUse" color-interpolation-filters="sRGB">
<feFlood flood-opacity="0" result="BackgroundImageFix"/>
<feGaussianBlur in="BackgroundImageFix" stdDeviation="27"/>
<feComposite in2="SourceAlpha" operator="in" result="effect1_backgroundBlur_1_567"/>
<feColorMatrix in="SourceAlpha" type="matrix" values="0 0 0 0 0 0 0 0 0 0 0 0 0 0 0 0 0 0 127 0" result="hardAlpha"/>
<feOffset/>
<feGaussianBlur stdDeviation="5"/>
<feComposite in2="hardAlpha" operator="out"/>
<feColorMatrix type="matrix" values="0 0 0 0 0 0 0 0 0 0 0 0 0 0 0 0 0 0 0.8 0"/>
<feBlend mode="normal" in2="effect1_backgroundBlur_1_567" result="effect2_dropShadow_1_567"/>
<feBlend mode="normal" in="SourceGraphic" in2="effect2_dropShadow_1_567" result="shape"/>
</filter>
<linearGradient id="paint0_linear_1_567" x1="104.5" y1="50.5" x2="52.5017" y2="91.7543" gradientUnits="userSpaceOnUse">
<stop stop-color="#696969" stop-opacity="0"/>
<stop offset="1" stop-color="#696969"/>
</linearGradient>
<linearGradient id="paint1_linear_1_567" x1="328" y1="99" x2="301.442" y2="60.6933" gradientUnits="userSpaceOnUse">
<stop stop-color="#696969"/>
<stop offset="1" stop-color="#696969" stop-opacity="0"/>
</linearGradient>
</defs>
</svg>
