<svg width="390" height="74" viewBox="0 0 390 74" fill="none" xmlns="http://www.w3.org/2000/svg">
<g filter="url(#filter0_b_1_570)">
<path d="M-1 0H391V74H297.498C296.001 74 295.253 74 294.509 73.9444C293.847 73.895 293.189 73.8127 292.536 73.6979C291.801 73.5688 291.076 73.3846 289.625 73.0163L239.427 60.2737C233 58.6423 228.5 52.8573 228.5 46.2266C228.5 41.1246 225.817 36.3983 221.436 33.783L211.404 27.7931C205.438 24.2316 202.455 22.4508 199.273 21.7549C196.457 21.1392 193.543 21.1392 190.727 21.7549C187.545 22.4508 184.562 24.2316 178.596 27.7931L168.587 33.7688C164.192 36.3929 161.5 41.135 161.5 46.2543C161.5 52.8767 157.025 58.6627 150.616 60.3282L101.958 72.9715C100.476 73.3566 99.7353 73.5491 98.9843 73.6842C98.317 73.8042 97.644 73.8902 96.9679 73.9419C96.207 74 95.4415 74 93.9104 74H-1V0Z" fill="black" fill-opacity="0.5"/>
<path d="M-0.75 0.25H390.75V73.75H297.498C295.998 73.75 295.26 73.7498 294.527 73.6951C293.874 73.6463 293.224 73.5651 292.579 73.4517C291.856 73.3245 291.141 73.1432 289.686 72.774L239.488 60.0314C233.172 58.4281 228.75 52.7429 228.75 46.2266C228.75 41.0365 226.021 36.2288 221.565 33.5683L211.532 27.5785L211.479 27.5473C205.563 24.0153 202.548 22.2153 199.326 21.5106C196.476 20.8873 193.524 20.8873 190.674 21.5106C187.452 22.2153 184.437 24.0153 178.52 27.5473L178.468 27.5785L168.459 33.5541C163.988 36.2234 161.25 41.047 161.25 46.2543C161.25 52.7629 156.852 58.4494 150.553 60.0862L101.895 72.7295C100.41 73.1155 99.6796 73.3051 98.9401 73.4381C98.2811 73.5566 97.6165 73.6416 96.9488 73.6926C96.1997 73.7498 95.4451 73.75 93.9104 73.75H-0.75V0.25Z" stroke="url(#paint0_linear_1_570)" stroke-width="0.5"/>
<path d="M-0.75 0.25H390.75V73.75H297.498C295.998 73.75 295.26 73.7498 294.527 73.6951C293.874 73.6463 293.224 73.5651 292.579 73.4517C291.856 73.3245 291.141 73.1432 289.686 72.774L239.488 60.0314C233.172 58.4281 228.75 52.7429 228.75 46.2266C228.75 41.0365 226.021 36.2288 221.565 33.5683L211.532 27.5785L211.479 27.5473C205.563 24.0153 202.548 22.2153 199.326 21.5106C196.476 20.8873 193.524 20.8873 190.674 21.5106C187.452 22.2153 184.437 24.0153 178.52 27.5473L178.468 27.5785L168.459 33.5541C163.988 36.2234 161.25 41.047 161.25 46.2543C161.25 52.7629 156.852 58.4494 150.553 60.0862L101.895 72.7295C100.41 73.1155 99.6796 73.3051 98.9401 73.4381C98.2811 73.5566 97.6165 73.6416 96.9488 73.6926C96.1997 73.7498 95.4451 73.75 93.9104 73.75H-0.75V0.25Z" stroke="url(#paint1_linear_1_570)" stroke-width="0.5"/>
</g>
<defs>
<filter id="filter0_b_1_570" x="-55" y="-54" width="500" height="182" filterUnits="userSpaceOnUse" color-interpolation-filters="sRGB">
<feFlood flood-opacity="0" result="BackgroundImageFix"/>
<feGaussianBlur in="BackgroundImageFix" stdDeviation="27"/>
<feComposite in2="SourceAlpha" operator="in" result="effect1_backgroundBlur_1_570"/>
<feBlend mode="normal" in="SourceGraphic" in2="effect1_backgroundBlur_1_570" result="shape"/>
</filter>
<linearGradient id="paint0_linear_1_570" x1="69.5" y1="52.5" x2="54.0826" y2="78.3035" gradientUnits="userSpaceOnUse">
<stop stop-color="#696969" stop-opacity="0"/>
<stop offset="1" stop-color="#696969"/>
</linearGradient>
<linearGradient id="paint1_linear_1_570" x1="328" y1="84" x2="303.473" y2="46.5166" gradientUnits="userSpaceOnUse">
<stop stop-color="#696969"/>
<stop offset="1" stop-color="#696969" stop-opacity="0"/>
</linearGradient>
</defs>
</svg>
